<svg width="24" height="24" viewBox="0 0 24 24" fill="none" xmlns="http://www.w3.org/2000/svg">
    <path d="M2.25 9.46881C2.25 9.05569 2.4445 8.66668 2.775 8.41881L11.1643 2.12682C11.6595 1.75539 12.3405 1.75539 12.8357 2.12682L21.225 8.41881C21.5555 8.66668 21.75 9.05569 21.75 9.46881V17.0626C21.75 19.2372 19.9871 21.0001 17.8125 21.0001H6.18751C4.01288 21.0001 2.25 19.2372 2.25 17.0626V9.46881Z" fill="#FF6600"/>
    <rect x="2.25" y="10.501" width="19.5" height="10.5" rx="2.25" fill="#FF6600"/>
    <path d="M11.652 3.83617L4.37703 9.00955C4.02785 9.25786 4.04397 9.78159 4.40776 10.008L11.6827 14.5347C11.8768 14.6554 12.1226 14.6554 12.3167 14.5347L19.5917 10.008C19.9555 9.78159 19.9716 9.25786 19.6224 9.00955L12.3474 3.83617C12.1393 3.68813 11.8602 3.68813 11.652 3.83617Z" fill="white"/>
    <rect x="5" y="3.50003" width="14" height="14" rx="2" fill="#FFBB80"/>
    <path d="M4.4 10H2.25V19H21.75V10H19.6L19.4684 10.0789C17.2055 11.4357 12.9157 14.0078 12.5132 14.4C12.1026 14.8 11.6579 14.5667 11.4868 14.4L4.4 10Z" fill="#FF6600"/>
    <path d="M13.076 9.60004H8.324C8.14506 9.60004 8 9.76793 8 9.97504C8 10.1821 8.14506 10.35 8.324 10.35H13.076C13.2549 10.35 13.4 10.1821 13.4 9.97504C13.4 9.76793 13.2549 9.60004 13.076 9.60004Z" fill="white" stroke="white" stroke-width="0.5"/>
    <path d="M15.6757 6.80002H8.32432C8.1452 6.80002 8 6.96791 8 7.17502C8 7.38213 8.1452 7.55002 8.32432 7.55002H15.6757C15.8548 7.55002 16 7.38213 16 7.17502C16 6.96791 15.8548 6.80002 15.6757 6.80002Z" fill="white" stroke="white" stroke-width="0.5"/>
</svg>