<svg width="24" height="24" viewBox="0 0 24 24" fill="none" xmlns="http://www.w3.org/2000/svg">
    <path d="M2.25 9.46881C2.25 9.05569 2.4445 8.66668 2.775 8.41881L11.1643 2.12682C11.6595 1.75539 12.3405 1.75539 12.8357 2.12682L21.225 8.41881C21.5555 8.66668 21.75 9.05569 21.75 9.46881V17.0626C21.75 19.2372 19.9871 21.0001 17.8125 21.0001H6.18751C4.01288 21.0001 2.25 19.2372 2.25 17.0626V9.46881Z" fill="#FF6600"/>
    <rect x="2.25" y="10.501" width="19.5" height="10.5" rx="2.25" fill="#FF6600"/>
    <path d="M11.652 3.83617L4.37703 9.00955C4.02785 9.25786 4.04397 9.78159 4.40776 10.008L11.6827 14.5347C11.8768 14.6554 12.1226 14.6554 12.3167 14.5347L19.5917 10.008C19.9555 9.78159 19.9716 9.25786 19.6224 9.00955L12.3474 3.83617C12.1393 3.68813 11.8602 3.68813 11.652 3.83617Z" fill="#FFBB80"/>
    <rect x="5" y="3.50003" width="14" height="14" rx="2" fill="#FFDFC2"/>
    <path d="M4.4 10H2.25V19H21.75V10H19.6L19.4684 10.0789C17.2055 11.4357 12.9157 14.0078 12.5132 14.4C12.1026 14.8 11.6579 14.5667 11.4868 14.4L4.4 10Z" fill="#FF6600"/>
    <g clip-path="url(#clip0_1263_24866)">
        <path d="M10.5518 7.55187C10.6884 7.41527 10.633 7.13838 10.4281 6.93344C10.2232 6.72849 9.94627 6.67309 9.80966 6.80969C9.67306 6.9463 9.72846 7.22318 9.93341 7.42813C10.1384 7.63307 10.4152 7.68848 10.5518 7.55187Z" fill="#F37321"/>
        <path d="M14.1903 11.1901C14.3269 11.0535 14.2715 10.7767 14.0666 10.5717C13.8616 10.3668 13.5848 10.3114 13.4482 10.448C13.3115 10.5846 13.3669 10.8615 13.5719 11.0664C13.7768 11.2713 14.0537 11.3268 14.1903 11.1901Z" fill="#F37321"/>
        <path d="M10.022 8.47009C10.072 8.28349 9.88555 8.0714 9.60559 7.99638C9.32563 7.92137 9.05814 8.01183 9.00814 8.19844C8.95814 8.38504 9.14456 8.59713 9.42452 8.67214C9.70448 8.74716 9.97197 8.6567 10.022 8.47009Z" fill="#F37321"/>
        <path d="M14.9918 9.8017C15.0418 9.61509 14.8554 9.403 14.5754 9.32799C14.2955 9.25297 14.028 9.34343 13.978 9.53004C13.928 9.71665 14.1144 9.92873 14.3944 10.0037C14.6743 10.0788 14.9418 9.9883 14.9918 9.8017Z" fill="#F37321"/>
        <path d="M9.60559 10.0036C9.88555 9.9286 10.072 9.71651 10.022 9.52991C9.97197 9.3433 9.70448 9.25284 9.42452 9.32786C9.14456 9.40287 8.95814 9.61496 9.00814 9.80156C9.05814 9.98817 9.32563 10.0786 9.60559 10.0036Z" fill="#F37321"/>
        <path d="M14.5755 8.67195C14.8555 8.59694 15.0419 8.38485 14.9919 8.19824C14.9419 8.01164 14.6744 7.92117 14.3944 7.99619C14.1145 8.07121 13.928 8.28329 13.978 8.4699C14.028 8.65651 14.2955 8.74697 14.5755 8.67195Z" fill="#F37321"/>
        <path d="M10.4283 11.0666C10.6332 10.8616 10.6886 10.5847 10.552 10.4481C10.4154 10.3115 10.1385 10.3669 9.93359 10.5719C9.72864 10.7768 9.67324 11.0537 9.80985 11.1903C9.94645 11.3269 10.2233 11.2715 10.4283 11.0666Z" fill="#F37321"/>
        <path d="M14.0666 7.42829C14.2715 7.22334 14.3269 6.94646 14.1903 6.80985C14.0537 6.67325 13.7768 6.72865 13.5719 6.9336C13.3669 7.13854 13.3115 7.41543 13.4482 7.55203C13.5848 7.68864 13.8616 7.63324 14.0666 7.42829Z" fill="#F37321"/>
        <path d="M11.6719 11.5757C11.747 11.2957 11.6565 11.0283 11.4699 10.9782C11.2833 10.9282 11.0712 11.1147 10.9962 11.3946C10.9212 11.6746 11.0116 11.9421 11.1982 11.9921C11.3848 12.0421 11.5969 11.8557 11.6719 11.5757Z" fill="#F37321"/>
        <path d="M13.0038 6.6054C13.0788 6.32543 12.9883 6.05794 12.8017 6.00794C12.6151 5.95794 12.403 6.14436 12.328 6.42433C12.253 6.70429 12.3435 6.97178 12.5301 7.02178C12.7167 7.07178 12.9288 6.88536 13.0038 6.6054Z" fill="#F37321"/>
        <path d="M12.8016 11.9917C12.9882 11.9417 13.0786 11.6742 13.0036 11.3942C12.9286 11.1142 12.7165 10.9278 12.5299 10.9778C12.3433 11.0278 12.2528 11.2953 12.3278 11.5753C12.4029 11.8552 12.6149 12.0417 12.8016 11.9917Z" fill="#F37321"/>
        <path d="M11.4701 7.02175C11.6567 6.97175 11.7471 6.70426 11.6721 6.4243C11.5971 6.14433 11.385 5.95791 11.1984 6.00791C11.0118 6.05792 10.9213 6.3254 10.9964 6.60537C11.0714 6.88533 11.2835 7.07175 11.4701 7.02175Z" fill="#F37321"/>
        <path d="M10.7136 9.34999C11.0035 9.34999 11.2384 9.19338 11.2384 9.00019C11.2384 8.807 11.0035 8.65039 10.7136 8.65039C10.4238 8.65039 10.1888 8.807 10.1888 9.00019C10.1888 9.19338 10.4238 9.34999 10.7136 9.34999Z" fill="#F37321"/>
        <path d="M13.2863 9.34999C13.5762 9.34999 13.8111 9.19338 13.8111 9.00019C13.8111 8.807 13.5762 8.65039 13.2863 8.65039C12.9965 8.65039 12.7615 8.807 12.7615 9.00019C12.7615 9.19338 12.9965 9.34999 13.2863 9.34999Z" fill="#F37321"/>
        <path d="M11.6597 10.2887C11.8046 10.0377 11.7864 9.75589 11.6191 9.65929C11.4518 9.5627 11.1987 9.68787 11.0538 9.93888C10.9089 10.1899 10.927 10.4717 11.0943 10.5683C11.2616 10.6649 11.5147 10.5397 11.6597 10.2887Z" fill="#F37321"/>
        <path d="M12.946 8.06093C13.0909 7.80992 13.0728 7.52813 12.9055 7.43154C12.7382 7.33494 12.4851 7.46012 12.3402 7.71113C12.1952 7.96214 12.2134 8.24392 12.3807 8.34052C12.548 8.43711 12.8011 8.31194 12.946 8.06093Z" fill="#F37321"/>
        <path d="M12.9055 10.5685C13.0728 10.4719 13.0909 10.1901 12.946 9.93907C12.8011 9.68806 12.548 9.56289 12.3807 9.65948C12.2134 9.75608 12.1952 10.0379 12.3402 10.2889C12.4851 10.5399 12.7382 10.6651 12.9055 10.5685Z" fill="#F37321"/>
        <path d="M11.6194 8.34034C11.7867 8.24375 11.8048 7.96196 11.6599 7.71095C11.515 7.45994 11.2619 7.33477 11.0946 7.43136C10.9273 7.52796 10.9091 7.80974 11.054 8.06075C11.1989 8.31176 11.4521 8.43694 11.6194 8.34034Z" fill="#F37321"/>
    </g>
    <defs>
        <clipPath id="clip0_1263_24866">
            <rect width="6" height="6" fill="white" transform="translate(9 6)"/>
        </clipPath>
    </defs>
</svg>