<svg width="24" height="24" viewBox="0 0 24 24" fill="none" xmlns="http://www.w3.org/2000/svg">
    <path d="M18 1.5H6C4.34315 1.5 3 2.98453 3 4.81579V19.1842C3 21.0155 4.34315 22.5 6 22.5H18C19.6569 22.5 21 21.0155 21 19.1842V4.81579C21 2.98453 19.6569 1.5 18 1.5Z" fill="#FF6600"/>
    <path d="M11.875 17.37H6.375C6.16789 17.37 6 17.5379 6 17.745C6 17.9521 6.16789 18.12 6.375 18.12H11.875C12.0821 18.12 12.25 17.9521 12.25 17.745C12.25 17.5379 12.0821 17.37 11.875 17.37Z" fill="#FFBB80" stroke="#FFBB80" stroke-width="0.5"/>
    <path d="M17.5135 14.375H6.48649C6.21781 14.375 6 14.5429 6 14.75C6 14.9571 6.21781 15.125 6.48649 15.125H17.5135C17.7822 15.125 18 14.9571 18 14.75C18 14.5429 17.7822 14.375 17.5135 14.375Z" fill="#FFBB80" stroke="#FFBB80" stroke-width="0.5"/>
    <path d="M17.5135 11.375H6.48649C6.21781 11.375 6 11.5429 6 11.75C6 11.9571 6.21781 12.125 6.48649 12.125H17.5135C17.7822 12.125 18 11.9571 18 11.75C18 11.5429 17.7822 11.375 17.5135 11.375Z" fill="#FFBB80" stroke="#FFBB80" stroke-width="0.5"/>
    <path d="M8.59609 5.5875V9H7.83438L6.54531 6.79453V9H5.78125V5.5875H6.54531L7.83672 7.79297V5.5875H8.59609ZM11.4813 8.40937V9H9.66484V8.40937H11.4813ZM9.925 5.5875V9H9.16094V5.5875H9.925ZM11.2469 6.96094V7.53281H9.66484V6.96094H11.2469ZM11.4836 5.5875V6.18047H9.66484V5.5875H11.4836ZM12.6625 8.57344L13.3422 5.5875H13.7336L13.8883 5.95781L13.1641 9H12.7352L12.6625 8.57344ZM12.3977 5.5875L12.9672 8.5875L12.8687 9H12.3812L11.6406 5.5875H12.3977ZM14.3734 8.57109L14.9359 5.5875H15.6906L14.95 9H14.4672L14.3734 8.57109ZM13.9891 5.5875L14.6781 8.58984L14.5984 9H14.1719L13.4359 5.95547L13.5977 5.5875H13.9891ZM17.8117 8.1C17.8117 8.04219 17.8031 7.99062 17.7859 7.94531C17.7688 7.89844 17.7375 7.85547 17.6922 7.81641C17.6469 7.77734 17.5828 7.73828 17.5 7.69922C17.4172 7.65859 17.3086 7.61719 17.1742 7.575C17.0211 7.525 16.875 7.46875 16.7359 7.40625C16.5984 7.34219 16.4758 7.26797 16.368 7.18359C16.2602 7.09922 16.175 7.00078 16.1125 6.88828C16.0516 6.77578 16.0211 6.64453 16.0211 6.49453C16.0211 6.34922 16.0531 6.21797 16.1172 6.10078C16.1813 5.98359 16.2711 5.88359 16.3867 5.80078C16.5023 5.71641 16.6383 5.65234 16.7945 5.60859C16.9508 5.56328 17.1227 5.54062 17.3102 5.54062C17.5602 5.54062 17.7797 5.58516 17.9688 5.67422C18.1594 5.76172 18.3078 5.88516 18.4141 6.04453C18.5203 6.20234 18.5734 6.38594 18.5734 6.59531H17.8141C17.8141 6.50312 17.7945 6.42187 17.7555 6.35156C17.718 6.27969 17.6602 6.22344 17.582 6.18281C17.5055 6.14219 17.4094 6.12187 17.2938 6.12187C17.1813 6.12187 17.0867 6.13906 17.0102 6.17344C16.9352 6.20625 16.8781 6.25156 16.8391 6.30937C16.8016 6.36719 16.7828 6.43047 16.7828 6.49922C16.7828 6.55391 16.7969 6.60391 16.825 6.64922C16.8547 6.69297 16.8969 6.73437 16.9516 6.77344C17.0078 6.81094 17.0766 6.84687 17.1578 6.88125C17.2391 6.91562 17.332 6.94844 17.4367 6.97969C17.6195 7.0375 17.7813 7.10156 17.9219 7.17187C18.0641 7.24219 18.1836 7.32187 18.2805 7.41094C18.3773 7.5 18.45 7.60078 18.4984 7.71328C18.5484 7.82578 18.5734 7.95312 18.5734 8.09531C18.5734 8.24687 18.5438 8.38125 18.4844 8.49844C18.4266 8.61562 18.3422 8.71562 18.2313 8.79844C18.1219 8.87969 17.9906 8.94141 17.8375 8.98359C17.6844 9.02578 17.5133 9.04688 17.3242 9.04688C17.1523 9.04688 16.9828 9.025 16.8156 8.98125C16.6484 8.93594 16.4969 8.86719 16.3609 8.775C16.2266 8.68281 16.1188 8.56562 16.0375 8.42344C15.9578 8.27969 15.918 8.10937 15.918 7.9125H16.682C16.682 8.01562 16.6969 8.10312 16.7266 8.175C16.7563 8.24531 16.7984 8.30234 16.8531 8.34609C16.9094 8.38984 16.9773 8.42109 17.057 8.43984C17.1367 8.45859 17.2258 8.46797 17.3242 8.46797C17.4383 8.46797 17.5305 8.45234 17.6008 8.42109C17.6727 8.38828 17.7258 8.34375 17.7602 8.2875C17.7945 8.23125 17.8117 8.16875 17.8117 8.1Z" fill="white"/>
</svg>