<svg width="375" height="560" viewBox="0 0 375 560" fill="none" xmlns="http://www.w3.org/2000/svg">
    <rect width="375" height="560" fill="#FFE0CC"/>
    <mask id="mask0_2467_9265" style="mask-type:alpha" maskUnits="userSpaceOnUse" x="254" y="195" width="82" height="83">
        <circle cx="295" cy="236.166" r="40.5" fill="#7EC9AD" stroke="#7EC9AD"/>
    </mask>
    <g mask="url(#mask0_2467_9265)">
        <line x1="139.252" y1="322.828" x2="336.107" y2="125.973" stroke="#FFC299"/>
        <line x1="142.115" y1="325.691" x2="338.97" y2="128.836" stroke="#FFC299"/>
        <line x1="144.978" y1="328.555" x2="341.834" y2="131.7" stroke="#FFC299"/>
        <line x1="147.842" y1="331.418" x2="344.697" y2="134.563" stroke="#FFC299"/>
        <line x1="150.705" y1="334.281" x2="347.56" y2="137.426" stroke="#FFC299"/>
        <line x1="153.568" y1="337.144" x2="350.423" y2="140.289" stroke="#FFC299"/>
        <line x1="156.432" y1="340.008" x2="353.287" y2="143.153" stroke="#FFC299"/>
        <line x1="159.295" y1="342.871" x2="356.15" y2="146.016" stroke="#FFC299"/>
        <line x1="162.158" y1="345.735" x2="359.013" y2="148.88" stroke="#FFC299"/>
        <line x1="165.021" y1="348.598" x2="361.877" y2="151.743" stroke="#FFC299"/>
        <line x1="167.885" y1="351.461" x2="364.74" y2="154.606" stroke="#FFC299"/>
        <line x1="170.748" y1="354.325" x2="367.603" y2="157.47" stroke="#FFC299"/>
        <line x1="173.611" y1="357.188" x2="370.466" y2="160.333" stroke="#FFC299"/>
        <line x1="176.475" y1="360.051" x2="373.33" y2="163.196" stroke="#FFC299"/>
        <line x1="179.338" y1="362.915" x2="376.193" y2="166.06" stroke="#FFC299"/>
        <line x1="182.201" y1="365.778" x2="379.056" y2="168.923" stroke="#FFC299"/>
        <line x1="185.066" y1="368.641" x2="381.921" y2="171.786" stroke="#FFC299"/>
        <line x1="187.93" y1="371.505" x2="384.785" y2="174.65" stroke="#FFC299"/>
        <line x1="190.793" y1="374.368" x2="387.648" y2="177.513" stroke="#FFC299"/>
        <line x1="193.656" y1="377.231" x2="390.511" y2="180.376" stroke="#FFC299"/>
        <line x1="196.519" y1="380.095" x2="393.375" y2="183.24" stroke="#FFC299"/>
        <line x1="199.383" y1="382.958" x2="396.238" y2="186.103" stroke="#FFC299"/>
        <line x1="202.246" y1="385.821" x2="399.101" y2="188.966" stroke="#FFC299"/>
        <line x1="205.109" y1="388.685" x2="401.964" y2="191.83" stroke="#FFC299"/>
        <line x1="207.973" y1="391.548" x2="404.828" y2="194.693" stroke="#FFC299"/>
    </g>
    <circle cx="55" cy="399" r="31" fill="#fec5a8"/>
    <circle opacity="0.8" cx="336" cy="484" r="12" fill="#FFA16A"/>
</svg>
