<svg width="12" height="12" viewBox="0 0 12 12" fill="none" xmlns="http://www.w3.org/2000/svg">
    <path fill-rule="evenodd" clip-rule="evenodd" d="M6.00247 11.331C6.17332 11.1726 11.2167 6.49081 11.7225 5.33312C11.901 4.92468 12 4.47357 12 3.99935C12 2.15779 10.5071 0.664917 8.66557 0.664917C7.57599 0.664917 6.60847 1.18752 6 1.99574C5.39153 1.18752 4.42401 0.664917 3.33443 0.664917C1.49287 0.664917 -3.8147e-06 2.15779 -3.8147e-06 3.99935C-3.8147e-06 4.47357 0.0989933 4.92468 0.27745 5.33312C0.783321 6.49094 5.82777 11.1736 5.99758 11.331C5.99789 11.3337 5.99804 11.3351 5.99803 11.3351C5.99803 11.3351 5.99869 11.3345 6 11.3333C6.00131 11.3345 6.00197 11.3351 6.00197 11.3351C6.00197 11.3351 6.00214 11.3337 6.00247 11.331Z" fill="#FF0000"/>
</svg>