<svg width="16" height="16" viewBox="0 0 16 16" fill="none" xmlns="http://www.w3.org/2000/svg">
    <path d="M7.071 3.452c.304-.54.456-.81.656-.899a.667.667 0 0 1 .547 0c.2.09.352.36.656.899l.947 1.68c.088.157.132.235.192.297.054.055.116.1.185.134.077.038.165.055.341.091l1.89.381c.608.123.911.184 1.058.346.129.142.19.331.17.52-.024.218-.234.446-.653.902l-1.305 1.42c-.122.132-.183.198-.223.275a.668.668 0 0 0-.07.216c-.012.086-.002.175.018.353l.222 1.916c.07.615.106.923-.002 1.113a.667.667 0 0 1-.443.322c-.214.044-.496-.085-1.059-.342l-1.754-.803c-.163-.075-.245-.112-.33-.127a.665.665 0 0 0-.227 0c-.085.015-.167.052-.33.127l-1.754.803c-.563.257-.845.386-1.059.342a.667.667 0 0 1-.443-.322c-.108-.19-.073-.498-.002-1.113l.222-1.916c.02-.178.03-.267.018-.353a.667.667 0 0 0-.07-.216c-.04-.077-.101-.143-.223-.275l-1.305-1.42c-.419-.456-.629-.684-.652-.901-.021-.19.04-.38.169-.52.147-.163.45-.224 1.057-.347l1.891-.381c.176-.036.264-.053.342-.091a.667.667 0 0 0 .184-.134c.06-.062.104-.14.192-.297l.947-1.68z" fill="#FFB200" stroke="#FFB200" stroke-linecap="round" stroke-linejoin="round"/>
</svg>
