<svg width="20" height="20" viewBox="0 0 20 20" fill="none" xmlns="http://www.w3.org/2000/svg">
    <g clip-path="url(#clip0_2772_2212)">
        <path d="M12 8.90952C11.9046 8.69516 11.7831 8.48633 11.6414 8.28995C11.5518 8.1392 11.439 8.00229 11.2973 7.87643L11.2712 7.85431C11.157 7.73813 11.0327 7.62888 10.9011 7.52654C9.59392 6.33164 9.19629 5.47419 8.80154 4.0096C8.74804 3.81045 8.72201 3.53662 8.69454 3.24619C8.62513 2.5063 8.54561 1.66821 7.9224 1.2381C7.57971 1.00299 7.14447 0.940756 6.63116 1.05693C4.64297 1.50363 4.61694 4.18386 4.83239 5.10908C4.88878 5.35248 4.93939 5.571 4.98711 5.77706C5.05507 6.07302 5.11724 6.34547 5.18809 6.64004H1.97229C0.939872 6.64004 0.099771 7.40207 0.099771 8.33697C0.099771 8.76154 0.27184 9.15016 0.558139 9.44751C0.214002 9.75591 0 10.1833 0 10.6562C0 11.1292 0.214002 11.5566 0.558139 11.8636C0.268948 12.1623 0.0939872 12.5523 0.0939872 12.9797C0.0939872 13.472 0.32534 13.9159 0.695505 14.2257C0.429449 14.5189 0.268948 14.8937 0.268948 15.3031C0.268948 16.2394 1.10905 17 2.14146 17H8.25641C9.91493 17 11.384 16.1107 12 14.7333V8.90952Z" fill="#FFBB80"/>
        <path d="M15.4416 16.9981H11.7569C11.4488 16.9981 11.1992 16.7289 11.1992 16.3966V7.20111C11.1992 6.86878 11.4488 6.59961 11.7569 6.59961H15.4416C15.7497 6.59961 15.9992 6.86878 15.9992 7.20111V16.3981C15.9992 16.7304 15.7497 16.9996 15.4416 16.9996V16.9981Z" fill="#FF6600"/>
        <circle cx="13.5998" cy="14.5988" r="0.8" fill="#F9F9F9"/>
    </g>
    <defs>
        <clipPath id="clip0_2772_2212">
            <rect width="16" height="16" fill="white" transform="translate(0 1)"/>
        </clipPath>
    </defs>
</svg>