<svg width="20" height="20" viewBox="0 0 20 20" fill="none" xmlns="http://www.w3.org/2000/svg">
    <circle cx="10" cy="10" r="10" fill="#FF6600"/>
    <circle cx="10" cy="10" r="9" stroke="white" stroke-opacity="0.6" stroke-width="0.5" stroke-linecap="round" stroke-dasharray="0.5 1.5"/>
    <path d="M5 8.25001C5 7.93526 5.14819 7.63887 5.4 7.45001L9.7 4.225C9.87778 4.09167 10.1222 4.09167 10.3 4.225L14.6 7.45001C14.8518 7.63887 15 7.93526 15 8.25001V10.0625C15 12.2372 13.2371 14 11.0625 14H8.93751C6.76288 14 5 12.2372 5 10.0625V8.25001Z" fill="white"/>
    <rect x="5" y="8.61328" width="10" height="5.38464" rx="1" fill="white"/>
    <path d="M9.8267 5.19395L6.08207 7.85683C5.90748 7.98098 5.91554 8.24285 6.09744 8.35603L9.84207 10.6861C9.9391 10.7464 10.062 10.7464 10.1591 10.6861L13.9037 8.35603C14.0856 8.24285 14.0936 7.98098 13.919 7.85683L10.1744 5.19395C10.0703 5.11993 9.93079 5.11993 9.8267 5.19395Z" fill="#FF6600"/>
</svg>
