<svg width="18" height="18" viewBox="0 0 18 18" fill="none" xmlns="http://www.w3.org/2000/svg">
    <path d="M8.84375 17.9062C13.6762 17.9062 17.5938 13.9887 17.5938 9.15625C17.5938 4.32376 13.6762 0.40625 8.84375 0.40625C4.01126 0.40625 0.09375 4.32376 0.09375 9.15625C0.09375 13.9887 4.01126 17.9062 8.84375 17.9062Z" fill="#F64F7D"/>
    <path d="M8.84373 15.9469C12.5941 15.9469 15.6343 12.9066 15.6343 9.15629C15.6343 5.40593 12.5941 2.36566 8.84373 2.36566C5.09337 2.36566 2.0531 5.40593 2.0531 9.15629C2.0531 12.9066 5.09337 15.9469 8.84373 15.9469Z" fill="#E0E5EB"/>
    <path d="M8.84373 14.0563C11.5499 14.0563 13.7437 11.8625 13.7437 9.15629C13.7437 6.45009 11.5499 4.25629 8.84373 4.25629C6.13753 4.25629 3.94373 6.45009 3.94373 9.15629C3.94373 11.8625 6.13753 14.0563 8.84373 14.0563Z" fill="#F64F7D"/>
    <path d="M8.8437 12.0969C10.4678 12.0969 11.7843 10.7803 11.7843 9.15626C11.7843 7.5322 10.4678 6.21564 8.8437 6.21564C7.21964 6.21564 5.90308 7.5322 5.90308 9.15626C5.90308 10.7803 7.21964 12.0969 8.8437 12.0969Z" fill="#E0E5EB"/>
    <path d="M8.8438 10.325C9.48928 10.325 10.0125 9.80178 10.0125 9.1563C10.0125 8.51082 9.48928 7.98755 8.8438 7.98755C8.19832 7.98755 7.67505 8.51082 7.67505 9.1563C7.67505 9.80178 8.19832 10.325 8.8438 10.325Z" fill="#F64F7D"/>
    <path fill-rule="evenodd" clip-rule="evenodd" d="M15.2844 2.27502V0.400024C15.2844 0.317144 15.3174 0.237659 15.376 0.179054C15.4346 0.120448 15.5141 0.0875244 15.5969 0.0875244C15.6798 0.0875244 15.7593 0.120448 15.8179 0.179054C15.8765 0.237659 15.9094 0.317144 15.9094 0.400024V1.65002L16.1594 1.40002V0.406274C16.1594 0.323394 16.1924 0.243909 16.251 0.185304C16.3096 0.126698 16.3891 0.0937744 16.4719 0.0937744C16.5548 0.0937744 16.6343 0.126698 16.6929 0.185304C16.7515 0.243909 16.7844 0.323394 16.7844 0.406274V1.21877H17.5938C17.6767 1.21877 17.7562 1.2517 17.8148 1.3103C17.8734 1.36891 17.9063 1.44839 17.9063 1.53127C17.9063 1.61415 17.8734 1.69364 17.8148 1.75225C17.7562 1.81085 17.6767 1.84377 17.5938 1.84377H16.6001L16.3532 2.09065H17.6032C17.6861 2.09065 17.7655 2.12357 17.8242 2.18218C17.8828 2.24078 17.9157 2.32027 17.9157 2.40315C17.9157 2.48603 17.8828 2.56552 17.8242 2.62412C17.7655 2.68273 17.6861 2.71565 17.6032 2.71565H15.7282L9.06568 9.37815C9.00684 9.43699 8.92703 9.47005 8.84381 9.47005C8.76059 9.47005 8.68078 9.43699 8.62193 9.37815C8.56309 9.3193 8.53003 9.23949 8.53003 9.15627C8.53003 9.07306 8.56309 8.99325 8.62193 8.9344L15.2844 2.27502Z" fill="#F8E157"/>
</svg>