<svg width="20" height="20" viewBox="0 0 20 20" fill="none" xmlns="http://www.w3.org/2000/svg">
    <path d="M2 17.3067L2.48 13.68C2.48 13.5733 2.53333 13.4667 2.64 13.36L11.44 4.56L13.52 2.48C13.84 2.16 14.2667 2 14.6933 2C14.9067 2 15.12 2.05333 15.3333 2.10667C15.44 2.16 15.4933 2.21333 15.6 2.26667H15.6533C15.7067 2.32 15.8133 2.42667 15.92 2.48L16.72 3.33333L17.52 4.13333C18.16 4.77333 18.16 5.84 17.52 6.53333L15.44 8.56L6.64 17.36C6.53333 17.4667 6.42667 17.52 6.32 17.52L2.58667 18H2.53333C2.37333 18 2.26667 17.9467 2.16 17.84C2.05333 17.7333 2 17.6267 2 17.4667C2 17.4133 2 17.36 2 17.3067Z" fill="#FFC10A"/>
    <path d="M11.4933 4.50667L13.52 2.48C13.84 2.16 14.2667 2 14.6933 2C15.12 2 15.5467 2.16 15.92 2.48L16.72 3.33333L17.52 4.13333C18.16 4.77333 18.16 5.84 17.52 6.53333L15.44 8.56C15.6533 8.34667 15.6533 8.02667 15.44 7.81333L15.0667 7.44L13.84 6.21333L12.24 4.61333C12.1333 4.50667 12.0267 4.45333 11.8667 4.45333H11.8133C11.76 4.45333 11.7067 4.45333 11.6533 4.50667C11.5467 4.45333 11.4933 4.50667 11.4933 4.50667C11.44 4.56 11.44 4.56 11.4933 4.50667Z" fill="#F44236"/>
</svg>
