<svg width="40" height="41" viewBox="0 0 40 41" fill="none" xmlns="http://www.w3.org/2000/svg">
    <rect y="0.833984" width="40" height="40" rx="20" fill="black" fill-opacity="0.45"/>
    <path d="M28.6751 21.4414C28.9193 21.2322 29.0413 21.1276 29.0861 21.0031C29.1253 20.8938 29.1253 20.7743 29.0861 20.665C29.0413 20.5405 28.9193 20.4359 28.6751 20.2266L21.2044 12.966C20.7842 12.6058 20.5741 12.4257 20.3962 12.4213C20.2416 12.4175 20.0939 12.4854 19.9962 12.6053C19.8838 12.7432 19.8838 13.0199 19.8838 13.5734V17.8687C17.7491 18.2421 14.7954 19.3238 13.3435 20.9479C11.7606 22.7185 10.885 25.01 10.8838 27.385V27.997C11.9331 26.7329 13.2433 25.7105 14.7245 25C16.0305 24.3735 18.4422 24.0024 19.8838 23.9046V28.0947C19.8838 28.6481 19.8838 28.9249 19.9962 29.0628C20.0939 29.1827 20.2416 29.2506 20.3962 29.2468C20.5741 29.2424 20.7842 29.0623 21.2044 28.7021L28.6751 21.4414Z" stroke="white" stroke-width="1.5" stroke-linecap="round" stroke-linejoin="round"/>
</svg>
