<svg width="34" height="34" viewBox="0 0 34 34" fill="none" xmlns="http://www.w3.org/2000/svg">
    <path d="M20.3775 28.3574H11.0427C10.6745 28.3574 10.376 28.6559 10.376 29.0242V30.3577C10.376 30.726 10.6745 31.0245 11.0427 31.0245H20.3775C20.7458 31.0245 21.0443 30.726 21.0443 30.3577V29.0242C21.0443 28.6559 20.7458 28.3574 20.3775 28.3574Z" fill="#8896E0"/>
    <path d="M15.7093 33.023C16.814 33.023 17.7096 32.7245 17.7096 32.3562C17.7096 31.988 16.814 31.6895 15.7093 31.6895C14.6046 31.6895 13.709 31.988 13.709 32.3562C13.709 32.7245 14.6046 33.023 15.7093 33.023Z" fill="#4D66D2"/>
    <path d="M27.0076 11.4243C27.1896 13.6222 26.7263 15.8254 25.6745 17.7638C24.6226 19.7021 23.0279 21.2914 21.086 22.3367C20.668 22.5648 20.3195 22.9017 20.0773 23.3117C19.8352 23.7217 19.7084 24.1895 19.7104 24.6657V25.0231H11.7092V24.6664C11.7128 24.1921 11.5879 23.7258 11.3478 23.3168C11.1078 22.9078 10.7615 22.5714 10.3457 22.3433C8.61497 21.4133 7.15572 20.0494 6.11106 18.3855C5.06639 16.7215 4.47218 14.8145 4.38671 12.8516C4.30124 10.8887 4.72745 8.93732 5.62353 7.18882C6.51961 5.44032 7.85479 3.95475 9.4981 2.87784C11.1414 1.80093 13.0364 1.16966 14.9973 1.04594C16.9581 0.922215 18.9175 1.3103 20.6831 2.17212C22.4487 3.03394 23.9601 4.3399 25.0688 5.96191C26.1775 7.58391 26.8456 9.46626 27.0076 11.4243Z" fill="#FFE02F"/>
    <path d="M21.0839 22.3359C20.6665 22.5639 20.3184 22.9006 20.0766 23.3102C19.8348 23.7198 19.7083 24.1872 19.7104 24.6629V25.023H15.4697C15.4904 24.5983 15.6052 24.1836 15.8058 23.8088C16.0065 23.434 16.288 23.1085 16.6299 22.856C19.8151 20.7323 22.9155 18.0359 23.653 14.0859C24.1726 10.6275 23.385 7.09955 21.444 4.19041C20.9652 3.3736 20.3127 2.67208 19.5326 2.13558C18.7525 1.59909 17.864 1.24074 16.93 1.08594C19.3355 1.34619 21.5946 2.36936 23.3769 4.00578C25.1592 5.6422 26.3711 7.80598 26.8352 10.1806C27.2994 12.5552 26.9916 15.0161 25.9568 17.2032C24.9219 19.3903 23.2144 21.1889 21.0839 22.3359Z" fill="#FBC700"/>
    <path d="M20.3775 25.0215H11.0427C10.6745 25.0215 10.376 25.32 10.376 25.6883V27.0218C10.376 27.39 10.6745 27.6886 11.0427 27.6886H20.3775C20.7458 27.6886 21.0443 27.39 21.0443 27.0218V25.6883C21.0443 25.32 20.7458 25.0215 20.3775 25.0215Z" fill="#BCC3ED"/>
    <path d="M11.709 31.0234H19.7102L18.7674 31.9663C18.5174 32.2164 18.1782 32.3569 17.8246 32.357H13.5946C13.241 32.3569 12.9018 32.2164 12.6518 31.9663L11.709 31.0234Z" fill="#DDDFE1"/>
    <path d="M19.7102 27.6914H11.709V28.3582H19.7102V27.6914Z" fill="white"/>
    <path d="M9.25781 9.36328H13.8906V10.332H12.1562V15.0195H10.9922V10.332H9.25781V9.36328ZM15.7891 15.0195H14.6172V9.36328H15.7891V15.0195ZM16.7422 9.36328H18.9609C19.3828 9.36328 19.7461 9.44401 20.0508 9.60547C20.3555 9.76432 20.5872 9.98828 20.7461 10.2773C20.9049 10.5638 20.9844 10.8945 20.9844 11.2695C20.9844 11.6471 20.9023 11.9805 20.7383 12.2695C20.5768 12.556 20.3411 12.7786 20.0312 12.9375C19.724 13.0964 19.3568 13.1758 18.9297 13.1758H17.9141V15.0195H16.7422V9.36328ZM18.7422 12.2305C19.0807 12.2305 19.3372 12.1445 19.5117 11.9727C19.6862 11.7982 19.7734 11.5638 19.7734 11.2695C19.7734 10.9779 19.6862 10.7474 19.5117 10.5781C19.3372 10.4089 19.0807 10.3242 18.7422 10.3242H17.9141V12.2305H18.7422Z" fill="#202020"/>
</svg>
