<svg width="73" height="72" viewBox="0 0 73 72" fill="none" xmlns="http://www.w3.org/2000/svg">
    <rect x="0.5" width="72" height="72" rx="36" fill="white"/>
    <path d="M51.6875 30.3125V45.625C51.6875 46.7853 51.1795 47.8981 50.2753 48.7186C49.3711 49.5391 48.1448 50 46.8661 50H22.7589C21.4802 50 20.2539 49.5391 19.3497 48.7186C18.4455 47.8981 17.9375 46.7853 17.9375 45.625V30.3125" fill="#F2F2F2"/>
    <path d="M26.9732 23.9464C25.8366 23.9464 24.7465 23.4949 23.9428 22.6913C23.139 21.8876 22.6875 20.7976 22.6875 19.6611C22.6875 18.5245 23.139 17.4346 23.9428 16.6309C24.7465 15.8272 25.8366 15.3757 26.9732 15.3757C28.627 15.3469 30.2475 16.1493 31.6236 17.6781C32.9997 19.2069 34.0674 21.3913 34.6875 23.9464C35.3076 21.3913 36.3753 19.2069 37.7514 17.6781C39.1275 16.1493 40.748 15.3469 42.4018 15.3757C43.5384 15.3757 44.6285 15.8272 45.4322 16.6309C46.236 17.4346 46.6875 18.5245 46.6875 19.6611C46.6875 20.7976 46.236 21.8876 45.4322 22.6913C44.6285 23.4949 43.5384 23.9464 42.4018 23.9464" stroke="#DFDFDF" stroke-width="3" stroke-linecap="round" stroke-linejoin="round"/>
    <rect x="16.0625" y="21.875" width="37.5" height="7.5" rx="2" fill="#F2F2F2"/>
    <path d="M34.8125 23.75V48.125" stroke="white" stroke-width="3" stroke-linecap="square" stroke-linejoin="round"/>
    <circle cx="50.9375" cy="46.25" r="10" fill="#D9D9D9"/>
    <circle cx="45.9375" cy="46.3473" r="1.5" fill="white"/>
    <circle cx="50.9375" cy="46.3473" r="1.5" fill="white"/>
    <circle cx="55.9375" cy="46.3473" r="1.5" fill="white"/>
</svg>
