<svg width="70" height="62" viewBox="0 0 70 62" fill="none" xmlns="http://www.w3.org/2000/svg">
    <path fill-rule="evenodd" clip-rule="evenodd" d="M60.4502 25.1416V48.5982L34.9928 61.9991L9.53516 48.5982V25.1416L34.9928 11.7368L60.4502 25.1416Z" fill="#B97735"/>
    <path fill-rule="evenodd" clip-rule="evenodd" d="M34.9928 11.7368V61.9991L9.53516 48.5982V25.1416L34.9928 11.7368Z" fill="url(#paint0_linear_2695_23405)"/>
    <path fill-rule="evenodd" clip-rule="evenodd" d="M34.9928 11.7368V61.9991L9.53516 48.5982V25.1416L34.9928 11.7368Z" fill="#9A5B1C"/>
    <path fill-rule="evenodd" clip-rule="evenodd" d="M69.9994 13.4121L60.4496 25.1386L34.9922 11.7374L44.5383 0.00732422L69.9994 13.4121Z" fill="url(#paint1_linear_2695_23405)"/>
    <path fill-rule="evenodd" clip-rule="evenodd" d="M69.9994 13.4121L60.4496 25.1386L34.9922 11.7374L44.5383 0.00732422L69.9994 13.4121Z" fill="#DCAB74"/>
    <path fill-rule="evenodd" clip-rule="evenodd" d="M0 13.4048L9.54972 25.1312L35.0072 11.7301L25.461 0L0 13.4048Z" fill="url(#paint2_linear_2695_23405)"/>
    <path fill-rule="evenodd" clip-rule="evenodd" d="M0 13.4048L9.54972 25.1312L35.0072 11.7301L25.461 0L0 13.4048Z" fill="#DCAB74"/>
    <path fill-rule="evenodd" clip-rule="evenodd" d="M60.4496 48.5952L34.9922 62V38.5435L60.4496 25.1387V48.5952Z" fill="#9B5F1F"/>
    <path fill-rule="evenodd" clip-rule="evenodd" d="M9.53125 48.5952L34.9924 62V38.5435L9.53125 25.1387V48.5952Z" fill="url(#paint3_linear_2695_23405)"/>
    <path fill-rule="evenodd" clip-rule="evenodd" d="M9.53125 48.5952L34.9924 62V38.5435L9.53125 25.1387V48.5952Z" fill="#C58341"/>
    <path fill-rule="evenodd" clip-rule="evenodd" d="M60.4496 25.1387L69.9994 33.5157L44.5383 46.9205L34.9922 38.5435L60.4496 25.1387Z" fill="url(#paint4_linear_2695_23405)"/>
    <path fill-rule="evenodd" clip-rule="evenodd" d="M60.4496 25.1387L69.9994 33.5157L44.5383 46.9205L34.9922 38.5435L60.4496 25.1387Z" fill="#DCAB74"/>
    <path fill-rule="evenodd" clip-rule="evenodd" d="M9.54972 25.1313L0 33.5084L25.461 46.9132L35.0072 38.5362L9.54972 25.1313Z" fill="url(#paint5_linear_2695_23405)"/>
    <path fill-rule="evenodd" clip-rule="evenodd" d="M9.54972 25.1313L0 33.5084L25.461 46.9132L35.0072 38.5362L9.54972 25.1313Z" fill="#DCAB74"/>
    <defs>
        <linearGradient id="paint0_linear_2695_23405" x1="38.7153" y1="45.7601" x2="16.4739" y2="23.4639" gradientUnits="userSpaceOnUse">
            <stop stop-color="#9B5F1F"/>
            <stop offset="1" stop-color="#824C1B"/>
        </linearGradient>
        <linearGradient id="paint1_linear_2695_23405" x1="59.1912" y1="22.7699" x2="68.9859" y2="-1.11621" gradientUnits="userSpaceOnUse">
            <stop stop-color="#EEC089"/>
            <stop offset="1" stop-color="#C18B54"/>
        </linearGradient>
        <linearGradient id="paint2_linear_2695_23405" x1="24.6842" y1="28.6208" x2="13.9811" y2="8.52318" gradientUnits="userSpaceOnUse">
            <stop stop-color="#EEC089"/>
            <stop offset="1" stop-color="#C18B54"/>
        </linearGradient>
        <linearGradient id="paint3_linear_2695_23405" x1="12.6584" y1="53.0032" x2="16.4457" y2="30.8464" gradientUnits="userSpaceOnUse">
            <stop stop-color="#C6803A"/>
            <stop offset="1" stop-color="#A4601D"/>
        </linearGradient>
        <linearGradient id="paint4_linear_2695_23405" x1="29.3069" y1="36.1122" x2="37.1578" y2="53.2088" gradientUnits="userSpaceOnUse">
            <stop stop-color="#EEC089"/>
            <stop offset="1" stop-color="#C18B54"/>
        </linearGradient>
        <linearGradient id="paint5_linear_2695_23405" x1="38.8366" y1="36.7236" x2="29.1775" y2="62.9946" gradientUnits="userSpaceOnUse">
            <stop stop-color="#EEC089"/>
            <stop offset="1" stop-color="#C18B54"/>
        </linearGradient>
    </defs>
</svg>
