<svg width="91" height="25" viewBox="0 0 91 25" fill="none" xmlns="http://www.w3.org/2000/svg">
    <path d="M10.5559 1.125H0.5V24.2627H10.5559V1.125Z" fill="#040000"/>
    <path d="M24.5147 24.2627H14.4588V1.125H24.5147V5.33018C24.1589 5.54505 23.6619 5.74763 23.0238 5.93794C22.3857 6.12825 21.6986 6.28786 20.9685 6.42905C20.2383 6.56411 19.5082 6.67461 18.7658 6.75442C18.0235 6.83423 17.3792 6.87106 16.8271 6.87106V7.69982C17.3792 7.69982 18.0173 7.66912 18.7352 7.61387C19.453 7.55248 20.177 7.4604 20.9071 7.33148C21.6372 7.20256 22.3182 7.04295 22.9625 6.85878C23.6005 6.67461 24.122 6.44747 24.5147 6.19577V24.275V24.2627Z" fill="#040000"/>
    <path d="M42.3182 13.6408H39.0358V24.2611H28.9799V13.6408H27.943V6.18192H29.1885C29.5627 4.14993 30.4033 2.60905 31.7163 1.56543C33.0292 0.521811 34.8637 0 37.232 0C37.5878 0 38.0112 0.0245558 38.502 0.0736674C38.9928 0.122779 39.4898 0.190308 39.9806 0.263975C40.4715 0.343781 40.9316 0.435866 41.355 0.546367C41.7783 0.656868 42.0973 0.779647 42.3182 0.914704V6.83265C41.3304 6.83265 40.3794 6.77126 39.4653 6.65462C38.5511 6.53798 37.6676 6.37837 36.8209 6.18192V7.04138C37.5878 7.21941 38.4468 7.36674 39.3916 7.48338C40.3365 7.60002 41.312 7.66141 42.3182 7.66141V13.6408Z" fill="#040000"/>
    <path d="M44.8285 15.3014C44.8285 13.8219 45.074 12.4775 45.5648 11.2804C46.0556 10.0772 46.7735 9.0581 47.706 8.21707C48.6448 7.38217 49.7921 6.73144 51.1541 6.27716C52.5162 5.82288 54.0746 5.59573 55.8293 5.59573C58.1178 5.59573 59.9952 5.84743 61.4616 6.35083C62.928 6.85422 64.0814 7.64001 64.9097 8.70204V17.8429C62.9586 17.8429 61.0444 17.7693 59.1731 17.6219C57.3018 17.4746 55.4366 17.2106 53.5837 16.8362V17.8736C54.4304 18.0885 55.3262 18.2604 56.2772 18.3893C57.222 18.5182 58.1853 18.6165 59.1608 18.684C60.1363 18.7515 61.1119 18.8006 62.0874 18.8313C63.0629 18.862 64.0016 18.8743 64.9097 18.8743V22.0665C63.5906 23.1102 62.1058 23.8161 60.4554 24.1845C58.8111 24.5528 56.9337 24.7308 54.8231 24.7308C53.3261 24.7308 51.9579 24.516 50.7308 24.0924C49.4976 23.6688 48.4484 23.0488 47.5833 22.2446C46.7182 21.4342 46.0372 20.452 45.5587 19.2856C45.074 18.1253 44.8347 16.7932 44.8347 15.2891M53.5837 11.4523V12.3117C53.958 12.41 54.3875 12.4959 54.8722 12.5634C55.3569 12.631 55.8477 12.6985 56.3508 12.7538C56.8539 12.8151 57.3386 12.8581 57.8172 12.8888C58.2896 12.9195 58.7129 12.9318 59.0872 12.9318V12.103C58.7129 12.103 58.2957 12.0907 57.8294 12.0601C57.3632 12.0294 56.8907 11.9864 56.4122 11.925C55.9275 11.8636 55.4428 11.7961 54.9458 11.7163C54.455 11.6365 54.001 11.5505 53.5837 11.4523Z" fill="#040000"/>
    <path d="M90.494 18.6978L87.003 11.3863L84.2237 12.7799C84.0273 12.4852 83.8494 12.2581 83.6899 12.0984C84.2789 11.4661 84.7206 10.7908 85.0029 10.0726C85.2912 9.35434 85.4323 8.61766 85.4323 7.86871C85.4323 6.7637 85.2176 5.76919 84.782 4.87904C84.3464 3.98889 83.7451 3.2338 82.9782 2.61377C82.2113 1.99373 81.2971 1.51489 80.2418 1.17725C79.1865 0.83961 78.0515 0.673859 76.8244 0.673859C75.72 0.673859 74.6831 0.858027 73.7076 1.22023C72.7321 1.58856 71.8854 2.07968 71.1614 2.69971C70.4436 3.31975 69.873 4.05028 69.4619 4.89132C69.0508 5.73235 68.8422 6.6225 68.8422 7.5679C68.8422 8.5133 69.0263 9.41573 69.4067 10.2015C69.781 10.9934 70.235 11.6319 70.7687 12.123C70.2779 12.4791 69.8546 12.8965 69.4987 13.3815C69.1429 13.8665 68.8545 14.3699 68.6275 14.9039C68.4005 15.438 68.2348 15.9721 68.1244 16.5001C68.014 17.0342 67.9649 17.5253 67.9649 17.9796C67.9649 19.0232 68.1735 19.9747 68.5846 20.8219C68.9956 21.6691 69.5478 22.3873 70.2411 22.9828C70.9283 23.5721 71.7136 24.0264 72.591 24.3457C73.4683 24.6587 74.3702 24.8184 75.2967 24.8184C75.7077 24.8184 76.1556 24.7815 76.6281 24.7017C77.1005 24.6219 77.5668 24.5175 78.0208 24.3886C78.4748 24.2597 78.8859 24.1185 79.2601 23.9589C79.6344 23.7993 79.9228 23.6335 80.1191 23.4555L80.6529 24.2229H89.8498L87.5122 20.2264L90.5002 18.6855L90.494 18.6978ZM75.4501 4.08098C75.5482 3.70036 75.6893 3.33202 76.082 3.06191C76.4317 2.82249 76.898 2.92071 77.0575 3.2645C77.1373 3.44253 77.1557 3.62056 77.1496 3.80472C77.1312 4.1792 76.9778 4.57823 76.7324 4.89746C76.6771 4.97112 76.6096 5.03865 76.5299 5.10004C76.1372 5.38243 75.628 5.27193 75.4746 4.86062C75.3764 4.59665 75.3826 4.33881 75.4501 4.07484M74.996 6.32783C75.3089 6.48745 75.6648 6.6225 76.0636 6.73914C76.4563 6.85578 76.8551 6.95401 77.26 7.03381C77.6649 7.11362 78.0453 7.17501 78.395 7.21184C78.7509 7.25481 79.0577 7.27323 79.3092 7.27323V8.16338C78.6773 8.1818 77.9226 8.11427 77.0453 7.95465C76.1679 7.79504 75.3028 7.51879 74.4561 7.1259L74.9899 6.32783H74.996ZM79.9044 18.5198C79.5853 18.5198 79.1804 18.4952 78.6773 18.4461C78.1742 18.397 77.6404 18.3172 77.0821 18.2067C76.5176 18.0962 75.9593 17.9611 75.3948 17.7893C74.8304 17.6235 74.3273 17.4209 73.8733 17.1815L74.407 16.3834C74.7813 16.5615 75.2292 16.7272 75.7507 16.8868C76.2722 17.0464 76.7998 17.1815 77.3336 17.2859C77.8674 17.3964 78.3705 17.4762 78.8429 17.5376C79.3154 17.5989 79.6712 17.6296 79.9105 17.6296V18.5198H79.9044ZM79.6099 5.59116C79.5546 5.66483 79.4871 5.73235 79.4074 5.79374C79.0086 6.07614 78.5055 5.96563 78.3521 5.56046C78.2539 5.29649 78.2601 5.03865 78.3276 4.77468C78.4257 4.39406 78.5668 4.02573 78.9595 3.75561C79.3092 3.51619 79.7755 3.61442 79.935 3.9582C80.0148 4.13623 80.0332 4.31426 80.0271 4.49843C80.0087 4.8729 79.8553 5.27193 79.6099 5.59116Z" fill="#F37321"/>
</svg>
