<svg width="40" height="40" viewBox="0 0 40 40" fill="none" xmlns="http://www.w3.org/2000/svg">
    <circle cx="20" cy="20" r="20" fill="#F6E7DD"/>
    <mask id="mask0_4319_8355" style="mask-type:alpha" maskUnits="userSpaceOnUse" x="0" y="0" width="40" height="40">
        <circle cx="20" cy="20" r="20" fill="#F6E7DD"/>
    </mask>
    <g mask="url(#mask0_4319_8355)">
        <rect width="40" height="40" rx="20" fill="#9D8778"/>
        <ellipse cx="19.9951" cy="14.3426" rx="8.41318" ry="8.41326" fill="#6B4435"/>
        <path fill-rule="evenodd" clip-rule="evenodd" d="M20.0093 25.9844C22.6775 25.9844 24.987 23.2589 26.1024 20.3329C26.8186 20.305 27.5884 19.8168 28.0655 19.0085C28.7343 17.8757 28.5751 16.5433 27.71 16.0326C27.0693 15.6543 26.2212 15.8327 25.5526 16.4108C23.8808 15.8469 18.2755 12.9614 17.6274 10.6931C17.2872 13.4153 13.8845 16.1374 13.8845 16.1374L13.785 16.237C13.2067 16.0003 12.599 16.0186 12.1357 16.3458C11.3099 16.9291 11.2557 18.273 12.0146 19.3475C12.5309 20.0784 13.2904 20.4964 13.9833 20.5053C15.1225 23.3651 17.3936 25.9844 20.0093 25.9844Z" fill="#F9DFD4"/>
        <path d="M44 47.7706C44 60.0475 33.2548 70 20 70C6.74517 70 -4 60.0475 -4 47.7706C-4 37.0407 4.20763 28.0864 15.125 26C15.125 26 18.3297 31.0563 20 31.0563C21.6703 31.0563 24.875 26 24.875 26C35.7924 28.0864 44 37.0407 44 47.7706Z" fill="#D3C1B7"/>
        <mask id="mask1_4319_8355" style="mask-type:alpha" maskUnits="userSpaceOnUse" x="15" y="26" width="10" height="16">
            <path d="M20 42C16.9232 42 15 26 15 26H25C25 26 23.0768 42 20 42Z" fill="#D9D9D9"/>
        </mask>
        <g mask="url(#mask1_4319_8355)">
            <path d="M44 47.7706C44 60.0475 33.2548 70 20 70C6.74517 70 -4 60.0475 -4 47.7706C-4 37.0407 4.20763 28.0864 15.125 26C15.125 26 18.3297 29.0563 20 29.0563C21.6703 29.0563 24.875 26 24.875 26C35.7924 28.0864 44 37.0407 44 47.7706Z" fill="white"/>
        </g>
    </g>
</svg>
