<svg width="80" height="80" viewBox="0 0 80 80" fill="none" xmlns="http://www.w3.org/2000/svg">
    <rect width="80" height="80" rx="40" fill="#FFF4ED"/>
    <g filter="url(#filter0_f_2796_7291)">
        <path fill-rule="evenodd" clip-rule="evenodd" d="M36.3608 57.7249C47.3535 57.7249 56.2649 48.7057 56.2649 37.5799C56.2649 26.4541 47.3535 17.4348 36.3608 17.4348C25.368 17.4348 16.4567 26.4541 16.4567 37.5799C16.4567 41.7718 17.7217 45.6646 19.8864 48.8887C20.0946 49.1988 20.1264 49.5972 19.9569 49.93L17.6151 54.5272C17.2653 55.214 17.7913 56.0218 18.561 55.9796L26.9895 55.5173C27.1687 55.5075 27.347 55.5466 27.5072 55.6273C30.1739 56.9699 33.1802 57.7249 36.3608 57.7249Z" fill="black" fill-opacity="0.12"/>
        <path fill-rule="evenodd" clip-rule="evenodd" d="M53.2327 66.98C46.1808 66.98 40.4641 61.1941 40.4641 54.0568C40.4641 46.9195 46.1808 41.1335 53.2327 41.1335C60.2847 41.1335 66.0014 46.9195 66.0014 54.0568C66.0014 56.6675 65.2365 59.0974 63.9212 61.1295C63.7182 61.443 63.6854 61.8408 63.8549 62.1736L64.9754 64.3733C65.3253 65.0602 64.7993 65.8679 64.0296 65.8257L59.3436 65.5687C59.1644 65.5589 58.9863 65.5983 58.8254 65.6777C57.1364 66.5119 55.2386 66.98 53.2327 66.98Z" fill="black" fill-opacity="0.12"/>
        <path d="M46.4739 57.4417C46.4739 57.4417 47.8822 59.0405 50.2294 59.0405C52.5765 59.0405 53.9849 57.4417 53.9849 57.4417M53.1801 52.1123H53.1908M47.2786 52.1123H47.2894M53.7166 52.1123C53.7166 52.4066 53.4764 52.6452 53.1801 52.6452C52.8838 52.6452 52.6436 52.4066 52.6436 52.1123C52.6436 51.818 52.8838 51.5793 53.1801 51.5793C53.4764 51.5793 53.7166 51.818 53.7166 52.1123ZM47.8151 52.1123C47.8151 52.4066 47.5749 52.6452 47.2786 52.6452C46.9823 52.6452 46.7421 52.4066 46.7421 52.1123C46.7421 51.818 46.9823 51.5793 47.2786 51.5793C47.5749 51.5793 47.8151 51.818 47.8151 52.1123Z" stroke="black" stroke-width="2" stroke-linecap="round" stroke-linejoin="round"/>
        <path d="M27.934 39.55L35.7138 46.2874C36.0756 46.6154 36.6486 46.6154 37.0104 46.2874L44.7902 39.55C46.8106 37.7911 47.082 34.8099 45.3933 32.7231C43.7047 30.6363 40.6289 30.2487 38.488 31.8585L36.3772 33.4684L34.2362 31.8884C32.0651 30.2785 29.0195 30.6661 27.3309 32.7529C25.6423 34.8099 25.9136 37.8209 27.934 39.55Z" fill="white"/>
    </g>
    <path fill-rule="evenodd" clip-rule="evenodd" d="M33.9027 53.3102C44.8954 53.3102 53.8068 44.2909 53.8068 33.1651C53.8068 22.0393 44.8954 13.02 33.9027 13.02C22.91 13.02 13.9986 22.0393 13.9986 33.1651C13.9986 37.357 15.2636 41.2498 17.4284 44.4739C17.6366 44.784 17.6684 45.1824 17.4988 45.5152L15.1571 50.1124C14.8072 50.7993 15.3332 51.607 16.1029 51.5648L24.5315 51.1025C24.7106 51.0927 24.8889 51.1318 25.0492 51.2125C27.7158 52.5551 30.7221 53.3102 33.9027 53.3102Z" fill="#3F7FE0"/>
    <path fill-rule="evenodd" clip-rule="evenodd" d="M50.7708 62.5652C43.7188 62.5652 38.0021 56.7793 38.0021 49.642C38.0021 42.5047 43.7188 36.7188 50.7708 36.7188C57.8227 36.7188 63.5394 42.5047 63.5394 49.642C63.5394 52.2527 62.7745 54.6826 61.4592 56.7147C61.2562 57.0282 61.2234 57.426 61.393 57.7588L62.5135 59.9585C62.8633 60.6454 62.3373 61.4531 61.5676 61.4109L56.8817 61.1539C56.7025 61.1441 56.5243 61.1835 56.3634 61.2629C54.6744 62.0971 52.7766 62.5652 50.7708 62.5652Z" fill="#FFD933"/>
    <path d="M44.0149 53.0269C44.0149 53.0269 45.4232 54.6257 47.7704 54.6257C50.1176 54.6257 51.5259 53.0269 51.5259 53.0269M50.7211 47.6975H50.7319M44.8196 47.6975H44.8304M51.2576 47.6975C51.2576 47.9918 51.0174 48.2304 50.7211 48.2304C50.4248 48.2304 50.1846 47.9918 50.1846 47.6975C50.1846 47.4032 50.4248 47.1646 50.7211 47.1646C51.0174 47.1646 51.2576 47.4032 51.2576 47.6975ZM45.3561 47.6975C45.3561 47.9918 45.1159 48.2304 44.8196 48.2304C44.5233 48.2304 44.2831 47.9918 44.2831 47.6975C44.2831 47.4032 44.5233 47.1646 44.8196 47.1646C45.1159 47.1646 45.3561 47.4032 45.3561 47.6975Z" stroke="black" stroke-width="2" stroke-linecap="round" stroke-linejoin="round"/>
    <path d="M25.475 35.1342L33.2548 41.8717C33.6167 42.1996 34.1896 42.1996 34.5514 41.8717L42.3313 35.1342C44.3516 33.3753 44.623 30.3941 42.9343 28.3073C41.2457 26.2205 38.17 25.8329 36.029 27.4428L33.9182 29.0526L31.7772 27.4726C29.6061 25.8628 26.5606 26.2503 24.8719 28.3371C23.1833 30.3941 23.4547 33.4051 25.475 35.1342Z" fill="white"/>
    <defs>
        <filter id="filter0_f_2796_7291" x="10.4567" y="11.4348" width="61.5447" height="61.5452" filterUnits="userSpaceOnUse" color-interpolation-filters="sRGB">
            <feFlood flood-opacity="0" result="BackgroundImageFix"/>
            <feBlend mode="normal" in="SourceGraphic" in2="BackgroundImageFix" result="shape"/>
            <feGaussianBlur stdDeviation="3" result="effect1_foregroundBlur_2796_7291"/>
        </filter>
    </defs>
</svg>
