<svg width="80" height="80" viewBox="0 0 80 80" fill="none" xmlns="http://www.w3.org/2000/svg">
    <rect width="80" height="80" rx="40" fill="#FFF4ED"/>
    <path d="M21.159 47.6331C11.6537 47.6329 11.0956 69.9962 33.4597 61.61C48.0941 56.1224 49.1036 46.5149 60.2875 52.6648C66.927 56.3157 63.1189 55.09 60.2868 57.1374" stroke="#C2C2C2" stroke-width="1.47378" stroke-dasharray="0.74 2.95"/>
    <ellipse cx="9.35127" cy="9.35127" rx="9.35127" ry="9.35127" transform="matrix(1 0 0 -1 36.2618 37.2854)" fill="#00B6B7"/>
    <path d="M42.336 29.5086C42.336 31.3315 43.8137 32.8092 45.6366 32.8092C46.5469 32.8092 47.371 32.4408 47.9681 31.8449C49.1264 30.9316 49.0074 29.2431 48.8031 28.513L48.0468 26.9086C47.143 25.1962 45.7761 23.012 45.6366 23.012C45.4441 23.012 42.911 27.1767 42.4888 28.513C42.3895 28.8272 42.336 29.1616 42.336 29.5086Z" fill="white"/>
    <path d="M44.9072 31.2982C44.285 30.9984 43.8139 30.4186 43.6446 29.7151" stroke="#00B6B7" stroke-width="2" stroke-linecap="round"/>
    <circle cx="4.25058" cy="4.25058" r="4.25058" transform="matrix(1 0 0 -1 19.2812 25.7305)" fill="#FFDEC7"/>
    <ellipse cx="32.2308" cy="42.4537" rx="13.6019" ry="13.6019" fill="#3F7FE0"/>
    <path d="M31.5891 36.6057C30.8869 35.8728 30.6565 34.8661 30.6291 34.4544L32.0279 33.9963C32.0325 34.6672 32.7987 36.1282 35.8267 36.6057C39.6118 37.2025 41.844 43.1662 37.1707 47.2928C33.7285 50.3324 30.3789 48.4459 29.2988 47.2928C28.2977 46.2241 26.1254 45.8189 25.8292 49.0278L24.2383 48.9445C24.2521 44.6696 26.0486 45.086 27.4886 44.6558C28.9286 44.2255 30.4645 43.7536 31.0542 40.5613C31.1328 40.1358 31.2491 39.7712 31.3922 39.4596C31.4773 39.2664 31.7236 38.8027 32.0279 38.4933C32.1742 38.1694 32.2912 37.3385 31.5891 36.6057Z" fill="white"/>
    <ellipse cx="6.37587" cy="6.37587" rx="6.37587" ry="6.37587" transform="matrix(1 0 0 -1 24.4492 26.1445)" fill="#FFBE16"/>
    <path d="M32.1588 20.7562C32.1296 20.8232 32.0953 20.8834 32.0585 20.9401C32.0064 21.0191 31.9479 21.0878 31.8806 21.1411C31.8565 21.1617 31.8298 21.1789 31.8044 21.1961C31.7079 21.2579 31.6012 21.3026 31.4907 21.3404C31.3509 21.3885 31.2036 21.4315 31.0588 21.4916C30.9114 21.5552 30.778 21.6308 30.6396 21.7012C30.3652 21.8421 30.0921 21.9693 29.8088 22.0054C29.6666 22.026 29.5281 22.0208 29.3795 22.0105C29.2334 22.0019 29.0873 21.9899 28.9425 21.9727C28.6542 21.9366 28.3658 21.8731 28.1054 21.727C28.0724 21.7081 28.0406 21.6892 28.0102 21.6686L27.9873 21.6531L27.9746 21.6445C27.9746 21.6445 27.9657 21.6377 27.9606 21.6359L27.9543 21.6325C27.939 21.6239 27.9225 21.6153 27.9073 21.605C27.8438 21.5655 27.7828 21.5191 27.7256 21.4693C27.6685 21.4177 27.6138 21.361 27.5719 21.2975C27.5503 21.2665 27.5338 21.2322 27.5224 21.2012C27.5173 21.1858 27.5148 21.1737 27.5109 21.1531C27.5071 21.1308 27.5046 21.1136 27.5046 21.0964C27.4944 20.9607 27.5986 20.8301 27.7116 20.715C27.7688 20.6565 27.8298 20.5998 27.8895 20.5363C27.92 20.5036 27.9479 20.4727 27.9809 20.4315C28.0102 20.3902 28.0356 20.3524 28.0597 20.3146C28.2553 20.0019 28.4204 19.672 28.5945 19.3507C28.7672 19.0294 28.9425 18.7132 29.1343 18.4177C29.3261 18.1239 29.5345 17.8489 29.7707 17.6324C29.8558 17.5534 29.9448 17.4847 30.0375 17.4263C30.1505 17.3661 30.2763 17.3266 30.402 17.2991C30.543 17.2699 30.6879 17.2527 30.8238 17.263C31.0994 17.2939 31.3662 17.4503 31.5859 17.6857C32.0267 18.1599 32.3138 18.9074 32.343 19.6686C32.357 20.0483 32.2985 20.4349 32.1588 20.7579V20.7562ZM34.9584 19.3266C34.9356 19.4057 34.8911 19.4813 34.839 19.5483C34.7336 19.684 34.6002 19.7923 34.463 19.8851C34.3246 19.9778 34.1785 20.0552 34.0324 20.1153C33.8902 20.1772 33.7365 20.1909 33.5777 20.2081C33.4189 20.2253 33.2576 20.2356 33.0924 20.2837C32.8473 20.3748 32.6097 20.4813 32.3824 20.6325C32.4776 20.3232 32.517 19.9864 32.5043 19.6548C32.4891 19.239 32.4027 18.8318 32.2617 18.4658C32.1207 18.0998 31.9276 17.7682 31.685 17.5104C31.5618 17.3781 31.4233 17.2682 31.2747 17.1874C31.3814 17.0912 31.5046 17.0311 31.6355 17.0122C31.7828 16.9881 31.9352 17.0087 32.0839 17.0517C32.3836 17.1393 32.6745 17.3094 32.9527 17.5036C33.0924 17.6015 33.2296 17.7063 33.3668 17.8146C33.5053 17.9211 33.6361 18.0397 33.7822 18.1445C34.0655 18.3489 34.35 18.5397 34.6231 18.751C34.6917 18.8043 34.759 18.8593 34.8213 18.916C34.853 18.9452 34.8835 18.9744 34.9089 19.0053C34.9216 19.0208 34.933 19.0362 34.9407 19.0466C34.9432 19.05 34.9521 19.074 34.9572 19.0912C34.98 19.1685 34.98 19.2459 34.9572 19.3249L34.9584 19.3266Z" fill="white"/>
    <g filter="url(#filter0_d_2796_7232)">
        <path fill-rule="evenodd" clip-rule="evenodd" d="M40.336 46.9344C40.336 41.9926 43.7828 38.5393 48.7246 38.5393C51.3646 38.5393 54.5652 40.7123 55.6695 43.1427C56.8273 40.7658 59.9603 38.6704 62.5528 38.6704C67.4945 38.6704 70.9414 42.1237 70.9414 47.0655C70.9414 49.1785 70.3821 50.6941 68.7044 52.931C67.3757 54.7026 59.7337 61.7353 56.6113 64.585C56.2809 64.8866 55.8239 64.8405 55.5411 64.5837C55.2699 64.7137 54.9282 64.6932 54.666 64.4539C51.5436 61.6042 43.9016 54.5715 42.573 52.8C40.8952 50.563 40.336 49.0475 40.336 46.9344Z" fill="url(#paint0_linear_2796_7232)"/>
    </g>
    <g filter="url(#filter1_d_2796_7232)">
        <path d="M56.0071 55.5065V48.8362M52.6719 52.1713H59.3422" stroke="white" stroke-width="3" stroke-linecap="square" stroke-linejoin="round"/>
    </g>
    <defs>
        <filter id="filter0_d_2796_7232" x="35.336" y="33.5393" width="42.6053" height="38.2549" filterUnits="userSpaceOnUse" color-interpolation-filters="sRGB">
            <feFlood flood-opacity="0" result="BackgroundImageFix"/>
            <feColorMatrix in="SourceAlpha" type="matrix" values="0 0 0 0 0 0 0 0 0 0 0 0 0 0 0 0 0 0 127 0" result="hardAlpha"/>
            <feOffset dx="1" dy="1"/>
            <feGaussianBlur stdDeviation="3"/>
            <feComposite in2="hardAlpha" operator="out"/>
            <feColorMatrix type="matrix" values="0 0 0 0 0 0 0 0 0 0 0 0 0 0 0 0 0 0 0.25 0"/>
            <feBlend mode="normal" in2="BackgroundImageFix" result="effect1_dropShadow_2796_7232"/>
            <feBlend mode="normal" in="SourceGraphic" in2="effect1_dropShadow_2796_7232" result="shape"/>
        </filter>
        <filter id="filter1_d_2796_7232" x="49.1719" y="45.3362" width="17.6703" height="17.6702" filterUnits="userSpaceOnUse" color-interpolation-filters="sRGB">
            <feFlood flood-opacity="0" result="BackgroundImageFix"/>
            <feColorMatrix in="SourceAlpha" type="matrix" values="0 0 0 0 0 0 0 0 0 0 0 0 0 0 0 0 0 0 127 0" result="hardAlpha"/>
            <feOffset dx="2" dy="2"/>
            <feGaussianBlur stdDeviation="2"/>
            <feComposite in2="hardAlpha" operator="out"/>
            <feColorMatrix type="matrix" values="0 0 0 0 0 0 0 0 0 0 0 0 0 0 0 0 0 0 0.25 0"/>
            <feBlend mode="normal" in2="BackgroundImageFix" result="effect1_dropShadow_2796_7232"/>
            <feBlend mode="normal" in="SourceGraphic" in2="effect1_dropShadow_2796_7232" result="shape"/>
        </filter>
        <linearGradient id="paint0_linear_2796_7232" x1="46.7286" y1="38.6861" x2="59.4565" y2="62.3704" gradientUnits="userSpaceOnUse">
            <stop stop-color="#FF4F4F"/>
            <stop offset="1" stop-color="#EC0405"/>
        </linearGradient>
    </defs>
</svg>
