<svg width="80" height="80" viewBox="0 0 80 80" fill="none" xmlns="http://www.w3.org/2000/svg">
    <rect width="80" height="80" rx="40" fill="#FFF4ED"/>
    <rect x="15.5937" y="44.7305" width="28.7312" height="45.4138" rx="2.8" transform="rotate(-90 15.5937 44.7305)" fill="white"/>
    <rect x="15.8937" y="44.4305" width="28.1312" height="44.8138" rx="2.5" transform="rotate(-90 15.8937 44.4305)" stroke="#FF6600" stroke-opacity="0.3" stroke-width="0.6"/>
    <rect x="20.2265" y="51.2188" width="30.5848" height="45.4138" rx="2.8" transform="rotate(-90 20.2265 51.2188)" fill="#FF6600"/>
    <rect x="20.4765" y="50.9687" width="30.0848" height="44.9138" rx="2.55" transform="rotate(-90 20.4765 50.9687)" stroke="#BABABA" stroke-opacity="0.2" stroke-width="0.5"/>
    <rect x="25.6288" y="41.9512" width="12.464" height="1.66187" rx="0.830935" fill="white" fill-opacity="0.6"/>
    <rect x="25.6288" y="38.5117" width="8.30935" height="1.66187" rx="0.830935" fill="white" fill-opacity="0.6"/>
    <rect x="25.6288" y="44.7305" width="16.6187" height="1.66187" rx="0.830935" fill="white" fill-opacity="0.6"/>
    <g clip-path="url(#clip0_2796_7570)">
        <path d="M27.8044 28.043C27.9958 27.8602 27.9182 27.4897 27.631 27.2155C27.3439 26.9412 26.9559 26.8671 26.7645 27.0499C26.5731 27.2327 26.6507 27.6032 26.9379 27.8774C27.225 28.1516 27.613 28.2257 27.8044 28.043Z" fill="white"/>
        <path d="M32.8982 32.9121C33.0896 32.7293 33.012 32.3588 32.7248 32.0846C32.4376 31.8104 32.0496 31.7363 31.8582 31.919C31.6668 32.1018 31.7445 32.4723 32.0316 32.7465C32.3188 33.0208 32.7068 33.0949 32.8982 32.9121Z" fill="white"/>
        <path d="M27.0591 29.2727C27.1292 29.023 26.8679 28.7393 26.4757 28.6389C26.0834 28.5385 25.7086 28.6595 25.6385 28.9092C25.5685 29.1589 25.8297 29.4427 26.2219 29.5431C26.6142 29.6434 26.989 29.5224 27.0591 29.2727Z" fill="white"/>
        <path d="M34.0278 31.054C34.0979 30.8043 33.8367 30.5205 33.4444 30.4201C33.0521 30.3198 32.6773 30.4408 32.6073 30.6905C32.5372 30.9402 32.7984 31.2239 33.1907 31.3243C33.583 31.4247 33.9578 31.3037 34.0278 31.054Z" fill="white"/>
        <path d="M26.4796 31.324C26.8718 31.2236 27.1331 30.9399 27.063 30.6902C26.9929 30.4405 26.6181 30.3194 26.2259 30.4198C25.8336 30.5202 25.5724 30.804 25.6424 31.0537C25.7125 31.3033 26.0873 31.4244 26.4796 31.324Z" fill="white"/>
        <path d="M33.4444 29.5428C33.8367 29.4424 34.0979 29.1586 34.0278 28.9089C33.9578 28.6592 33.583 28.5382 33.1907 28.6386C32.7984 28.7389 32.5372 29.0227 32.6073 29.2724C32.6773 29.5221 33.0521 29.6431 33.4444 29.5428Z" fill="white"/>
        <path d="M27.631 32.7474C27.9182 32.4732 27.9958 32.1027 27.8044 31.9199C27.613 31.7371 27.225 31.8113 26.9379 32.0855C26.6507 32.3597 26.5731 32.7302 26.7645 32.913C26.9559 33.0958 27.3439 33.0216 27.631 32.7474Z" fill="white"/>
        <path d="M32.7248 27.8763C33.012 27.6021 33.0896 27.2316 32.8982 27.0488C32.7068 26.866 32.3188 26.9402 32.0316 27.2144C31.7445 27.4886 31.6668 27.8591 31.8582 28.0419C32.0496 28.2247 32.4376 28.1505 32.7248 27.8763Z" fill="white"/>
        <path d="M29.3715 33.4273C29.4766 33.0527 29.3499 32.6948 29.0884 32.6279C28.8269 32.561 28.5297 32.8104 28.4246 33.185C28.3195 33.5596 28.4463 33.9175 28.7077 33.9844C28.9692 34.0513 29.2664 33.8019 29.3715 33.4273Z" fill="white"/>
        <path d="M31.2387 26.7769C31.3438 26.4023 31.217 26.0444 30.9556 25.9775C30.6941 25.9106 30.3969 26.16 30.2918 26.5346C30.1867 26.9092 30.3135 27.2671 30.5749 27.334C30.8364 27.4009 31.1336 27.1515 31.2387 26.7769Z" fill="white"/>
        <path d="M30.9556 33.9854C31.2171 33.9185 31.3438 33.5606 31.2387 33.186C31.1336 32.8114 30.8364 32.562 30.5749 32.6289C30.3135 32.6958 30.1867 33.0537 30.2918 33.4283C30.3969 33.8029 30.6941 34.0523 30.9556 33.9854Z" fill="white"/>
        <path d="M29.0884 27.3331C29.3499 27.2662 29.4766 26.9083 29.3715 26.5337C29.2664 26.1591 28.9692 25.9096 28.7077 25.9765C28.4463 26.0434 28.3195 26.4013 28.4246 26.7759C28.5297 27.1505 28.8269 27.4 29.0884 27.3331Z" fill="white"/>
        <path d="M28.0283 30.4478C28.4344 30.4478 28.7636 30.2383 28.7636 29.9798C28.7636 29.7213 28.4344 29.5117 28.0283 29.5117C27.6221 29.5117 27.2929 29.7213 27.2929 29.9798C27.2929 30.2383 27.6221 30.4478 28.0283 30.4478Z" fill="white"/>
        <path d="M31.6337 30.4478C32.0398 30.4478 32.3691 30.2383 32.3691 29.9798C32.3691 29.7213 32.0398 29.5117 31.6337 29.5117C31.2276 29.5117 30.8984 29.7213 30.8984 29.9798C30.8984 30.2383 31.2276 30.4478 31.6337 30.4478Z" fill="white"/>
        <path d="M29.3572 31.7056C29.5602 31.3698 29.5348 30.9927 29.3004 30.8635C29.0659 30.7342 28.7113 30.9017 28.5082 31.2376C28.3052 31.5734 28.3306 31.9505 28.565 32.0797C28.7995 32.209 29.1541 32.0415 29.3572 31.7056Z" fill="white"/>
        <path d="M31.1619 28.7252C31.3649 28.3893 31.3395 28.0123 31.1051 27.883C30.8706 27.7538 30.516 27.9213 30.3129 28.2571C30.1099 28.593 30.1353 28.97 30.3697 29.0993C30.6042 29.2285 30.9588 29.061 31.1619 28.7252Z" fill="white"/>
        <path d="M31.1051 32.0799C31.3395 31.9506 31.3649 31.5736 31.1619 31.2377C30.9588 30.9019 30.6041 30.7344 30.3697 30.8636C30.1353 30.9929 30.1099 31.3699 30.3129 31.7058C30.516 32.0416 30.8706 32.2091 31.1051 32.0799Z" fill="white"/>
        <path d="M29.2965 29.0994C29.5309 28.9702 29.5563 28.5931 29.3533 28.2573C29.1502 27.9214 28.7956 27.7539 28.5611 27.8832C28.3267 28.0124 28.3013 28.3895 28.5043 28.7253C28.7074 29.0612 29.062 29.2287 29.2965 29.0994Z" fill="white"/>
    </g>
    <g clip-path="url(#clip1_2796_7570)">
        <rect x="47.9179" y="24.373" width="11.6331" height="11.6331" rx="5.81655" fill="white"/>
        <path d="M49.3749 35.0379C49.3749 32.8963 51.111 31.1602 53.2526 31.1602H54.2221C56.3637 31.1602 58.0998 32.8963 58.0998 35.0379C58.0998 36.1087 57.2317 36.9767 56.1609 36.9767H51.3138C50.243 36.9767 49.3749 36.1087 49.3749 35.0379Z" fill="#FF6600"/>
        <rect x="51.9023" y="26.5547" width="3.8777" height="3.8777" rx="1.93885" fill="#FF6600"/>
    </g>
    <path d="M20.5929 47.2656C12.7142 47.2655 12.2516 65.8019 30.7886 58.8508C42.9187 54.3022 46.5446 46.3388 55.8147 51.4363C61.318 54.4625 60.9408 54.8367 58.5933 56.5338" stroke="#C2C2C2" stroke-width="1.47378" stroke-dasharray="0.74 2.95"/>
    <g filter="url(#filter0_d_2796_7570)">
        <circle cx="55.4715" cy="52.1453" r="12.9754" fill="#3F7FE0"/>
    </g>
    <path d="M58.8368 48.2949L51.1367 52.5727L58.8368 56.8505" stroke="white"/>
    <rect width="3.42224" height="3.42224" rx="1.71112" transform="matrix(1 0 0 -1 57.125 58.5625)" fill="white" stroke="white" stroke-width="1.5"/>
    <rect width="3.42224" height="3.42224" rx="1.71112" transform="matrix(1 0 0 -1 49.4258 54.2832)" fill="white" stroke="white" stroke-width="1.5"/>
    <rect width="3.42224" height="3.42224" rx="1.71112" transform="matrix(1 0 0 -1 57.125 50.0059)" fill="white" stroke="white" stroke-width="1.5"/>
    <defs>
        <filter id="filter0_d_2796_7570" x="39.4961" y="36.1699" width="33.9507" height="33.9507" filterUnits="userSpaceOnUse" color-interpolation-filters="sRGB">
            <feFlood flood-opacity="0" result="BackgroundImageFix"/>
            <feColorMatrix in="SourceAlpha" type="matrix" values="0 0 0 0 0 0 0 0 0 0 0 0 0 0 0 0 0 0 127 0" result="hardAlpha"/>
            <feOffset dx="1" dy="1"/>
            <feGaussianBlur stdDeviation="2"/>
            <feComposite in2="hardAlpha" operator="out"/>
            <feColorMatrix type="matrix" values="0 0 0 0 0 0 0 0 0 0 0 0 0 0 0 0 0 0 0.2 0"/>
            <feBlend mode="normal" in2="BackgroundImageFix" result="effect1_dropShadow_2796_7570"/>
            <feBlend mode="normal" in="SourceGraphic" in2="effect1_dropShadow_2796_7570" result="shape"/>
        </filter>
        <clipPath id="clip0_2796_7570">
            <rect width="8.40714" height="8.02822" fill="white" transform="matrix(1 0 2.6165e-06 1 25.6288 25.9668)"/>
        </clipPath>
        <clipPath id="clip1_2796_7570">
            <rect x="47.9179" y="24.373" width="11.6331" height="11.6331" rx="5.81655" fill="white"/>
        </clipPath>
    </defs>
</svg>
