<svg width="80" height="80" viewBox="0 0 80 80" fill="none" xmlns="http://www.w3.org/2000/svg">
    <rect width="80" height="80" rx="40" fill="#FFF4ED"/>
    <mask id="mask0_2796_7337" style="mask-type:alpha" maskUnits="userSpaceOnUse" x="18" y="40" width="36" height="25">
        <path d="M18.9969 55.6158L33.1127 64.1873C33.1127 64.1873 35.3262 60.1334 41.753 57.7021C48.1798 55.2709 53.4969 48.7802 53.4969 48.7802L38.5944 40.1873" fill="#FFDAC5"/>
    </mask>
    <g mask="url(#mask0_2796_7337)">
        <path d="M26.5995 55.6158L40.7154 64.1873C40.7154 64.1873 42.9288 60.1334 49.3556 57.7021C55.7825 55.2709 61.0995 48.7802 61.0995 48.7802L46.1971 40.1873" fill="#F9C8AC"/>
        <path d="M16.7161 54.0953L30.8319 62.6667C30.8319 62.6667 33.0453 58.6128 39.4722 56.1816C45.899 53.7504 51.2161 47.2597 51.2161 47.2597L36.3136 38.6667" fill="#FFDAC5"/>
    </g>
    <mask id="mask1_2796_7337" style="mask-type:alpha" maskUnits="userSpaceOnUse" x="55" y="16" width="13" height="13">
        <path d="M66.1755 17.138C67.3019 18.2644 67.3019 20.0932 66.1755 21.2263L60.0794 27.3224C58.953 28.4488 57.1175 28.4488 55.9911 27.3224L55.8652 27.1965C54.7387 26.0701 54.7387 24.2346 55.8652 23.1082L61.9612 17.0121C63.0877 15.8856 64.9231 15.8856 66.0496 17.0121L66.1755 17.138Z" fill="#FFDAC5"/>
    </mask>
    <g mask="url(#mask1_2796_7337)">
        <path d="M66.9357 16.3777C68.0622 17.5042 68.0622 19.333 66.9357 20.4661L60.8397 26.5621C59.7132 27.6886 57.8778 27.6886 56.7513 26.5621L56.6254 26.4362C55.499 25.3098 55.499 23.4743 56.6254 22.3479L62.7215 16.2518C63.8479 15.1254 65.6834 15.1254 66.8098 16.2518L66.9357 16.3777Z" fill="#FFDAC5"/>
        <path d="M62.4566 26.1583V15.8948L59.4156 15.5146V26.1583H62.4566Z" fill="#F9C8AC"/>
    </g>
    <path d="M37.1484 9.8125H58.8715C60.4338 9.8125 61.6979 10.9527 61.6979 12.3619V48.3173C61.6979 49.7265 60.4273 50.8668 58.8715 50.8668H37.1548C35.5925 50.8668 34.3284 49.7207 34.3284 48.3173V12.3619C34.3284 10.9527 35.5925 9.8125 37.1548 9.8125H37.1484Z" fill="#BABABA"/>
    <path d="M38.3556 11.333H57.6651C59.0538 11.333 60.1775 12.3888 60.1775 13.6936V46.9856C60.1775 48.2904 59.048 49.3462 57.6651 49.3462H38.3614C36.9726 49.3462 35.849 48.285 35.849 46.9856V13.6936C35.849 12.3888 36.9726 11.333 38.3614 11.333H38.3556Z" fill="white"/>
    <g clip-path="url(#clip0_2796_7337)">
        <path d="M44.7257 22.1844C45.1283 22.5885 45.2374 23.1355 44.969 23.405C44.7006 23.6744 44.1558 23.5656 43.7532 23.1607C43.3506 22.7566 43.2415 22.2096 43.5099 21.9401C43.7782 21.6707 44.3231 21.7795 44.7257 22.1844Z" fill="#F47423"/>
        <path d="M51.8781 29.368C52.2806 29.7729 52.3898 30.3191 52.1214 30.5886C51.853 30.858 51.3081 30.7492 50.9055 30.3443C50.5029 29.9401 50.3938 29.3931 50.6622 29.1237C50.9306 28.8543 51.4755 28.9631 51.8781 29.368Z" fill="#F47423"/>
        <path d="M43.1079 24.2838C43.6579 24.4318 44.0244 24.8507 43.9263 25.2186C43.8282 25.5872 43.3018 25.7656 42.7517 25.6176C42.2017 25.4695 41.8352 25.0506 41.9333 24.6827C42.0314 24.3141 42.5571 24.1357 43.1079 24.2838Z" fill="#F47423"/>
        <path d="M52.8813 26.9107C53.4314 27.0587 53.7978 27.4777 53.6997 27.8456C53.6017 28.2142 53.0752 28.3926 52.5252 28.2445C51.9751 28.0965 51.6087 27.6775 51.7067 27.3097C51.8048 26.9411 52.3305 26.7627 52.8813 26.9107Z" fill="#F47423"/>
        <path d="M42.7517 26.9107C43.3018 26.7627 43.8282 26.9411 43.9263 27.3097C44.0244 27.6783 43.6579 28.0965 43.1079 28.2445C42.5578 28.3926 42.0314 28.2142 41.9333 27.8456C41.8352 27.477 42.2017 27.0587 42.7517 26.9107Z" fill="#F47423"/>
        <path d="M52.5252 24.2838C53.0752 24.1357 53.6017 24.3141 53.6997 24.6827C53.7978 25.0513 53.4314 25.4695 52.8813 25.6176C52.3313 25.7656 51.8048 25.5872 51.7067 25.2186C51.6087 24.85 51.9751 24.4318 52.5252 24.2838Z" fill="#F47423"/>
        <path d="M43.7534 29.3678C44.156 28.9636 44.7008 28.8541 44.9692 29.1235C45.2376 29.393 45.1292 29.94 44.7259 30.3441C44.3233 30.7482 43.7784 30.8578 43.51 30.5884C43.2417 30.3189 43.35 29.7719 43.7534 29.3678Z" fill="#F47423"/>
        <path d="M50.9057 22.1842C51.3083 21.7801 51.8532 21.6705 52.1216 21.9399C52.39 22.2094 52.2816 22.7564 51.8783 23.1605C51.4757 23.5654 50.9308 23.6742 50.6624 23.4048C50.394 23.1353 50.5024 22.5883 50.9057 22.1842Z" fill="#F47423"/>
        <path d="M45.8404 30.9892C45.9878 30.437 46.4052 30.0691 46.7716 30.1675C47.1388 30.266 47.3165 30.7945 47.1691 31.3467C47.0216 31.8989 46.6043 32.2667 46.2378 32.1683C45.8706 32.0698 45.6929 31.5421 45.8404 30.9892Z" fill="#F47423"/>
        <path d="M48.4615 21.1806C48.6089 20.6284 49.0263 20.2605 49.3927 20.359C49.7599 20.4574 49.9376 20.9859 49.7901 21.5381C49.6427 22.0903 49.2253 22.4581 48.8589 22.3597C48.4917 22.2612 48.314 21.7327 48.4615 21.1806Z" fill="#F47423"/>
        <path d="M48.4615 31.3467C48.314 30.7945 48.4917 30.266 48.8589 30.1675C49.2261 30.0691 49.6427 30.437 49.7901 30.9892C49.9376 31.5413 49.7599 32.0698 49.3927 32.1683C49.0255 32.2667 48.6089 31.8989 48.4615 31.3467Z" fill="#F47423"/>
        <path d="M45.8404 21.5381C45.6929 20.9859 45.8706 20.4574 46.2378 20.359C46.605 20.2605 47.0216 20.6284 47.1691 21.1806C47.3165 21.7335 47.1388 22.2612 46.7716 22.3597C46.4044 22.4581 45.9878 22.0903 45.8404 21.5381Z" fill="#F47423"/>
        <path d="M45.2888 25.5735C45.8588 25.5735 46.3203 25.8829 46.3203 26.2641C46.3203 26.6453 45.8588 26.9547 45.2888 26.9547C44.7188 26.9547 44.2573 26.6453 44.2573 26.2641C44.2573 25.8829 44.7188 25.5735 45.2888 25.5735Z" fill="#F47423"/>
        <path d="M50.3435 25.5735C50.9134 25.5735 51.375 25.8829 51.375 26.2641C51.375 26.6453 50.9134 26.9547 50.3435 26.9547C49.7735 26.9547 49.312 26.6453 49.312 26.2641C49.312 25.8829 49.7735 25.5735 50.3435 25.5735Z" fill="#F47423"/>
        <path d="M45.9545 28.1192C46.2391 27.624 46.7368 27.3767 47.0656 27.5677C47.3945 27.7587 47.4306 28.3146 47.1453 28.8098C46.8606 29.3049 46.3629 29.5522 46.0334 29.3612C45.7045 29.1702 45.6684 28.6143 45.9537 28.1192" fill="#F47423"/>
        <path d="M48.4857 23.7207C48.7703 23.2255 49.268 22.9783 49.5969 23.1693C49.9257 23.3602 49.9618 23.9161 49.6765 24.4113C49.3919 24.9065 48.8942 25.1537 48.5646 24.9628C48.2358 24.7718 48.1996 24.2159 48.485 23.7207" fill="#F47423"/>
        <path d="M48.4847 28.8078C48.2001 28.3126 48.2355 27.756 48.5643 27.5658C48.8932 27.3748 49.3909 27.622 49.6762 28.1172C49.9608 28.6124 49.9254 29.169 49.5966 29.3592C49.2677 29.5502 48.77 29.303 48.4854 28.8078" fill="#F47423"/>
        <path d="M45.9573 24.4113C45.6727 23.9161 45.7081 23.3595 46.037 23.1693C46.3658 22.9783 46.8635 23.2255 47.1489 23.7207C47.4335 24.2159 47.3981 24.7725 47.0692 24.9628C46.7404 25.1537 46.2427 24.9065 45.9581 24.4113" fill="#F47423"/>
        <path d="M54.1118 41.6548H41.5262C40.8036 41.6548 40.2182 41.0671 40.2182 40.3417C40.2182 39.6163 40.8036 39.0286 41.5262 39.0286H54.1118C54.8344 39.0286 55.4198 39.6163 55.4198 40.3417C55.4198 41.0671 54.8344 41.6548 54.1118 41.6548Z" fill="#737374"/>
        <path d="M41.4176 37.529C41.2318 37.529 41.0644 37.5017 40.9155 37.4469C40.7666 37.3921 40.6397 37.3136 40.535 37.2115C40.4303 37.1094 40.3507 36.985 40.2961 36.8384C40.2416 36.6919 40.2143 36.5268 40.2143 36.3433C40.2143 36.1597 40.2416 35.9946 40.2961 35.8481C40.3507 35.7015 40.4303 35.5772 40.535 35.475C40.6397 35.3729 40.7666 35.2944 40.9155 35.2396C41.0644 35.1849 41.2318 35.1575 41.4176 35.1575C41.6034 35.1575 41.7715 35.1849 41.922 35.2396C42.0724 35.2944 42.1992 35.3729 42.3024 35.475C42.4056 35.5772 42.4853 35.7015 42.5413 35.8481C42.5974 35.9946 42.6254 36.1597 42.6254 36.3433C42.6254 36.7163 42.5192 37.0072 42.3068 37.2159C42.0945 37.4247 41.7981 37.529 41.4176 37.529ZM41.4176 37.0183C41.6211 37.0183 41.7752 36.9606 41.8799 36.8451C41.9846 36.7296 42.037 36.5624 42.037 36.3433C42.037 36.1242 41.9846 35.9576 41.8799 35.8436C41.7752 35.7296 41.6211 35.6726 41.4176 35.6726C41.0077 35.6726 40.8027 35.8962 40.8027 36.3433C40.8027 36.5653 40.8543 36.7333 40.9575 36.8473C41.0608 36.9613 41.2141 37.0183 41.4176 37.0183Z" fill="#737374"/>
        <path d="M43.1166 37.4547V35.2341H43.5104L43.6121 35.5628C43.6918 35.4503 43.7832 35.3585 43.8864 35.2874C43.9896 35.2164 44.1076 35.1734 44.2403 35.1586C44.2875 35.1527 44.3413 35.152 44.4018 35.1564C44.4623 35.1609 44.5117 35.169 44.55 35.1808V35.7671C44.5323 35.7552 44.505 35.7464 44.4682 35.7404C44.4313 35.7345 44.393 35.7308 44.3531 35.7293C44.3133 35.7278 44.275 35.7278 44.2381 35.7293C44.2013 35.7308 44.1725 35.7345 44.1519 35.7404C44.0162 35.776 43.9041 35.8529 43.8156 35.9714C43.7272 36.0898 43.6829 36.2334 43.6829 36.4022V37.4547H43.1166Z" fill="#737374"/>
        <path d="M47.0832 35.2108V37.4535H46.7337L46.6231 37.1915C46.5287 37.2892 46.4115 37.3699 46.2714 37.4336C46.1313 37.4972 45.9816 37.529 45.8224 37.529C45.6543 37.529 45.5009 37.5002 45.3623 37.4424C45.2237 37.3847 45.1057 37.304 45.0083 37.2004C44.911 37.0968 44.8351 36.9717 44.7805 36.8251C44.726 36.6786 44.6987 36.5179 44.6987 36.3433C44.6987 36.1686 44.7252 36.0087 44.7783 35.8636C44.8314 35.7185 44.9059 35.5934 45.0017 35.4883C45.0976 35.3832 45.2126 35.3018 45.3468 35.2441C45.481 35.1863 45.6292 35.1575 45.7914 35.1575C45.8415 35.1575 45.8976 35.1634 45.9595 35.1752C46.0214 35.1871 46.0826 35.2041 46.1431 35.2263C46.2036 35.2485 46.2611 35.2759 46.3156 35.3085C46.3702 35.341 46.4152 35.3795 46.4506 35.4239H46.486V35.2108H47.0832ZM45.8622 37.0183C46.0745 37.0183 46.2353 36.9598 46.3444 36.8429C46.4535 36.7259 46.5081 36.5609 46.5081 36.3477C46.5081 36.1345 46.4528 35.968 46.3422 35.8481C46.2316 35.7282 46.0716 35.6682 45.8622 35.6682C45.6764 35.6682 45.5319 35.7282 45.4286 35.8481C45.3254 35.968 45.2738 36.1345 45.2738 36.3477C45.2738 36.5609 45.3254 36.7259 45.4286 36.8429C45.5319 36.9598 45.6764 37.0183 45.8622 37.0183Z" fill="#737374"/>
        <path d="M48.8794 35.1536C49.018 35.1536 49.147 35.1765 49.2665 35.2224C49.3859 35.2683 49.4891 35.3334 49.5761 35.4178C49.6631 35.5022 49.731 35.6029 49.7796 35.7198C49.8283 35.8368 49.8526 35.9678 49.8526 36.1129V37.4541H49.2864V36.2683C49.2864 36.0551 49.2407 35.8989 49.1492 35.7998C49.0578 35.7006 48.9369 35.651 48.7865 35.651C48.636 35.651 48.5159 35.7028 48.4171 35.8064C48.3182 35.91 48.2688 36.0655 48.2688 36.2727V37.4541H47.7026V35.2335H48.0565L48.1671 35.5044C48.2526 35.3712 48.3536 35.2794 48.4701 35.2291C48.5866 35.1787 48.723 35.1536 48.8794 35.1536Z" fill="#737374"/>
        <path d="M52.6895 35.233V37.3692C52.6895 37.535 52.66 37.6837 52.601 37.8155C52.542 37.9473 52.4616 38.0575 52.3599 38.1464C52.2581 38.2352 52.1387 38.3033 52.0015 38.3507C51.8644 38.398 51.7162 38.4202 51.5569 38.4173C51.4802 38.4173 51.394 38.4128 51.2981 38.4039C51.2023 38.3951 51.1005 38.3758 50.9929 38.3462C50.8852 38.3166 50.7754 38.2744 50.6633 38.2196C50.5512 38.1649 50.4421 38.0901 50.3359 37.9954L50.6633 37.5912C50.7518 37.6623 50.8395 37.7185 50.9265 37.76C51.0135 37.8014 51.0954 37.8333 51.172 37.8555C51.2487 37.8777 51.3188 37.8925 51.3822 37.8999C51.4456 37.9073 51.4979 37.911 51.5392 37.911C51.6336 37.911 51.7184 37.8977 51.7936 37.871C51.8688 37.8444 51.933 37.8022 51.9861 37.7444C52.0391 37.6867 52.0804 37.6127 52.1099 37.5224C52.1394 37.4321 52.1542 37.3203 52.1542 37.1871C52.1158 37.2344 52.0701 37.2766 52.017 37.3136C51.9639 37.3507 51.9079 37.3817 51.8489 37.4069C51.7899 37.4321 51.7302 37.4513 51.6697 37.4646C51.6093 37.478 51.5525 37.4846 51.4994 37.4846C51.3225 37.4846 51.1617 37.4587 51.0172 37.4069C50.8727 37.3551 50.7495 37.2803 50.6478 37.1826C50.546 37.0849 50.4679 36.9658 50.4133 36.8251C50.3588 36.6845 50.3315 36.5239 50.3315 36.3433C50.3315 36.1627 50.3595 35.9991 50.4155 35.8525C50.4716 35.706 50.5505 35.5816 50.6522 35.4795C50.754 35.3773 50.8764 35.2981 51.0194 35.2419C51.1625 35.1856 51.3225 35.1575 51.4994 35.1575C51.6439 35.1575 51.7774 35.1908 51.8998 35.2574C52.0222 35.324 52.1306 35.4017 52.225 35.4906L52.3356 35.233H52.6895ZM51.5215 36.965C51.7073 36.965 51.8519 36.911 51.9551 36.8029C52.0583 36.6948 52.1099 36.5372 52.1099 36.3299C52.1099 36.1227 52.0554 35.9561 51.9462 35.8481C51.8371 35.74 51.6941 35.686 51.5171 35.686C51.3077 35.686 51.1543 35.7444 51.057 35.8614C50.9597 35.9783 50.911 36.1345 50.911 36.3299C50.911 36.5253 50.9612 36.6837 51.0614 36.7963C51.1617 36.9088 51.3151 36.965 51.5215 36.965Z" fill="#737374"/>
        <path d="M54.3499 37.0501C54.4945 37.0472 54.6279 37.0228 54.7503 36.9769C54.8727 36.931 54.9811 36.8503 55.0755 36.7348L55.4117 37.0857C55.2613 37.247 55.0969 37.361 54.9184 37.4284C54.74 37.4957 54.5579 37.529 54.3721 37.529C54.1863 37.529 54.0204 37.5017 53.8744 37.4469C53.7284 37.3921 53.6045 37.3144 53.5027 37.2137C53.401 37.1131 53.3236 36.9917 53.2705 36.8495C53.2174 36.7074 53.1909 36.549 53.1909 36.3743C53.1909 36.1997 53.2167 36.0331 53.2683 35.8836C53.3199 35.7341 53.3944 35.6053 53.4917 35.4972C53.589 35.3892 53.7077 35.3055 53.8478 35.2463C53.9879 35.1871 54.1464 35.1575 54.3234 35.1575C54.4856 35.1575 54.6338 35.1826 54.768 35.233C54.9022 35.2833 55.018 35.3566 55.1153 35.4528C55.2126 35.549 55.2878 35.666 55.3409 35.8037C55.394 35.9413 55.4206 36.0975 55.4206 36.2722C55.4206 36.3136 55.4191 36.3551 55.4161 36.3966C55.4132 36.438 55.4088 36.4795 55.4029 36.5209H53.7616C53.7675 36.5971 53.7874 36.6682 53.8213 36.7348C53.8552 36.8007 53.8994 36.8577 53.954 36.9043C54.0086 36.951 54.0698 36.9872 54.1376 37.0124C54.2054 37.0376 54.2762 37.0501 54.3499 37.0501ZM54.319 35.6379C54.1568 35.6379 54.027 35.6808 53.9297 35.7659C53.8323 35.851 53.7763 35.9732 53.7616 36.1308H54.872C54.8631 35.9783 54.8108 35.8577 54.7149 35.7696C54.6191 35.6815 54.4871 35.6379 54.319 35.6379Z" fill="#737374"/>
        <path d="M45.4025 40.2159H45.2322V40.8673H45.0147V40.2159H44.851V40.0383H45.0147V39.7415H45.2322V40.0383H45.4025V40.2159Z" fill="white"/>
        <path d="M46.3013 40.8969C46.2313 40.8969 46.1678 40.8865 46.1118 40.8658C46.0558 40.845 46.0078 40.8154 45.968 40.7769C45.9282 40.7385 45.898 40.6911 45.8781 40.6363C45.8574 40.5808 45.8471 40.5186 45.8471 40.449C45.8471 40.3795 45.8574 40.3173 45.8781 40.2618C45.8987 40.2063 45.929 40.1596 45.968 40.1211C46.0078 40.0826 46.0558 40.053 46.1118 40.0323C46.1678 40.0116 46.2313 40.0012 46.3013 40.0012C46.3714 40.0012 46.4348 40.0116 46.4915 40.0323C46.5483 40.053 46.5962 40.0826 46.6353 40.1211C46.6744 40.1596 46.7046 40.207 46.7253 40.2618C46.7467 40.3173 46.757 40.3795 46.757 40.449C46.757 40.5897 46.7172 40.7 46.6368 40.7784C46.5564 40.8576 46.4443 40.8969 46.3006 40.8969M46.3006 40.7037C46.3772 40.7037 46.4355 40.6815 46.4753 40.6385C46.5151 40.5949 46.5343 40.5319 46.5343 40.449C46.5343 40.3661 46.5144 40.3032 46.4753 40.2603C46.4355 40.2174 46.378 40.1959 46.3006 40.1959C46.1457 40.1959 46.0683 40.2803 46.0683 40.449C46.0683 40.5327 46.0875 40.5963 46.1266 40.6393C46.1656 40.6822 46.2239 40.7037 46.3006 40.7037Z" fill="white"/>
        <path d="M47.6269 40.8961C47.5745 40.8961 47.5259 40.8887 47.4809 40.8731C47.4359 40.8583 47.3968 40.8354 47.3644 40.8058C47.332 40.7762 47.3069 40.7399 47.2885 40.6977C47.27 40.6548 47.2612 40.6067 47.2612 40.5519V40.0286H47.475V40.4919C47.475 40.5726 47.492 40.6289 47.5259 40.6614C47.5598 40.694 47.6055 40.7103 47.6623 40.7103C47.6903 40.7103 47.7168 40.7051 47.7426 40.6955C47.7685 40.6851 47.7913 40.6703 47.8112 40.6511C47.8311 40.6318 47.8473 40.6067 47.8591 40.577C47.8709 40.5474 47.8768 40.5127 47.8768 40.4742V40.0293H48.0907V40.8679H47.9535L47.913 40.7621C47.8938 40.791 47.8732 40.8146 47.8503 40.8324C47.8274 40.8502 47.8038 40.8642 47.7803 40.8739C47.7567 40.8835 47.7316 40.8894 47.705 40.8924C47.6785 40.8953 47.6527 40.8968 47.6276 40.8968" fill="white"/>
        <path d="M49.0549 40.693C49.1028 40.693 49.1412 40.6864 49.1707 40.6723C49.2002 40.6582 49.2252 40.639 49.2451 40.6146L49.3919 40.7522C49.3528 40.7989 49.3041 40.8351 49.2459 40.8603C49.1876 40.8855 49.1227 40.8981 49.0527 40.8981C48.9827 40.8981 48.9251 40.887 48.8706 40.8662C48.816 40.8448 48.7688 40.8152 48.7305 40.7767C48.6914 40.7382 48.6612 40.6908 48.6405 40.636C48.6191 40.5805 48.6088 40.5191 48.6088 40.451C48.6088 40.3829 48.6191 40.3207 48.6405 40.2652C48.6619 40.2097 48.6921 40.1631 48.7305 40.1246C48.7696 40.0861 48.816 40.0557 48.8706 40.035C48.9251 40.0135 48.9856 40.0032 49.0527 40.0032C49.1227 40.0032 49.1869 40.0158 49.2459 40.0409C49.3041 40.0661 49.3528 40.1024 49.3919 40.149L49.2481 40.2852C49.226 40.2585 49.2002 40.2371 49.1714 40.2223C49.1427 40.2067 49.1028 40.1993 49.0527 40.1993C49.0136 40.1993 48.9797 40.2052 48.9517 40.2178C48.9237 40.2304 48.9001 40.2474 48.8816 40.2696C48.8632 40.2918 48.8492 40.3185 48.8396 40.3488C48.83 40.3792 48.8256 40.4118 48.8256 40.448C48.8256 40.4813 48.83 40.5132 48.8389 40.5435C48.8477 40.5739 48.8617 40.5998 48.8794 40.6227C48.8979 40.6449 48.9215 40.6627 48.9502 40.6753C48.979 40.6878 49.0136 40.6945 49.0542 40.6945" fill="white"/>
        <path d="M50.3465 40.0015C50.3988 40.0015 50.4482 40.0104 50.4932 40.0274C50.5389 40.0444 50.5787 40.0696 50.6119 40.1014C50.6451 40.1332 50.6716 40.171 50.6916 40.2154C50.7107 40.2598 50.721 40.3094 50.721 40.3642V40.869H50.5072V40.4145C50.5072 40.3338 50.4881 40.2753 50.4504 40.2383C50.4128 40.2013 50.3649 40.1828 50.3081 40.1828C50.2801 40.1828 50.2543 40.1873 50.2292 40.1969C50.2042 40.2065 50.1835 40.2206 50.1651 40.2398C50.1467 40.2591 50.1319 40.2828 50.1209 40.3124C50.1098 40.3412 50.1039 40.3753 50.1039 40.4145V40.869H49.8901V39.6047H50.1039V40.1066C50.1363 40.077 50.1739 40.0518 50.2175 40.0318C50.261 40.0118 50.3037 40.0022 50.3465 40.0022" fill="white"/>
    </g>
    <rect x="43.7486" y="10.7874" width="9" height="1.5" rx="0.75" fill="#BABABA"/>
    <path d="M63.7152 27.8882C64.3156 28.9107 63.9388 30.2101 62.8734 30.7863L59.877 32.4133C58.8116 32.9896 57.4576 32.628 56.8572 31.6055L56.7866 31.4925C56.1861 30.4699 56.5629 29.1706 57.6283 28.5887L60.6247 26.9617C61.6901 26.3854 63.0441 26.747 63.6445 27.7695L63.7152 27.8825V27.8882Z" fill="#FFDAC5"/>
    <path d="M63.714 32.387C64.3143 33.4086 63.9435 34.7068 62.8723 35.2881L59.8765 36.9136C58.8112 37.4893 57.4575 37.128 56.8571 36.1065L56.7865 35.988C56.1862 34.9664 56.5628 33.6682 57.6282 33.0869L60.624 31.4614C61.6893 30.8857 63.043 31.247 63.6492 32.2685L63.7198 32.3814L63.714 32.387Z" fill="#FFDAC5"/>
    <path d="M63.7711 36.5879C64.2514 37.3539 63.9547 38.3273 63.0978 38.7632L60.7011 39.9821C59.8489 40.4138 58.7659 40.1429 58.2856 39.3769L58.2291 39.288C57.7489 38.522 58.0502 37.5486 58.9025 37.1127L61.2991 35.8938C62.1514 35.4621 63.2343 35.7287 63.7146 36.499L63.7711 36.5879Z" fill="#FFDAC5"/>
    <path d="M19.0014 55.1873C19.0014 55.1873 22.7372 50.2896 24.1017 46.2083C25.4662 42.1269 26.7276 35.8856 27.4857 33.3803C27.8738 32.0993 30.8333 27.6915 32.6406 23.968C33.6594 21.8646 34.9511 18.6685 36.5825 19.2588C39.1599 20.2006 38.8567 24.7529 37.3406 27.5722C35.8244 30.3977 35.8244 33.5372 36.1277 35.8856C36.4309 38.2402 38.5535 41.0658 37.6438 44.356C36.7341 47.6524 35.3696 52.0415 33.7019 53.2973" fill="#FFDAC5"/>
    <mask id="mask2_2796_7337" style="mask-type:alpha" maskUnits="userSpaceOnUse" x="14" y="50" width="22" height="20">
        <path d="M15.0292 57.4805L20.4014 50.4728C20.7877 49.9689 21.5259 49.8873 22.0518 50.2905L35.4711 60.5781C35.9971 60.9813 36.1084 61.7174 35.7237 62.2193L30.3531 69.2248C29.9667 69.7288 29.2263 69.8086 28.7026 69.4071L15.2833 59.1196C14.7573 58.7164 14.6444 57.9824 15.0308 57.4784L15.0292 57.4805Z" fill="#3F7FE0"/>
    </mask>
    <g mask="url(#mask2_2796_7337)">
        <path d="M15.0292 57.4805L20.4014 50.4728C20.7877 49.9689 21.5259 49.8873 22.0518 50.2905L35.4711 60.5781C35.9971 60.9813 36.1084 61.7174 35.7237 62.2193L30.3531 69.2248C29.9667 69.7288 29.2263 69.8086 28.7026 69.4071L15.2833 59.1196C14.7573 58.7164 14.6444 57.9824 15.0308 57.4784L15.0292 57.4805Z" fill="#736DCE"/>
        <path d="M16.0848 63.0311C27.0218 67.2948 33.9131 62.5508 35.9003 58.5198L39.6276 64.1691L38.5593 77.0493L25.5534 77.4964L16.0848 63.0311Z" fill="#655BB9"/>
    </g>
    <circle cx="59" cy="47" r="6" fill="white"/>
    <g filter="url(#filter0_f_2796_7337)">
        <ellipse cx="4.5" cy="0.75" rx="4.5" ry="0.75" transform="matrix(1 0 0 -1 55 64)" fill="black" fill-opacity="0.3"/>
    </g>
    <path fill-rule="evenodd" clip-rule="evenodd" d="M69.798 50.9744C69.3926 52.9991 68.3923 54.8588 66.9235 56.3184L60.2051 62.9989C59.815 63.3867 59.185 63.3867 58.7949 62.9989L52.0765 56.3184C50.6077 54.8588 49.6074 52.9991 49.202 50.9744C48.7966 48.9498 49.0043 46.851 49.799 44.9437C50.5936 43.0364 51.9394 41.4062 53.6662 40.2592C55.393 39.1122 57.4232 38.5 59.5 38.5C61.5768 38.5 63.607 39.1122 65.3338 40.2592C67.0606 41.4062 68.4064 43.0364 69.201 44.9437C69.9957 46.851 70.2034 48.9498 69.798 50.9744ZM59.5707 51.9595C61.3475 51.9595 62.7879 50.524 62.7879 48.7532C62.7879 46.9825 61.3475 45.547 59.5707 45.547C57.7939 45.547 56.3535 46.9825 56.3535 48.7532C56.3535 50.524 57.7939 51.9595 59.5707 51.9595Z" fill="#FF6600"/>
    <defs>
        <filter id="filter0_f_2796_7337" x="53" y="60.5" width="13" height="5.5" filterUnits="userSpaceOnUse" color-interpolation-filters="sRGB">
            <feFlood flood-opacity="0" result="BackgroundImageFix"/>
            <feBlend mode="normal" in="SourceGraphic" in2="BackgroundImageFix" result="shape"/>
            <feGaussianBlur stdDeviation="1" result="effect1_foregroundBlur_2796_7337"/>
        </filter>
        <clipPath id="clip0_2796_7337">
            <rect width="15.2053" height="21.3123" fill="white" transform="translate(40.2143 20.343)"/>
        </clipPath>
    </defs>
</svg>
