<svg width="80" height="80" viewBox="0 0 80 80" fill="none" xmlns="http://www.w3.org/2000/svg">
    <rect width="80" height="80" rx="40" fill="#FFF4ED"/>
    <g clip-path="url(#clip0_2796_7149)">
        <path d="M47.9011 31.0247H45.8518C45.0415 31.0247 44.3819 31.6842 44.3819 32.4946C44.3819 33.3049 45.0415 33.9644 45.8518 33.9644H47.9011C48.7114 33.9644 49.371 33.3049 49.371 32.4946C49.371 31.6842 48.7114 31.0247 47.9011 31.0247ZM40.7355 31.0247H38.6862C37.8759 31.0247 37.2163 31.6842 37.2163 32.4946C37.2163 33.3049 37.8759 33.9644 38.6862 33.9644H40.7355C41.5458 33.9644 42.2054 33.3049 42.2054 32.4946C42.2054 31.6842 41.5458 31.0247 40.7355 31.0247ZM33.57 31.0247H31.5206C30.7103 31.0247 30.0508 31.6842 30.0508 32.4946C30.0508 33.3049 30.7103 33.9644 31.5206 33.9644H33.57C34.3803 33.9644 35.0398 33.3049 35.0398 32.4946C35.0398 31.6842 34.3803 31.0247 33.57 31.0247ZM52.4096 33.0552C52.0798 33.0552 51.7501 33.1635 51.4768 33.3897C50.8502 33.9079 50.7607 34.8313 51.2789 35.4578C51.604 35.8489 51.849 36.2917 52.0045 36.7675C52.2636 37.5354 53.0927 37.9547 53.8653 37.6956C54.6332 37.4365 55.0525 36.6073 54.7934 35.8347C54.5202 35.0103 54.1009 34.2565 53.545 33.5828C53.2529 33.2295 52.8336 33.0505 52.4096 33.0505V33.0552ZM52.73 39.7308C52.2589 39.7308 51.7972 39.9569 51.5098 40.3762C51.2271 40.7955 50.8691 41.1583 50.4545 41.4456C49.7902 41.912 49.6254 42.826 50.0918 43.495C50.5581 44.1592 51.4721 44.3241 52.1411 43.8577C52.8525 43.3583 53.4602 42.7459 53.9454 42.0251C54.4024 41.3514 54.2234 40.4375 53.5544 39.9852C53.3 39.8156 53.0173 39.7308 52.73 39.7308ZM46.3888 42.1853H44.3395C43.5292 42.1853 42.8697 42.8448 42.8697 43.6551C42.8697 44.4654 43.5292 45.125 44.3395 45.125H46.3888C47.1991 45.125 47.8587 44.4654 47.8587 43.6551C47.8587 42.8448 47.1991 42.1853 46.3888 42.1853Z" fill="#BABABA"/>
        <path d="M35.0208 56.1257H37.0701C37.8804 56.1257 38.54 55.4661 38.54 54.6558C38.54 53.8455 37.8804 53.186 37.0701 53.186H35.0208C34.2105 53.186 33.5509 53.8455 33.5509 54.6558C33.5509 55.4661 34.2105 56.1257 35.0208 56.1257ZM42.1863 56.1257H44.2357C45.046 56.1257 45.7055 55.4661 45.7055 54.6558C45.7055 53.8455 45.046 53.186 44.2357 53.186H42.1863C41.376 53.186 40.7165 53.8455 40.7165 54.6558C40.7165 55.4661 41.376 56.1257 42.1863 56.1257ZM49.3519 56.1257H51.4012C52.2115 56.1257 52.8711 55.4661 52.8711 54.6558C52.8711 53.8455 52.2115 53.186 51.4012 53.186H49.3519C48.5416 53.186 47.8821 53.8455 47.8821 54.6558C47.8821 55.4661 48.5416 56.1257 49.3519 56.1257ZM30.5123 54.0952C30.842 54.0952 31.1718 53.9869 31.4451 53.7607C32.0716 53.2425 32.1611 52.3191 31.6429 51.6926C31.3179 51.3015 31.0729 50.8587 30.9174 50.3829C30.6583 49.615 29.8292 49.1957 29.0565 49.4548C28.2886 49.7139 27.8693 50.543 28.1285 51.3157C28.4017 52.1401 28.821 52.8939 29.3769 53.5676C29.669 53.9209 30.0883 54.0999 30.5123 54.0999V54.0952ZM30.1919 47.4196C30.663 47.4196 31.1247 47.1935 31.4121 46.7742C31.6947 46.3549 32.0528 45.9921 32.4674 45.7048C33.1316 45.2384 33.2965 44.3244 32.8301 43.6554C32.3637 42.9912 31.4498 42.8263 30.7808 43.2927C30.0694 43.792 29.4617 44.4045 28.9765 45.1253C28.5195 45.799 28.6985 46.7129 29.3675 47.1652C29.6219 47.3348 29.9045 47.4196 30.1919 47.4196ZM36.533 44.9651H38.5824C39.3927 44.9651 40.0522 44.3056 40.0522 43.4953C40.0522 42.6849 39.3927 42.0254 38.5824 42.0254H36.533C35.7227 42.0254 35.0632 42.6849 35.0632 43.4953C35.0632 44.3056 35.7227 44.9651 36.533 44.9651Z" fill="#BABABA"/>
        <path d="M22.8528 19.847H24.9021C25.7124 19.847 26.372 20.5065 26.372 21.3168C26.372 22.1271 25.7124 22.7867 24.9021 22.7867H22.8528C22.0425 22.7867 21.383 22.1271 21.383 21.3168C21.383 20.5065 22.0425 19.847 22.8528 19.847ZM30.0184 19.847H32.0677C32.878 19.847 33.5376 20.5065 33.5376 21.3168C33.5376 22.1271 32.878 22.7867 32.0677 22.7867H30.0184C29.2081 22.7867 28.5485 22.1271 28.5485 21.3168C28.5485 20.5065 29.2081 19.847 30.0184 19.847ZM37.1839 19.847H39.2333C40.0436 19.847 40.7031 20.5065 40.7031 21.3168C40.7031 22.1271 40.0436 22.7867 39.2333 22.7867H37.1839C36.3736 22.7867 35.7141 22.1271 35.7141 21.3168C35.7141 20.5065 36.3736 19.847 37.1839 19.847ZM18.3443 21.8774C18.6741 21.8774 19.0039 21.9858 19.2771 22.2119C19.9037 22.7302 19.9932 23.6535 19.475 24.2801C19.1499 24.6711 18.9049 25.114 18.7495 25.5898C18.4903 26.3577 17.6612 26.777 16.8886 26.5179C16.1207 26.2588 15.7014 25.4296 15.9605 24.657C16.2337 23.8325 16.653 23.0788 17.2089 22.4051C17.501 22.0518 17.9203 21.8727 18.3443 21.8727V21.8774ZM18.0239 28.5531C18.4951 28.5531 18.9567 28.7792 19.2441 29.1985C19.5268 29.6178 19.8848 29.9805 20.2994 30.2679C20.9637 30.7343 21.1286 31.6483 20.6622 32.3172C20.1958 32.9815 19.2818 33.1464 18.6128 32.68C17.9015 32.1806 17.2937 31.5682 16.8085 30.8474C16.3515 30.1737 16.5305 29.2597 17.1995 28.8075C17.4539 28.6379 17.7366 28.5531 18.0239 28.5531ZM24.3651 31.0075H26.4144C27.2247 31.0075 27.8843 31.6671 27.8843 32.4774C27.8843 33.2877 27.2247 33.9473 26.4144 33.9473H24.3651C23.5548 33.9473 22.8952 33.2877 22.8952 32.4774C22.8952 31.6671 23.5548 31.0075 24.3651 31.0075Z" fill="#BABABA"/>
        <g filter="url(#filter0_f_2796_7149)">
            <circle cx="46" cy="22" r="9" fill="white"/>
            <circle cx="46" cy="22" r="8.5" stroke="#FF6600"/>
        </g>
        <circle cx="46" cy="22" r="8.5" fill="white" stroke="#FF6600"/>
        <circle cx="46" cy="22" r="4.5" fill="#FF6600" stroke="#FF6600"/>
        <g filter="url(#filter1_d_2796_7149)">
            <mask id="path-9-inside-1_2796_7149" fill="white">
                <path fill-rule="evenodd" clip-rule="evenodd" d="M46.631 21.6486C45.0614 22.0691 44.13 23.6825 44.5506 25.252L47.453 36.0842L46.7414 35.3726C45.5924 34.2235 43.7295 34.2235 42.5805 35.3726C41.4314 36.5216 41.4314 38.3845 42.5805 39.5335L51.7454 48.6986C51.8055 48.7587 51.8675 48.8156 51.9312 48.8693C52.2375 49.2229 52.8637 49.8576 53.6779 50.2217C54.6297 50.6474 55.5353 50.3332 55.5353 50.3332L66.9032 47.2872C66.9032 47.2872 67.699 47.1311 68.2452 46.1852C68.7913 45.2392 68.5676 44.4044 68.5676 44.4044L67.9882 35.4214L67.8312 34.8353L67.8311 34.8353L66.6173 30.3052C66.1967 28.7356 64.5834 27.8042 63.0138 28.2247C62.352 28.4021 61.8036 28.7915 61.4222 29.3004C60.8212 28.0505 59.3985 27.3644 58.0099 27.7365C57.1967 27.9544 56.5548 28.4925 56.1834 29.1788C55.4644 28.4397 54.3775 28.101 53.3107 28.3869C52.6707 28.5583 52.1368 28.9282 51.7574 29.4125L50.2345 23.729C49.8139 22.1595 48.2006 21.228 46.631 21.6486Z"/>
            </mask>
            <path fill-rule="evenodd" clip-rule="evenodd" d="M46.631 21.6486C45.0614 22.0691 44.13 23.6825 44.5506 25.252L47.453 36.0842L46.7414 35.3726C45.5924 34.2235 43.7295 34.2235 42.5805 35.3726C41.4314 36.5216 41.4314 38.3845 42.5805 39.5335L51.7454 48.6986C51.8055 48.7587 51.8675 48.8156 51.9312 48.8693C52.2375 49.2229 52.8637 49.8576 53.6779 50.2217C54.6297 50.6474 55.5353 50.3332 55.5353 50.3332L66.9032 47.2872C66.9032 47.2872 67.699 47.1311 68.2452 46.1852C68.7913 45.2392 68.5676 44.4044 68.5676 44.4044L67.9882 35.4214L67.8312 34.8353L67.8311 34.8353L66.6173 30.3052C66.1967 28.7356 64.5834 27.8042 63.0138 28.2247C62.352 28.4021 61.8036 28.7915 61.4222 29.3004C60.8212 28.0505 59.3985 27.3644 58.0099 27.7365C57.1967 27.9544 56.5548 28.4925 56.1834 29.1788C55.4644 28.4397 54.3775 28.101 53.3107 28.3869C52.6707 28.5583 52.1368 28.9282 51.7574 29.4125L50.2345 23.729C49.8139 22.1595 48.2006 21.228 46.631 21.6486Z" fill="url(#paint0_linear_2796_7149)"/>
            <path d="M47.453 36.0842L46.7459 36.7913L49.3849 39.4303L48.419 35.8254L47.453 36.0842ZM46.7414 35.3726L47.4485 34.6655L46.7414 35.3726ZM42.5805 35.3726L41.8733 34.6655L41.8733 34.6655L42.5805 35.3726ZM42.5805 39.5335L43.2876 38.8264L42.5805 39.5335ZM51.7454 48.6986L52.4526 47.9915L52.4526 47.9915L51.7454 48.6986ZM51.9312 48.8693L52.6869 48.2145L52.6358 48.1554L52.576 48.105L51.9312 48.8693ZM53.6779 50.2217L54.0861 49.3088L54.0861 49.3088L53.6779 50.2217ZM55.5353 50.3332L55.2765 49.3673L55.2417 49.3766L55.2076 49.3885L55.5353 50.3332ZM66.9032 47.2872L66.7107 46.3059L66.6773 46.3125L66.6444 46.3213L66.9032 47.2872ZM68.2452 46.1852L69.1112 46.6851L68.2452 46.1852ZM68.5676 44.4044L67.5697 44.4688L67.576 44.5676L67.6017 44.6632L68.5676 44.4044ZM67.9882 35.4214L68.9862 35.3571L68.9798 35.2583L68.9542 35.1626L67.9882 35.4214ZM67.8312 34.8353L68.7971 34.5765L68.5811 33.7703L67.7493 33.8386L67.8312 34.8353ZM67.8311 34.8353L66.8652 35.0941L67.0812 35.9002L67.913 35.8319L67.8311 34.8353ZM61.4222 29.3004L60.5209 29.7337L61.2345 31.218L62.2223 29.9001L61.4222 29.3004ZM56.1834 29.1788L55.4666 29.8761L56.4155 30.8514L57.063 29.6547L56.1834 29.1788ZM51.7574 29.4125L50.7914 29.6713L51.3097 31.6054L52.5446 30.0292L51.7574 29.4125ZM50.2345 23.729L49.2686 23.9879L50.2345 23.729ZM45.5165 24.9932C45.2389 23.9571 45.8537 22.8921 46.8898 22.6145L46.3722 20.6826C44.2692 21.2462 43.0211 23.4078 43.5846 25.5109L45.5165 24.9932ZM48.419 35.8254L45.5165 24.9932L43.5846 25.5109L46.4871 36.343L48.419 35.8254ZM46.0343 36.0797L46.7459 36.7913L48.1601 35.3771L47.4485 34.6655L46.0343 36.0797ZM43.2876 36.0797C44.046 35.3212 45.2758 35.3212 46.0343 36.0797L47.4485 34.6655C45.909 33.1259 43.4129 33.1259 41.8733 34.6655L43.2876 36.0797ZM43.2876 38.8264C42.5291 38.0679 42.5291 36.8382 43.2876 36.0797L41.8733 34.6655C40.3338 36.205 40.3338 38.7011 41.8733 40.2406L43.2876 38.8264ZM52.4526 47.9915L43.2876 38.8264L41.8733 40.2406L51.0383 49.4057L52.4526 47.9915ZM52.576 48.105C52.5338 48.0694 52.4926 48.0316 52.4526 47.9915L51.0383 49.4057C51.1184 49.4858 51.2011 49.5618 51.2864 49.6337L52.576 48.105ZM54.0861 49.3088C53.4685 49.0326 52.9569 48.526 52.6869 48.2145L51.1755 49.5242C51.5182 49.9197 52.2589 50.6826 53.2696 51.1346L54.0861 49.3088ZM55.5353 50.3332C55.2076 49.3885 55.2079 49.3883 55.2082 49.3882C55.2083 49.3882 55.2087 49.3881 55.2089 49.388C55.2093 49.3878 55.2098 49.3877 55.2102 49.3876C55.211 49.3873 55.2117 49.387 55.2125 49.3868C55.2139 49.3863 55.2151 49.3859 55.2162 49.3855C55.2182 49.3848 55.2196 49.3844 55.2201 49.3842C55.2212 49.3839 55.2194 49.3845 55.2147 49.3858C55.2054 49.3886 55.1854 49.3941 55.1562 49.4008C55.097 49.4143 55.0046 49.4314 54.8904 49.4398C54.6578 49.4568 54.3696 49.4356 54.0861 49.3088L53.2696 51.1346C53.938 51.4335 54.5785 51.468 55.0367 51.4344C55.2679 51.4175 55.4614 51.3826 55.6018 51.3505C55.6723 51.3344 55.7305 51.3187 55.7744 51.3059C55.7964 51.2995 55.8149 51.2938 55.8298 51.289C55.8372 51.2867 55.8437 51.2845 55.8493 51.2827C55.852 51.2818 55.8546 51.2809 55.8569 51.2801C55.8581 51.2797 55.8592 51.2793 55.8602 51.279C55.8607 51.2788 55.8612 51.2786 55.8617 51.2785C55.8619 51.2784 55.8623 51.2783 55.8624 51.2782C55.8628 51.2781 55.8631 51.278 55.5353 50.3332ZM66.6444 46.3213L55.2765 49.3673L55.7942 51.2991L67.162 48.2531L66.6444 46.3213ZM67.3791 45.6852C67.2036 45.9892 67.0011 46.1473 66.8622 46.2291C66.7907 46.2712 66.7334 46.2944 66.7026 46.3053C66.6873 46.3107 66.6791 46.3129 66.6797 46.3127C66.68 46.3126 66.6826 46.3119 66.6877 46.3108C66.6902 46.3102 66.6934 46.3095 66.6972 46.3087C66.6991 46.3083 66.7012 46.3078 66.7035 46.3074C66.7046 46.3071 66.7057 46.3069 66.707 46.3067C66.7076 46.3065 66.7082 46.3064 66.7088 46.3063C66.7091 46.3062 66.7096 46.3061 66.7098 46.3061C66.7102 46.306 66.7107 46.3059 66.9032 47.2872C67.0957 48.2685 67.0962 48.2684 67.0967 48.2683C67.0969 48.2683 67.0974 48.2682 67.0977 48.2681C67.0984 48.268 67.0991 48.2678 67.0998 48.2677C67.1012 48.2674 67.1026 48.2671 67.1042 48.2668C67.1072 48.2662 67.1104 48.2655 67.1138 48.2648C67.1207 48.2633 67.1284 48.2616 67.1369 48.2597C67.1539 48.2557 67.1742 48.2508 67.1973 48.2446C67.2436 48.2322 67.3018 48.2148 67.3697 48.1908C67.5051 48.1428 67.6809 48.0679 67.8766 47.9527C68.2722 47.7199 68.7406 47.327 69.1112 46.6851L67.3791 45.6852ZM68.5676 44.4044C67.6017 44.6632 67.6016 44.6628 67.6014 44.6624C67.6014 44.6622 67.6013 44.6618 67.6012 44.6616C67.6011 44.661 67.6009 44.6605 67.6008 44.66C67.6005 44.6589 67.6003 44.658 67.6 44.657C67.5995 44.6551 67.5991 44.6534 67.5987 44.6519C67.5979 44.6488 67.5974 44.6465 67.597 44.6448C67.5962 44.6414 67.5961 44.6408 67.5964 44.6426C67.5972 44.6464 67.5999 44.66 67.6028 44.6821C67.6088 44.7268 67.6156 44.8033 67.6119 44.9023C67.6045 45.0987 67.5562 45.3785 67.3791 45.6852L69.1112 46.6851C69.4803 46.0459 69.5932 45.4353 69.6105 44.9778C69.6191 44.7498 69.6041 44.5585 69.5852 44.4171C69.5757 44.3462 69.5652 44.2872 69.5558 44.2416C69.5512 44.2188 69.5468 44.1993 69.543 44.1832C69.5411 44.1752 69.5393 44.168 69.5377 44.1617C69.5369 44.1586 69.5362 44.1557 69.5355 44.153C69.5351 44.1516 69.5348 44.1503 69.5345 44.1491C69.5343 44.1485 69.5341 44.1479 69.534 44.1473C69.5339 44.147 69.5338 44.1466 69.5337 44.1464C69.5336 44.146 69.5335 44.1456 68.5676 44.4044ZM66.9903 35.4858L67.5697 44.4688L69.5655 44.34L68.9862 35.3571L66.9903 35.4858ZM66.8652 35.0941L67.0223 35.6803L68.9542 35.1626L68.7971 34.5765L66.8652 35.0941ZM67.913 35.8319L67.913 35.8319L67.7493 33.8386L67.7493 33.8386L67.913 35.8319ZM65.6514 30.564L66.8652 35.0941L68.7971 34.5765L67.5832 30.0464L65.6514 30.564ZM63.2727 29.1907C64.3088 28.913 65.3738 29.5279 65.6514 30.564L67.5832 30.0464C67.0197 27.9433 64.8581 26.6953 62.755 27.2588L63.2727 29.1907ZM62.2223 29.9001C62.4742 29.5642 62.8347 29.308 63.2727 29.1907L62.755 27.2588C61.8692 27.4962 61.133 28.0189 60.622 28.7006L62.2223 29.9001ZM58.2688 28.7024C59.1843 28.4571 60.1245 28.9091 60.5209 29.7337L62.3234 28.8671C61.518 27.1918 59.6126 26.2717 57.7511 26.7705L58.2688 28.7024ZM57.063 29.6547C57.309 29.2 57.7318 28.8463 58.2688 28.7024L57.7511 26.7705C56.6616 27.0625 55.8006 27.785 55.3039 28.7029L57.063 29.6547ZM53.5695 29.3528C54.2725 29.1644 54.99 29.3861 55.4666 29.8761L56.9002 28.4815C55.9389 27.4933 54.4825 27.0376 53.0519 27.4209L53.5695 29.3528ZM52.5446 30.0292C52.795 29.7096 53.1459 29.4663 53.5695 29.3528L53.0519 27.4209C52.1955 27.6504 51.4786 28.1468 50.9702 28.7958L52.5446 30.0292ZM49.2686 23.9879L50.7914 29.6713L52.7233 29.1536L51.2004 23.4702L49.2686 23.9879ZM46.8898 22.6145C47.926 22.3369 48.991 22.9517 49.2686 23.9879L51.2004 23.4702C50.6369 21.3672 48.4753 20.1191 46.3722 20.6826L46.8898 22.6145Z" fill="#E43F40" fill-opacity="0.15" mask="url(#path-9-inside-1_2796_7149)"/>
        </g>
        <path fill-rule="evenodd" clip-rule="evenodd" d="M26.5 67.8616C19.3203 67.8616 13.5 61.9709 13.5 54.7043C13.5 47.4376 19.3203 41.5469 26.5 41.5469C33.6797 41.5469 39.5 47.4376 39.5 54.7043C39.5 57.3658 38.7192 59.8428 37.3768 61.9133C37.1736 62.2267 37.1408 62.6245 37.3104 62.9572L38.4715 65.2367C38.8214 65.9236 38.2954 66.7314 37.5257 66.6891L32.715 66.4253C32.5358 66.4155 32.3577 66.4548 32.1969 66.5343C30.4766 67.3845 28.5433 67.8616 26.5 67.8616Z" fill="#3F7FE0"/>
        <rect x="39.5" y="52.5" width="14" height="5" fill="#FFF4ED"/>
        <g filter="url(#filter2_d_2796_7149)">
            <path d="M23 55.0714L26.2143 58.2857L32 52.5" stroke="white" stroke-width="2.5" stroke-linecap="round" stroke-linejoin="round"/>
        </g>
    </g>
    <defs>
        <filter id="filter0_f_2796_7149" x="32" y="8" width="28" height="28" filterUnits="userSpaceOnUse" color-interpolation-filters="sRGB">
            <feFlood flood-opacity="0" result="BackgroundImageFix"/>
            <feBlend mode="normal" in="SourceGraphic" in2="BackgroundImageFix" result="shape"/>
            <feGaussianBlur stdDeviation="2.5" result="effect1_foregroundBlur_2796_7149"/>
        </filter>
        <filter id="filter1_d_2796_7149" x="37.7187" y="17.5476" width="36.8943" height="38.8972" filterUnits="userSpaceOnUse" color-interpolation-filters="sRGB">
            <feFlood flood-opacity="0" result="BackgroundImageFix"/>
            <feColorMatrix in="SourceAlpha" type="matrix" values="0 0 0 0 0 0 0 0 0 0 0 0 0 0 0 0 0 0 127 0" result="hardAlpha"/>
            <feOffset dx="1" dy="1"/>
            <feGaussianBlur stdDeviation="2.5"/>
            <feComposite in2="hardAlpha" operator="out"/>
            <feColorMatrix type="matrix" values="0 0 0 0 0.608333 0 0 0 0 0.334701 0 0 0 0 0.0735069 0 0 0 0.25 0"/>
            <feBlend mode="normal" in2="BackgroundImageFix" result="effect1_dropShadow_2796_7149"/>
            <feBlend mode="normal" in="SourceGraphic" in2="effect1_dropShadow_2796_7149" result="shape"/>
        </filter>
        <filter id="filter2_d_2796_7149" x="17.75" y="51.25" width="19.5" height="16.2856" filterUnits="userSpaceOnUse" color-interpolation-filters="sRGB">
            <feFlood flood-opacity="0" result="BackgroundImageFix"/>
            <feColorMatrix in="SourceAlpha" type="matrix" values="0 0 0 0 0 0 0 0 0 0 0 0 0 0 0 0 0 0 127 0" result="hardAlpha"/>
            <feOffset dy="4"/>
            <feGaussianBlur stdDeviation="2"/>
            <feComposite in2="hardAlpha" operator="out"/>
            <feColorMatrix type="matrix" values="0 0 0 0 0 0 0 0 0 0 0 0 0 0 0 0 0 0 0.08 0"/>
            <feBlend mode="normal" in2="BackgroundImageFix" result="effect1_dropShadow_2796_7149"/>
            <feBlend mode="normal" in="SourceGraphic" in2="effect1_dropShadow_2796_7149" result="shape"/>
        </filter>
        <linearGradient id="paint0_linear_2796_7149" x1="50.5568" y1="20.5967" x2="58.325" y2="49.5879" gradientUnits="userSpaceOnUse">
            <stop stop-color="#FDD1A7"/>
            <stop offset="1" stop-color="#FDD1A7"/>
        </linearGradient>
        <clipPath id="clip0_2796_7149">
            <rect width="67" height="63" fill="white" transform="translate(6.5 8.5)"/>
        </clipPath>
    </defs>
</svg>
