<svg width="52" height="52" viewBox="0 0 52 52" fill="none" xmlns="http://www.w3.org/2000/svg">
    <path d="M0 26L26 0H52L0 52V26Z" fill="#F5381F"/>
    <path d="M19.9297 23.9321L18.9285 24.9334L13.9635 24.0288L13.929 24.0633L16.8638 26.9981L15.6899 28.172L10.6904 23.1725L11.7055 22.1574L16.6497 23.0828L16.6911 23.0413L13.7564 20.1066L14.9303 18.9327L19.9297 23.9321ZM15.407 18.4559L18.8666 14.9963L19.8264 15.9562L17.5408 18.2418L18.5973 19.2984L20.7034 17.1922L21.6633 18.1521L19.5571 20.2582L20.6206 21.3216L22.9131 19.0291L23.873 19.9889L20.4065 23.4554L15.407 18.4559ZM19.074 14.7889L20.3722 13.4907L24.4533 16.0388L24.4947 15.9973L22.0502 11.8127L23.1206 10.7424L27.319 13.1869L27.3535 13.1523L24.8055 9.05747L26.1037 7.75926L29.653 14.2089L28.5205 15.3413L24.5292 13.1731L24.4878 13.2145L26.6561 17.2058L25.5167 18.3451L19.074 14.7889Z" fill="white"/>
</svg>
