<svg width="80" height="80" viewBox="0 0 80 80" fill="none" xmlns="http://www.w3.org/2000/svg">
    <rect width="80" height="80" rx="40" fill="#FFF4ED"/>
    <g opacity="0.1" filter="url(#filter0_f_2796_7468)">
        <path d="M55.6507 60.8795C45.8451 59.7076 30.0132 59.7067 20.2701 60.8795C15.4154 61.464 12.9952 62.2283 13 62.9937C13 63.0185 13.0096 63.0444 13.0096 63.0692C13.0192 63.0921 13.0192 63.1149 13.024 63.1388C13.0384 63.1636 13.0528 63.1895 13.0672 63.2143C13.0816 63.2372 13.0912 63.259 13.1105 63.2829C13.1297 63.3077 13.1585 63.3336 13.1825 63.3584C13.2065 63.3813 13.2257 63.4032 13.2545 63.426C13.2833 63.4509 13.3217 63.4767 13.3602 63.5016C13.3938 63.5244 13.4226 63.5463 13.4562 63.5692C13.4946 63.594 13.5426 63.6189 13.5906 63.6437C13.6339 63.6666 13.6723 63.6884 13.7155 63.7103C13.7683 63.7351 13.8307 63.761 13.8788 63.7848C13.9124 63.7978 13.9412 63.8107 13.97 63.8236C13.994 63.8326 14.0084 63.8425 14.0324 63.8514C14.0948 63.8763 14.1669 63.9021 14.2293 63.926C14.2917 63.9479 14.3445 63.9697 14.407 63.9906C14.479 64.0154 14.5606 64.0403 14.6375 64.0651C14.7047 64.086 14.7671 64.1069 14.8391 64.1278C14.9208 64.1516 15.012 64.1765 15.1032 64.2003C15.1801 64.2202 15.2473 64.2411 15.3289 64.2619C15.4202 64.2858 15.5258 64.3097 15.6219 64.3335C15.7083 64.3534 15.7851 64.3733 15.8716 64.3941C15.982 64.418 16.0972 64.4418 16.2077 64.4657C16.2989 64.4846 16.3854 64.5045 16.4766 64.5234C16.5966 64.5472 16.7263 64.5721 16.8511 64.5949C16.9472 64.6138 17.0432 64.6317 17.1393 64.6506C17.2785 64.6744 17.4226 64.6993 17.5618 64.7231C17.6627 64.74 17.7539 64.7569 17.8547 64.7728C18.0132 64.7977 18.1765 64.8225 18.3349 64.8474C18.4358 64.8623 18.527 64.8782 18.6327 64.8931C18.8151 64.9199 19.0072 64.9458 19.1993 64.9716C19.2905 64.9845 19.377 64.9965 19.4682 65.0094C19.7563 65.0472 20.054 65.0849 20.3614 65.1217C30.1669 66.2936 45.9988 66.2926 55.7419 65.1217C56.0444 65.0849 56.3421 65.0482 56.6254 65.0104C56.7263 64.9975 56.8175 64.9826 56.9184 64.9696C57.096 64.9448 57.2785 64.9199 57.4514 64.8951C57.557 64.8792 57.6531 64.8633 57.7587 64.8474C57.9124 64.8235 58.0708 64.7997 58.2197 64.7758C58.3205 64.7589 58.4118 64.742 58.5126 64.7251C58.6519 64.7013 58.8007 64.6774 58.9352 64.6536C59.0312 64.6347 59.1224 64.6168 59.2137 64.5989C59.3385 64.575 59.4682 64.5512 59.5834 64.5273C59.6747 64.5084 59.7611 64.4896 59.8523 64.4707C59.9628 64.4468 60.078 64.423 60.1837 64.3991C60.2701 64.3802 60.3469 64.3594 60.4286 64.3395C60.5246 64.3156 60.6254 64.2918 60.7215 64.2679C60.8031 64.248 60.8703 64.2272 60.9472 64.2063C61.0336 64.1824 61.1248 64.1586 61.2065 64.1347C61.2737 64.1138 61.3409 64.093 61.4034 64.0711C61.4802 64.0472 61.5618 64.0234 61.629 63.9995C61.6915 63.9777 61.7443 63.9558 61.8019 63.9339C61.8691 63.9101 61.9364 63.8862 61.994 63.8614C62.0516 63.8395 62.0948 63.8176 62.1428 63.7958C62.2005 63.7709 62.2581 63.7461 62.3061 63.7222C62.3541 63.6994 62.3926 63.6775 62.431 63.6556C62.4742 63.6308 62.5222 63.6059 62.5654 63.5821C62.599 63.5592 62.6278 63.5374 62.6567 63.5145C62.6951 63.4896 62.7287 63.4648 62.7623 63.4399C62.7863 63.4171 62.8055 63.3952 62.8295 63.3714C62.8535 63.3475 62.8823 63.3227 62.8968 63.2978C62.916 63.2749 62.9256 63.2521 62.94 63.2282C62.9544 63.2044 62.9736 63.1795 62.9784 63.1547C62.9928 63.1308 62.9928 63.109 62.9928 63.0851C63.1513 62.2909 60.6975 61.4898 55.617 60.8835L55.6507 60.8795Z" fill="black" fill-opacity="0.8"/>
    </g>
    <path d="M17.4142 60.7684V37.2693C17.4142 36.3519 17.8339 35.485 18.5535 34.916L35.9249 21.1805C37.0155 20.3181 38.5557 20.3181 39.6463 21.1805L57.0177 34.916C57.7373 35.485 58.157 36.3519 58.157 37.2693V60.7684C58.157 62.4252 56.8139 63.7684 55.157 63.7684H20.4142C18.7573 63.7684 17.4142 62.4252 17.4142 60.7684Z" fill="#B2401C"/>
    <rect x="22.1534" y="23.4988" width="31.2678" height="33.6366" rx="3" fill="white"/>
    <rect x="22.4034" y="23.7488" width="30.7678" height="33.1366" rx="2.75" stroke="black" stroke-opacity="0.1" stroke-width="0.5"/>
    <g clip-path="url(#clip0_2796_7468)">
        <path d="M34.827 32.8609C35.1506 32.5373 35.0193 31.8814 34.5339 31.3959C34.0484 30.9105 33.3925 30.7792 33.0689 31.1028C32.7454 31.4264 32.8766 32.0823 33.3621 32.5677C33.8475 33.0532 34.5034 33.1845 34.827 32.8609Z" fill="#F37321"/>
        <path d="M43.4443 41.4781C43.7679 41.1545 43.6367 40.4986 43.1512 40.0131C42.6657 39.5276 42.0098 39.3964 41.6862 39.72C41.3627 40.0436 41.4939 40.6995 41.9794 41.1849C42.4648 41.6704 43.1207 41.8016 43.4443 41.4781Z" fill="#F37321"/>
        <path d="M33.5716 35.036C33.6901 34.594 33.2485 34.0916 32.5853 33.9139C31.9221 33.7362 31.2885 33.9505 31.1701 34.3925C31.0516 34.8345 31.4932 35.3369 32.1564 35.5146C32.8196 35.6923 33.4532 35.478 33.5716 35.036Z" fill="#F37321"/>
        <path d="M45.3452 38.1901C45.4637 37.748 45.0221 37.2456 44.3589 37.0679C43.6958 36.8903 43.0621 37.1045 42.9437 37.5466C42.8253 37.9886 43.2669 38.491 43.93 38.6687C44.5932 38.8464 45.2268 38.6321 45.3452 38.1901Z" fill="#F37321"/>
        <path d="M32.5853 38.6689C33.2485 38.4912 33.6901 37.9888 33.5716 37.5468C33.4532 37.1047 32.8196 36.8905 32.1564 37.0681C31.4932 37.2458 31.0516 37.7482 31.1701 38.1903C31.2885 38.6323 31.9221 38.8466 32.5853 38.6689Z" fill="#F37321"/>
        <path d="M44.3589 35.5146C45.0221 35.3369 45.4637 34.8345 45.3452 34.3925C45.2268 33.9504 44.5932 33.7362 43.93 33.9138C43.2669 34.0915 42.8253 34.5939 42.9437 35.036C43.0621 35.478 43.6958 35.6923 44.3589 35.5146Z" fill="#F37321"/>
        <path d="M34.534 41.1866C35.0195 40.7011 35.1507 40.0452 34.8271 39.7217C34.5035 39.3981 33.8477 39.5293 33.3622 40.0148C32.8767 40.5002 32.7455 41.1561 33.0691 41.4797C33.3926 41.8033 34.0485 41.6721 34.534 41.1866Z" fill="#F37321"/>
        <path d="M43.1512 32.5674C43.6367 32.082 43.7679 31.4261 43.4443 31.1025C43.1207 30.7789 42.4648 30.9102 41.9794 31.3956C41.4939 31.8811 41.3627 32.537 41.6862 32.8606C42.0098 33.1842 42.6657 33.0529 43.1512 32.5674Z" fill="#F37321"/>
        <path d="M37.4798 42.3915C37.6575 41.7283 37.4433 41.0947 37.0012 40.9762C36.5592 40.8578 36.0568 41.2994 35.8791 41.9626C35.7014 42.6257 35.9157 43.2593 36.3577 43.3778C36.7998 43.4962 37.3021 43.0546 37.4798 42.3915Z" fill="#F37321"/>
        <path d="M40.6361 30.62C40.8138 29.9568 40.5995 29.3232 40.1575 29.2048C39.7154 29.0863 39.2131 29.5279 39.0354 30.1911C38.8577 30.8542 39.072 31.4879 39.514 31.6063C39.956 31.7247 40.4584 31.2832 40.6361 30.62Z" fill="#F37321"/>
        <path d="M40.1575 43.3778C40.5995 43.2593 40.8138 42.6257 40.6361 41.9625C40.4584 41.2994 39.956 40.8578 39.514 40.9762C39.072 41.0947 38.8577 41.7283 39.0354 42.3914C39.2131 43.0546 39.7154 43.4962 40.1575 43.3778Z" fill="#F37321"/>
        <path d="M37.0012 31.6063C37.4433 31.4878 37.6575 30.8542 37.4798 30.191C37.3021 29.5279 36.7998 29.0863 36.3577 29.2047C35.9157 29.3232 35.7014 29.9568 35.8791 30.62C36.0568 31.2831 36.5592 31.7247 37.0012 31.6063Z" fill="#F37321"/>
        <path d="M35.2107 37.1194C35.8972 37.1194 36.4538 36.7484 36.4538 36.2908C36.4538 35.8331 35.8972 35.4622 35.2107 35.4622C34.5241 35.4622 33.9675 35.8331 33.9675 36.2908C33.9675 36.7484 34.5241 37.1194 35.2107 37.1194Z" fill="#F37321"/>
        <path d="M41.3044 37.1194C41.991 37.1194 42.5475 36.7484 42.5475 36.2908C42.5475 35.8331 41.991 35.4622 41.3044 35.4622C40.6178 35.4622 40.0613 35.8331 40.0613 36.2908C40.0613 36.7484 40.6178 37.1194 41.3044 37.1194Z" fill="#F37321"/>
        <path d="M37.45 39.3431C37.7933 38.7485 37.7503 38.081 37.354 37.8522C36.9577 37.6234 36.3582 37.9199 36.0149 38.5145C35.6716 39.1091 35.7146 39.7766 36.1109 40.0054C36.5072 40.2342 37.1068 39.9377 37.45 39.3431Z" fill="#F37321"/>
        <path d="M40.4969 34.0657C40.8402 33.4712 40.7972 32.8037 40.4009 32.5749C40.0046 32.346 39.405 32.6426 39.0618 33.2371C38.7185 33.8317 38.7615 34.4992 39.1578 34.728C39.5541 34.9568 40.1536 34.6603 40.4969 34.0657Z" fill="#F37321"/>
        <path d="M40.4009 40.0057C40.7972 39.7769 40.8402 39.1094 40.4969 38.5148C40.1536 37.9203 39.5541 37.6237 39.1578 37.8525C38.7615 38.0814 38.7185 38.7488 39.0618 39.3434C39.405 39.938 40.0046 40.2345 40.4009 40.0057Z" fill="#F37321"/>
        <path d="M37.354 34.7284C37.7503 34.4996 37.7933 33.8321 37.45 33.2375C37.1068 32.6429 36.5072 32.3464 36.1109 32.5752C35.7146 32.804 35.6716 33.4715 36.0149 34.0661C36.3582 34.6607 36.9577 34.9572 37.354 34.7284Z" fill="#F37321"/>
    </g>
    <mask id="mask0_2796_7468" style="mask-type:alpha" maskUnits="userSpaceOnUse" x="17" y="20" width="42" height="44">
        <path d="M17.4142 60.7684V37.2693C17.4142 36.3519 17.8339 35.485 18.5535 34.916L35.9249 21.1805C37.0155 20.3181 38.5557 20.3181 39.6463 21.1805L57.0177 34.916C57.7373 35.485 58.157 36.3519 58.157 37.2693V60.7684C58.157 62.4252 56.8139 63.7684 55.157 63.7684H20.4142C18.7573 63.7684 17.4142 62.4252 17.4142 60.7684Z" fill="#B2401C"/>
    </mask>
    <g mask="url(#mask0_2796_7468)">
        <path d="M23.7901 59.6904L57.5086 37.2652C58.0009 36.9378 58.5788 36.7632 59.17 36.7632H63.2151C64.8719 36.7632 66.2151 38.1063 66.2151 39.7632V62.1884C66.2151 63.8453 64.8719 65.1884 63.2151 65.1884H25.4515C22.4815 65.1884 21.3172 61.3351 23.7901 59.6904Z" fill="#ED5A07"/>
        <path d="M60.0478 65.1884L17.3077 36.7632H9.35608V65.1884H60.0478Z" fill="#FF6600"/>
    </g>
    <g clip-path="url(#clip1_2796_7468)">
        <path d="M68.1567 46.7129C67.2318 46.4323 66.2381 47.0091 65.9371 48.0012C66.2381 47.0091 65.7323 45.9773 64.8074 45.6968C63.8826 45.4162 62.8888 45.993 62.5878 46.9852L62.5333 47.1648C61.9614 49.0499 64.6291 52.3127 64.6291 52.3127C64.6291 52.3127 68.66 51.0821 69.2318 49.197L69.2863 49.0173C69.5873 48.0252 69.0816 46.9934 68.1567 46.7129Z" fill="#BABABA"/>
        <path d="M14.4729 24.2206C13.2812 24.9181 12.9217 26.5197 13.6699 27.798C12.9217 26.5197 11.3492 26.0488 10.1576 26.7462C8.966 27.4437 8.6065 29.0453 9.35465 30.3236L9.49012 30.5551C10.9116 32.9838 16.9211 33.3529 16.9211 33.3529C16.9211 33.3529 19.5421 27.9326 18.1206 25.5039L17.9851 25.2724C17.237 23.9941 15.6645 23.5232 14.4729 24.2206Z" fill="#F5381F"/>
    </g>
    <g filter="url(#filter1_d_2796_7468)">
        <circle cx="56.5916" cy="23.9569" r="11.5143" fill="#FFD148"/>
        <path d="M52.2844 25.4016L63.8356 18.1619L52.5301 29.8568L52.2844 25.4016Z" fill="#EAAF00"/>
        <path d="M63.8305 18.1616C60.0621 20.6986 52.476 25.7355 52.2793 25.587C52.0827 25.4385 49.9036 23.6069 48.8386 22.6168L63.8305 18.1616L58.6694 30.7847L53.754 26.7008L63.8305 18.1616Z" fill="white"/>
    </g>
    <defs>
        <filter id="filter0_f_2796_7468" x="11.2" y="58.2002" width="53.6" height="9.6" filterUnits="userSpaceOnUse" color-interpolation-filters="sRGB">
            <feFlood flood-opacity="0" result="BackgroundImageFix"/>
            <feBlend mode="normal" in="SourceGraphic" in2="BackgroundImageFix" result="shape"/>
            <feGaussianBlur stdDeviation="0.9" result="effect1_foregroundBlur_2796_7468"/>
        </filter>
        <filter id="filter1_d_2796_7468" x="42.0773" y="9.44263" width="31.0286" height="31.0286" filterUnits="userSpaceOnUse" color-interpolation-filters="sRGB">
            <feFlood flood-opacity="0" result="BackgroundImageFix"/>
            <feColorMatrix in="SourceAlpha" type="matrix" values="0 0 0 0 0 0 0 0 0 0 0 0 0 0 0 0 0 0 127 0" result="hardAlpha"/>
            <feOffset dx="1" dy="1"/>
            <feGaussianBlur stdDeviation="2"/>
            <feComposite in2="hardAlpha" operator="out"/>
            <feColorMatrix type="matrix" values="0 0 0 0 0 0 0 0 0 0 0 0 0 0 0 0 0 0 0.2 0"/>
            <feBlend mode="normal" in2="BackgroundImageFix" result="effect1_dropShadow_2796_7468"/>
            <feBlend mode="normal" in="SourceGraphic" in2="effect1_dropShadow_2796_7468" result="shape"/>
        </filter>
        <clipPath id="clip0_2796_7468">
            <rect width="14.2126" height="14.2126" fill="white" transform="translate(31.1511 29.1848)"/>
        </clipPath>
        <clipPath id="clip1_2796_7468">
            <rect width="62" height="51.2692" fill="white" transform="translate(9 16.2883)"/>
        </clipPath>
    </defs>
</svg>
