<svg width="289" height="282" viewBox="0 0 289 282" fill="none" xmlns="http://www.w3.org/2000/svg">
    <path d="M55 128H211" stroke="#FF6600" stroke-opacity="0.2" stroke-width="8"/>
    <path d="M68.5154 108.652H60.2849V110.512H67.9959V113.246H60.2849V115.133C62.3722 115.124 64.1358 115.074 65.5759 114.982C67.016 114.882 68.4425 114.704 69.8552 114.449L70.238 117.184C68.725 117.448 67.1801 117.63 65.6033 117.73C64.0265 117.822 62.0258 117.867 59.6013 117.867H58.8357H56.7576V105.891H68.5154V108.652ZM59.2185 119.426H62.7185V121.613H72.0701V119.426H75.5701V129.242H59.2185V119.426ZM72.0701 126.453V124.293H62.7185V126.453H72.0701ZM72.0701 104.633H75.5701V109.992H78.9334V112.891H75.5701V118.414H72.0701V104.633ZM95.0399 110.266C95.0308 111.824 95.2632 113.328 95.7372 114.777C96.2111 116.227 96.9221 117.516 97.87 118.646C98.8179 119.777 99.9709 120.629 101.329 121.203L99.2782 123.992C97.8928 123.363 96.6988 122.461 95.6962 121.285C94.7027 120.109 93.9143 118.729 93.3309 117.143C92.7567 118.874 91.9501 120.383 90.911 121.668C89.872 122.944 88.6141 123.919 87.1376 124.594L85.0321 121.695C86.4358 121.103 87.6206 120.223 88.5868 119.057C89.5621 117.881 90.2912 116.536 90.7743 115.023C91.2574 113.501 91.5035 111.915 91.5126 110.266V106.547H95.0399V110.266ZM102.669 104.633H106.196V129.57H102.669V104.633ZM129.371 109.719C129.361 111.35 129.339 112.713 129.302 113.807C129.266 114.891 129.165 116.14 129.001 117.553C128.837 118.965 128.578 120.51 128.222 122.188L124.749 121.859C125.187 120.009 125.506 118.15 125.706 116.281L111.269 116.992L110.831 114.203L125.884 113.656C125.93 112.517 125.953 111.204 125.953 109.719V109.609H111.597V106.82H129.371V109.719ZM108.999 123.691H131.695V126.535H108.999V123.691ZM153.447 121.613H149.975V104.633H153.447V121.613ZM133.924 106.164H145.463V113.82H137.369V116.281C139.657 116.263 141.585 116.199 143.152 116.09C144.72 115.971 146.292 115.78 147.869 115.516L148.252 118.277C146.548 118.596 144.82 118.806 143.07 118.906C141.32 119.007 139.01 119.061 136.139 119.07H133.951V111.195H141.99V108.953H133.924V106.164ZM135.236 126.754C136.941 126.544 138.39 126.143 139.584 125.551C140.778 124.958 141.671 124.247 142.264 123.418C142.865 122.589 143.166 121.714 143.166 120.793V120.355H146.83V120.793C146.821 121.704 147.113 122.575 147.705 123.404C148.298 124.234 149.186 124.949 150.371 125.551C151.565 126.143 153.019 126.544 154.732 126.754L153.475 129.434C151.46 129.142 149.729 128.6 148.279 127.807C146.839 127.014 145.741 126.02 144.984 124.826C144.219 126.02 143.116 127.018 141.676 127.82C140.245 128.622 138.536 129.16 136.549 129.434L135.236 126.754ZM182.46 118.168H175.296V123.883H184.948V126.672H162.171V123.883H171.769V118.168H164.714V106.547H168.296V115.352H182.46V118.168ZM206.099 120.246H188.49V106.465H205.908V109.281H192.045V111.906H205.334V114.641H192.045V117.484H206.099V120.246ZM185.81 123.773H208.588V126.617H185.81V123.773Z" fill="#F5381F"/>
    <path d="M229.082 114.176H232.61V117.047H229.082V129.461H225.582V104.633H229.082V114.176ZM209.176 122.488C212.138 121.003 214.417 119.243 216.012 117.211C217.607 115.178 218.569 112.781 218.897 110.02H210.598V107.176H222.438C222.42 111.141 221.526 114.641 219.758 117.676C217.999 120.711 215.128 123.208 211.145 125.168L209.176 122.488ZM84.9703 140.383C86.0823 140.383 87.0895 140.674 87.9918 141.258C88.9033 141.841 89.6461 142.68 90.2203 143.773C90.8036 144.867 91.1773 146.152 91.3414 147.629H95.6617V138.633H99.107V163.57H95.6617V150.418H91.3824C91.2639 151.986 90.9176 153.353 90.3434 154.52C89.7691 155.686 89.0172 156.579 88.0875 157.199C87.1669 157.819 86.1279 158.129 84.9703 158.129C83.7125 158.129 82.5914 157.769 81.607 157.049C80.6318 156.32 79.8707 155.285 79.3238 153.945C78.777 152.596 78.5081 151.029 78.5172 149.242C78.5081 147.465 78.777 145.906 79.3238 144.566C79.8707 143.227 80.6318 142.197 81.607 141.477C82.5914 140.747 83.7125 140.383 84.9703 140.383ZM81.8531 149.242C81.8531 150.454 81.9807 151.493 82.2359 152.359C82.4911 153.216 82.8557 153.868 83.3297 154.314C83.8036 154.752 84.3505 154.966 84.9703 154.957C85.5992 154.966 86.1461 154.752 86.6109 154.314C87.0849 153.868 87.4495 153.216 87.7047 152.359C87.9599 151.493 88.0875 150.454 88.0875 149.242C88.0875 148.03 87.9599 146.995 87.7047 146.139C87.4495 145.282 87.0849 144.635 86.6109 144.197C86.1461 143.751 85.5992 143.527 84.9703 143.527C84.3505 143.527 83.8036 143.751 83.3297 144.197C82.8557 144.635 82.4911 145.286 82.2359 146.152C81.9807 147.009 81.8531 148.039 81.8531 149.242ZM123.594 163.078H105.629V155.121H109.129V160.289H123.594V163.078ZM102.156 140.492H108.664V143.309H105.547V150.336C106.768 150.263 107.862 150.117 108.828 149.898L109.102 152.715C108.345 152.879 107.616 152.988 106.914 153.043C106.212 153.098 105.397 153.125 104.467 153.125H103.36H102.156V140.492ZM109.867 140.492H116.867V143.309H113.34V150.35C114.224 150.322 114.972 150.272 115.582 150.199C116.202 150.126 116.822 150.017 117.442 149.871L117.742 152.688C116.968 152.861 116.188 152.979 115.404 153.043C114.621 153.098 113.531 153.125 112.137 153.125H111.235H109.867V140.492ZM116.074 145.223H119.52V138.66H122.938V156.652H119.52V148.012H116.074V145.223ZM146.358 156.844H142.885V148.723H138.428V145.852H142.885V138.66H146.358V156.844ZM125.714 151.594C127.427 151.056 128.931 150.377 130.225 149.557C131.52 148.727 132.559 147.788 133.342 146.74C134.135 145.683 134.637 144.548 134.846 143.336H126.999V140.492H138.647C138.647 142.698 138.191 144.712 137.28 146.535C136.378 148.349 135.065 149.921 133.342 151.252C131.629 152.574 129.56 153.608 127.135 154.355L125.714 151.594ZM129.952 155.012H133.507V160.289H146.987V163.078H129.952V155.012ZM168.658 148.176H172.185V151.047H168.658V163.461H165.158V138.633H168.658V148.176ZM148.751 156.488C151.713 155.003 153.992 153.243 155.587 151.211C157.182 149.178 158.144 146.781 158.472 144.02H150.173V141.176H162.013C161.995 145.141 161.102 148.641 159.333 151.676C157.574 154.711 154.703 157.208 150.72 159.168L148.751 156.488ZM195.441 160.617H172.664V157.746H177.75V151.648C176.765 151.056 176.004 150.327 175.467 149.461C174.929 148.586 174.66 147.611 174.66 146.535C174.66 145.214 175.061 144.047 175.863 143.035C176.665 142.023 177.773 141.24 179.185 140.684C180.607 140.118 182.216 139.836 184.012 139.836C185.798 139.836 187.402 140.118 188.824 140.684C190.246 141.24 191.362 142.023 192.174 143.035C192.985 144.047 193.39 145.214 193.39 146.535C193.381 147.592 193.117 148.549 192.598 149.406C192.078 150.263 191.34 150.988 190.383 151.58V157.746H195.441V160.617ZM178.105 146.535C178.105 147.337 178.347 148.035 178.83 148.627C179.322 149.219 180.01 149.675 180.894 149.994C181.788 150.313 182.827 150.473 184.012 150.473C185.178 150.473 186.208 150.313 187.101 149.994C187.995 149.675 188.692 149.219 189.193 148.627C189.695 148.035 189.945 147.337 189.945 146.535C189.945 145.715 189.695 145.008 189.193 144.416C188.701 143.824 188.008 143.372 187.115 143.062C186.222 142.743 185.187 142.589 184.012 142.598C182.827 142.598 181.788 142.753 180.894 143.062C180.01 143.372 179.322 143.824 178.83 144.416C178.347 145.008 178.105 145.715 178.105 146.535ZM186.855 157.746V152.906C185.944 153.089 184.996 153.18 184.012 153.18C183.055 153.18 182.116 153.093 181.195 152.92V157.746H186.855ZM200.651 154.766C200.651 153.672 200.746 152.788 200.938 152.113C201.138 151.43 201.416 150.887 201.772 150.486C202.127 150.076 202.61 149.68 203.221 149.297C203.886 148.859 204.401 148.417 204.766 147.971C205.131 147.524 205.308 147.009 205.299 146.426C205.299 145.979 205.194 145.587 204.985 145.25C204.775 144.904 204.488 144.639 204.123 144.457C203.768 144.266 203.367 144.165 202.92 144.156C202.483 144.165 202.077 144.266 201.704 144.457C201.33 144.648 201.024 144.931 200.788 145.305C200.551 145.669 200.423 146.107 200.405 146.617H196.522C196.54 145.378 196.836 144.334 197.411 143.486C197.985 142.63 198.75 141.992 199.707 141.572C200.674 141.144 201.754 140.93 202.948 140.93C204.224 140.93 205.349 141.144 206.325 141.572C207.309 142.001 208.075 142.62 208.621 143.432C209.177 144.234 209.455 145.186 209.455 146.289C209.455 147.365 209.2 148.285 208.69 149.051C208.189 149.807 207.459 150.473 206.502 151.047C205.965 151.366 205.536 151.689 205.217 152.018C204.898 152.346 204.657 152.729 204.493 153.166C204.338 153.604 204.26 154.137 204.26 154.766V155.066H200.651V154.766ZM200.241 158.949C200.232 158.539 200.327 158.161 200.528 157.814C200.737 157.459 201.02 157.181 201.375 156.98C201.731 156.78 202.118 156.68 202.538 156.68C202.939 156.68 203.312 156.78 203.659 156.98C204.005 157.181 204.283 157.459 204.493 157.814C204.702 158.161 204.807 158.539 204.807 158.949C204.807 159.368 204.702 159.756 204.493 160.111C204.283 160.458 204.005 160.736 203.659 160.945C203.312 161.146 202.939 161.246 202.538 161.246C202.118 161.246 201.731 161.146 201.375 160.945C201.02 160.736 200.737 160.458 200.528 160.111C200.327 159.756 200.232 159.368 200.241 158.949Z" fill="#202020"/>
    <g clip-path="url(#clip0_2476_6377)">
        <path d="M140.155 197.655C140.565 197.246 140.399 196.415 139.784 195.8C139.169 195.185 138.339 195.019 137.929 195.429C137.519 195.839 137.685 196.669 138.3 197.284C138.915 197.899 139.746 198.065 140.155 197.655Z" fill="#A1A1A1"/>
        <path d="M151.071 208.57C151.481 208.161 151.315 207.33 150.7 206.715C150.085 206.1 149.254 205.934 148.845 206.344C148.435 206.754 148.601 207.584 149.216 208.199C149.831 208.814 150.661 208.98 151.071 208.57Z" fill="#A1A1A1"/>
        <path d="M138.566 200.41C138.716 199.85 138.156 199.214 137.317 198.989C136.477 198.764 135.674 199.035 135.524 199.595C135.374 200.155 135.933 200.791 136.773 201.016C137.613 201.241 138.416 200.97 138.566 200.41Z" fill="#A1A1A1"/>
        <path d="M153.475 204.405C153.625 203.845 153.066 203.209 152.226 202.984C151.386 202.759 150.584 203.03 150.434 203.59C150.284 204.15 150.843 204.786 151.683 205.011C152.523 205.236 153.325 204.965 153.475 204.405Z" fill="#A1A1A1"/>
        <path d="M137.317 205.011C138.157 204.786 138.716 204.15 138.566 203.59C138.416 203.03 137.613 202.759 136.774 202.984C135.934 203.209 135.374 203.845 135.524 204.405C135.674 204.965 136.477 205.236 137.317 205.011Z" fill="#A1A1A1"/>
        <path d="M152.227 201.016C153.067 200.791 153.626 200.155 153.476 199.595C153.326 199.035 152.523 198.764 151.684 198.989C150.844 199.214 150.284 199.85 150.434 200.41C150.584 200.97 151.387 201.241 152.227 201.016Z" fill="#A1A1A1"/>
        <path d="M139.785 208.199C140.399 207.585 140.566 206.754 140.156 206.344C139.746 205.934 138.915 206.101 138.301 206.715C137.686 207.33 137.519 208.161 137.929 208.571C138.339 208.98 139.17 208.814 139.785 208.199Z" fill="#A1A1A1"/>
        <path d="M150.7 197.284C151.315 196.67 151.481 195.839 151.071 195.429C150.661 195.019 149.831 195.185 149.216 195.8C148.601 196.415 148.435 197.246 148.844 197.656C149.254 198.065 150.085 197.899 150.7 197.284Z" fill="#A1A1A1"/>
        <path d="M143.516 209.727C143.741 208.887 143.47 208.084 142.91 207.934C142.35 207.784 141.714 208.343 141.489 209.183C141.264 210.023 141.535 210.826 142.095 210.976C142.655 211.126 143.291 210.566 143.516 209.727Z" fill="#A1A1A1"/>
        <path d="M147.511 194.816C147.736 193.977 147.465 193.174 146.905 193.024C146.345 192.874 145.709 193.433 145.484 194.273C145.259 195.113 145.53 195.916 146.09 196.066C146.65 196.216 147.286 195.656 147.511 194.816Z" fill="#A1A1A1"/>
        <path d="M146.905 210.975C147.465 210.825 147.736 210.023 147.511 209.183C147.286 208.343 146.65 207.784 146.09 207.934C145.53 208.084 145.259 208.886 145.484 209.726C145.709 210.566 146.345 211.125 146.905 210.975Z" fill="#A1A1A1"/>
        <path d="M142.91 196.065C143.47 195.915 143.741 195.113 143.516 194.273C143.291 193.433 142.655 192.874 142.095 193.024C141.535 193.174 141.264 193.976 141.489 194.816C141.714 195.656 142.35 196.215 142.91 196.065Z" fill="#A1A1A1"/>
        <path d="M140.641 203.049C141.51 203.049 142.215 202.58 142.215 202C142.215 201.421 141.51 200.951 140.641 200.951C139.771 200.951 139.066 201.421 139.066 202C139.066 202.58 139.771 203.049 140.641 203.049Z" fill="#A1A1A1"/>
        <path d="M148.359 203.049C149.229 203.049 149.934 202.58 149.934 202C149.934 201.421 149.229 200.951 148.359 200.951C147.49 200.951 146.785 201.421 146.785 202C146.785 202.58 147.49 203.049 148.359 203.049Z" fill="#A1A1A1"/>
        <path d="M143.479 205.867C143.914 205.114 143.86 204.268 143.358 203.978C142.856 203.689 142.096 204.064 141.662 204.817C141.227 205.57 141.281 206.416 141.783 206.705C142.285 206.995 143.044 206.62 143.479 205.867Z" fill="#A1A1A1"/>
        <path d="M147.338 199.183C147.773 198.429 147.719 197.584 147.217 197.294C146.715 197.005 145.955 197.38 145.521 198.133C145.086 198.886 145.14 199.731 145.642 200.021C146.144 200.311 146.903 199.936 147.338 199.183Z" fill="#A1A1A1"/>
        <path d="M147.217 206.706C147.718 206.416 147.773 205.571 147.338 204.817C146.903 204.064 146.144 203.689 145.642 203.979C145.14 204.269 145.086 205.114 145.521 205.867C145.955 206.62 146.715 206.995 147.217 206.706Z" fill="#A1A1A1"/>
        <path d="M143.358 200.021C143.86 199.731 143.914 198.886 143.479 198.133C143.045 197.38 142.285 197.004 141.783 197.294C141.282 197.584 141.227 198.429 141.662 199.182C142.097 199.935 142.856 200.311 143.358 200.021Z" fill="#A1A1A1"/>
    </g>
    <path d="M1 278H191" stroke="#FF6600" stroke-opacity="0.2" stroke-width="8"/>
    <path d="M20.252 237.078C21.5085 237.078 22.6348 237.277 23.6309 237.674C24.6335 238.071 25.418 238.631 25.9844 239.354C26.5508 240.076 26.834 240.906 26.834 241.844C26.834 242.71 26.6029 243.481 26.1406 244.158C25.6784 244.835 25.0306 245.382 24.1973 245.799C23.3639 246.209 22.4069 246.469 21.3262 246.58V249.812H28.3574V251.59H12.2246V249.812H19.1777V246.58C18.1035 246.469 17.153 246.209 16.3262 245.799C15.4993 245.382 14.8548 244.835 14.3926 244.158C13.9368 243.481 13.709 242.71 13.709 241.844C13.709 240.906 13.9889 240.076 14.5488 239.354C15.1152 238.631 15.8932 238.071 16.8828 237.674C17.8789 237.277 19.002 237.078 20.252 237.078ZM15.8379 241.844C15.8379 242.469 16.0234 243.012 16.3945 243.475C16.7656 243.93 17.2865 244.282 17.957 244.529C18.6276 244.77 19.3926 244.891 20.252 244.891C21.1243 244.891 21.8958 244.77 22.5664 244.529C23.2435 244.282 23.7676 243.93 24.1387 243.475C24.5163 243.012 24.7051 242.469 24.7051 241.844C24.7051 241.238 24.5163 240.708 24.1387 240.252C23.7611 239.796 23.2337 239.448 22.5566 239.207C21.8861 238.96 21.1178 238.836 20.252 238.836C19.3926 238.836 18.6276 238.96 17.957 239.207C17.293 239.448 16.7721 239.796 16.3945 240.252C16.0234 240.708 15.8379 241.238 15.8379 241.844ZM36.502 242.859H32.3809V245.066C33.4486 245.06 34.3893 245.024 35.2031 244.959C36.0169 244.894 36.8535 244.78 37.7129 244.617L37.9277 246.336C36.9642 246.525 36.0137 246.648 35.0762 246.707C34.1387 246.766 32.9277 246.798 31.4434 246.805H30.252V241.277H34.3926V239.148H30.2324V237.449H36.502V242.859ZM32.791 248.035H34.959V251.629H45.0957V253.387H32.791V248.035ZM37.166 240.672H38.9824V236.414H41.0332V248.914H38.9824V242.469H37.166V240.672ZM42.5371 236.102H44.6074V249.363H42.5371V236.102ZM53.4551 241.102C53.4551 242.072 53.6374 243.032 54.002 243.982C54.373 244.926 54.9004 245.776 55.584 246.531C56.2741 247.28 57.0814 247.846 58.0059 248.23L56.8145 249.949C55.7923 249.507 54.9036 248.852 54.1484 247.986C53.3932 247.114 52.8073 246.102 52.3906 244.949C51.974 246.186 51.3848 247.28 50.623 248.23C49.8613 249.181 48.9759 249.897 47.9668 250.379L46.7168 248.68C47.6217 248.263 48.416 247.651 49.0996 246.844C49.7832 246.036 50.3105 245.128 50.6816 244.119C51.0527 243.11 51.2415 242.104 51.248 241.102V239.617H47.3613V237.82H57.3223V239.617H53.4551V241.102ZM59.2949 236.082H61.4824V253.738H59.2949V236.082ZM83.6309 253.758H81.4824V244.227H78.1621V242.469H81.4824V236.082H83.6309V253.758ZM69.627 237.605H77.8887V239.383H71.8145V242.547H77.1855V244.266H71.8145V247.898C73.2402 247.892 74.487 247.856 75.5547 247.791C76.6224 247.726 77.6999 247.605 78.7871 247.43L79.002 249.188C77.7845 249.37 76.5703 249.497 75.3594 249.568C74.1549 249.64 72.7064 249.682 71.0137 249.695H69.627V237.605ZM100.779 253.738H98.6113V236.082H100.779V253.738ZM86.2871 248.719C87.1986 248.315 87.9896 247.742 88.6602 247C89.3307 246.258 89.8418 245.424 90.1934 244.5C90.5449 243.576 90.7207 242.638 90.7207 241.688V240.77H86.834V239.031H90.7207V236.453H92.8691V239.031H96.6777V240.77H92.8887V241.688C92.8822 242.592 93.0579 243.491 93.416 244.383C93.7741 245.275 94.2917 246.079 94.9688 246.795C95.6523 247.511 96.4564 248.061 97.3809 248.445L96.1895 250.105C95.1934 249.682 94.321 249.057 93.5723 248.23C92.8236 247.404 92.2441 246.447 91.834 245.359C91.4303 246.512 90.8509 247.531 90.0957 248.416C89.347 249.295 88.4681 249.956 87.459 250.398L86.2871 248.719ZM112.303 237.059C113.084 237.059 113.781 237.231 114.393 237.576C115.011 237.915 115.493 238.393 115.838 239.012C116.189 239.63 116.365 240.333 116.365 241.121C116.365 241.902 116.189 242.602 115.838 243.221C115.493 243.833 115.011 244.314 114.393 244.666C113.781 245.011 113.084 245.184 112.303 245.184C111.521 245.184 110.822 245.011 110.203 244.666C109.591 244.314 109.113 243.833 108.768 243.221C108.429 242.602 108.26 241.902 108.26 241.121C108.26 240.333 108.429 239.63 108.768 239.012C109.113 238.393 109.591 237.915 110.203 237.576C110.822 237.231 111.521 237.059 112.303 237.059ZM110.213 241.121C110.206 241.577 110.291 241.977 110.467 242.322C110.643 242.661 110.89 242.924 111.209 243.113C111.528 243.296 111.893 243.387 112.303 243.387C112.706 243.387 113.064 243.296 113.377 243.113C113.696 242.924 113.943 242.661 114.119 242.322C114.301 241.977 114.393 241.577 114.393 241.121C114.393 240.652 114.301 240.245 114.119 239.9C113.943 239.549 113.696 239.282 113.377 239.1C113.064 238.911 112.706 238.816 112.303 238.816C111.893 238.816 111.528 238.911 111.209 239.1C110.89 239.282 110.643 239.549 110.467 239.9C110.291 240.245 110.206 240.652 110.213 241.121ZM111.326 246.434H113.475V248.211H121.092V246.434H123.24V253.523H111.326V246.434ZM121.092 251.766V249.93H113.475V251.766H121.092ZM117.381 236.434H119.412V239.891H121.17V236.102H123.24V245.691H121.17V241.688H119.412V245.574H117.381V236.434ZM146.229 245.32H139.275V246.609H144.256V250.75H134.217V251.961H144.744V253.582H132.088V249.266H142.127V248.172H132.068V246.609H137.127V245.32H130.213V243.719H146.229V245.32ZM130.916 241.512C132.055 241.453 133.045 241.32 133.885 241.111C134.731 240.896 135.408 240.623 135.916 240.291C136.424 239.952 136.753 239.572 136.902 239.148H131.756V237.527H137.127V236.043H139.275V237.527H144.686V239.148H139.5C139.643 239.572 139.965 239.952 140.467 240.291C140.975 240.623 141.652 240.896 142.498 241.111C143.351 241.32 144.354 241.453 145.506 241.512L144.861 243.133C143.266 243.035 141.896 242.775 140.75 242.352C139.604 241.928 138.755 241.362 138.201 240.652C137.648 241.362 136.798 241.928 135.652 242.352C134.507 242.775 133.13 243.035 131.521 243.133L130.916 241.512ZM154.139 240.32C154.132 241.408 154.311 242.465 154.676 243.494C155.04 244.523 155.568 245.438 156.258 246.238C156.948 247.039 157.758 247.638 158.689 248.035L157.4 249.773C156.404 249.311 155.535 248.641 154.793 247.762C154.057 246.876 153.481 245.844 153.064 244.666C152.648 245.936 152.059 247.049 151.297 248.006C150.542 248.963 149.64 249.689 148.592 250.184L147.264 248.367C148.221 247.957 149.051 247.339 149.754 246.512C150.457 245.678 150.994 244.725 151.365 243.65C151.736 242.576 151.925 241.466 151.932 240.32V237.508H154.139V240.32ZM159.959 236.082H162.146V253.758H159.959V236.082ZM184.178 253.758H181.99V236.082H184.178V253.758ZM170.057 243.602C170.057 242.358 170.252 241.264 170.643 240.32C171.033 239.376 171.577 238.65 172.273 238.143C172.977 237.628 173.774 237.371 174.666 237.371C175.545 237.371 176.333 237.628 177.029 238.143C177.732 238.65 178.283 239.376 178.68 240.32C179.077 241.264 179.275 242.358 179.275 243.602C179.275 244.858 179.077 245.958 178.68 246.902C178.283 247.846 177.732 248.576 177.029 249.09C176.333 249.598 175.545 249.852 174.666 249.852C173.774 249.852 172.977 249.598 172.273 249.09C171.577 248.576 171.033 247.846 170.643 246.902C170.252 245.958 170.057 244.858 170.057 243.602ZM172.146 243.602C172.146 244.493 172.251 245.262 172.459 245.906C172.674 246.551 172.97 247.042 173.348 247.381C173.725 247.719 174.165 247.892 174.666 247.898C175.161 247.892 175.597 247.719 175.975 247.381C176.352 247.042 176.645 246.551 176.854 245.906C177.062 245.262 177.166 244.493 177.166 243.602C177.166 242.716 177.062 241.954 176.854 241.316C176.645 240.672 176.352 240.18 175.975 239.842C175.597 239.497 175.161 239.324 174.666 239.324C174.165 239.324 173.725 239.497 173.348 239.842C172.97 240.18 172.674 240.672 172.459 241.316C172.251 241.954 172.146 242.716 172.146 243.602ZM201.99 239.734H187.576V237.977H193.729V236.043H195.877V237.977H201.99V239.734ZM186.775 247.488H202.908V249.266H195.877V253.758H193.729V249.266H186.775V247.488ZM188.826 243.523C188.826 242.885 189.064 242.345 189.539 241.902C190.014 241.453 190.698 241.115 191.59 240.887C192.488 240.652 193.559 240.535 194.803 240.535C196.046 240.535 197.114 240.652 198.006 240.887C198.904 241.115 199.591 241.453 200.066 241.902C200.542 242.345 200.779 242.885 200.779 243.523C200.779 244.161 200.542 244.705 200.066 245.154C199.591 245.597 198.904 245.936 198.006 246.17C197.114 246.398 196.046 246.512 194.803 246.512C193.559 246.512 192.488 246.398 191.59 246.17C190.698 245.936 190.014 245.597 189.539 245.154C189.064 244.705 188.826 244.161 188.826 243.523ZM191.092 243.523C191.085 243.973 191.388 244.314 192 244.549C192.618 244.777 193.527 244.891 194.725 244.891C195.975 244.891 196.919 244.777 197.557 244.549C198.201 244.321 198.527 243.979 198.533 243.523C198.527 243.074 198.208 242.736 197.576 242.508C196.945 242.273 196.02 242.156 194.803 242.156C193.579 242.156 192.651 242.273 192.02 242.508C191.395 242.736 191.085 243.074 191.092 243.523ZM223.494 253.758H221.307V236.082H223.494V253.758ZM209.373 243.602C209.373 242.358 209.568 241.264 209.959 240.32C210.35 239.376 210.893 238.65 211.59 238.143C212.293 237.628 213.09 237.371 213.982 237.371C214.861 237.371 215.649 237.628 216.346 238.143C217.049 238.65 217.599 239.376 217.996 240.32C218.393 241.264 218.592 242.358 218.592 243.602C218.592 244.858 218.393 245.958 217.996 246.902C217.599 247.846 217.049 248.576 216.346 249.09C215.649 249.598 214.861 249.852 213.982 249.852C213.09 249.852 212.293 249.598 211.59 249.09C210.893 248.576 210.35 247.846 209.959 246.902C209.568 245.958 209.373 244.858 209.373 243.602ZM211.463 243.602C211.463 244.493 211.567 245.262 211.775 245.906C211.99 246.551 212.286 247.042 212.664 247.381C213.042 247.719 213.481 247.892 213.982 247.898C214.477 247.892 214.913 247.719 215.291 247.381C215.669 247.042 215.962 246.551 216.17 245.906C216.378 245.262 216.482 244.493 216.482 243.602C216.482 242.716 216.378 241.954 216.17 241.316C215.962 240.672 215.669 240.18 215.291 239.842C214.913 239.497 214.477 239.324 213.982 239.324C213.481 239.324 213.042 239.497 212.664 239.842C212.286 240.18 211.99 240.672 211.775 241.316C211.567 241.954 211.463 242.716 211.463 243.602ZM240.877 245.672H238.709V241.043H235.701V239.285H238.709V236.082H240.877V245.672ZM226.756 236.863H234.744V241.512H228.963V243.055C230.512 243.048 231.808 243.012 232.85 242.947C233.898 242.876 234.952 242.742 236.014 242.547L236.209 244.246C235.083 244.441 233.963 244.572 232.85 244.637C231.736 244.702 230.366 244.734 228.738 244.734H228.182H226.775V239.969H232.576V238.504H226.756V236.863ZM228.729 246.57H233.885V245.145H236.053V246.57H241.189V248.211H228.729V246.57ZM229.939 251.238C229.933 250.438 230.363 249.829 231.229 249.412C232.101 248.995 233.344 248.784 234.959 248.777C236.574 248.784 237.817 248.995 238.689 249.412C239.568 249.829 240.005 250.438 239.998 251.238C240.005 252.052 239.568 252.667 238.689 253.084C237.817 253.507 236.574 253.719 234.959 253.719C233.344 253.719 232.101 253.507 231.229 253.084C230.363 252.667 229.933 252.052 229.939 251.238ZM232.049 251.238C232.042 251.57 232.28 251.818 232.762 251.98C233.243 252.137 233.976 252.215 234.959 252.215C235.942 252.215 236.674 252.137 237.156 251.98C237.638 251.818 237.882 251.57 237.889 251.238C237.882 250.932 237.632 250.698 237.137 250.535C236.648 250.372 235.923 250.288 234.959 250.281C233.989 250.288 233.26 250.372 232.771 250.535C232.283 250.698 232.042 250.932 232.049 251.238ZM258.611 253.738H256.541V236.082H258.611V253.738ZM243.24 248.465C245.031 247.404 246.378 246.18 247.283 244.793C248.195 243.406 248.735 241.805 248.904 239.988H244.139V238.23H251.053C251.053 239.988 250.822 241.59 250.359 243.035H252.811V236.512H254.861V252.898H252.811V244.773H249.646C248.579 246.883 246.854 248.628 244.471 250.008L243.24 248.465ZM277.107 244.676H274.49V253.699H272.322V236.082H274.49V242.898H277.107V244.676ZM261.287 237.801H263.436V247.547C266.105 247.501 268.611 247.234 270.955 246.746L271.189 248.582C269.803 248.862 268.419 249.057 267.039 249.168C265.659 249.279 264.236 249.337 262.771 249.344H261.287V237.801ZM202.068 266.633H193.416V264.895H196.697V262.59H198.846V264.895H202.068V266.633ZM193.924 271.672C193.917 270.884 194.077 270.178 194.402 269.553C194.734 268.928 195.193 268.443 195.779 268.098C196.372 267.746 197.036 267.57 197.771 267.57C198.514 267.57 199.174 267.746 199.754 268.098C200.34 268.443 200.796 268.928 201.121 269.553C201.453 270.178 201.619 270.884 201.619 271.672C201.619 272.479 201.453 273.199 201.121 273.83C200.796 274.462 200.34 274.953 199.754 275.305C199.174 275.656 198.514 275.832 197.771 275.832C197.036 275.832 196.372 275.656 195.779 275.305C195.193 274.953 194.734 274.462 194.402 273.83C194.077 273.199 193.917 272.479 193.924 271.672ZM195.838 271.672C195.838 272.141 195.916 272.551 196.072 272.902C196.235 273.247 196.463 273.514 196.756 273.703C197.055 273.885 197.394 273.977 197.771 273.977C198.149 273.977 198.484 273.885 198.777 273.703C199.07 273.514 199.298 273.247 199.461 272.902C199.624 272.551 199.705 272.141 199.705 271.672C199.705 271.216 199.624 270.816 199.461 270.471C199.298 270.119 199.07 269.849 198.777 269.66C198.484 269.465 198.149 269.367 197.771 269.367C197.394 269.367 197.059 269.465 196.766 269.66C196.473 269.849 196.245 270.119 196.082 270.471C195.919 270.816 195.838 271.216 195.838 271.672ZM202.811 262.453H204.842V269.348H206.561V262.082H208.631V279.738H206.561V271.105H204.842V278.938H202.811V262.453ZM231.58 273.684H224.568V279.719H222.42V273.684H215.486V271.926H231.58V273.684ZM216.326 269.035C217.452 268.892 218.455 268.609 219.334 268.186C220.219 267.762 220.916 267.255 221.424 266.662C221.938 266.063 222.221 265.441 222.273 264.797H216.971V263.078H230.096V264.797H224.793C224.845 265.441 225.122 266.063 225.623 266.662C226.131 267.255 226.827 267.762 227.713 268.186C228.598 268.609 229.607 268.892 230.74 269.035L229.959 270.734C228.462 270.52 227.15 270.087 226.023 269.436C224.904 268.785 224.074 267.98 223.533 267.023C222.986 267.98 222.156 268.785 221.043 269.436C219.93 270.087 218.631 270.52 217.146 270.734L216.326 269.035ZM247.557 272.316H245.389V269.094H242.264V267.355H245.389V265.734H242.264V263.977H245.389V262.082H247.557V272.316ZM232.693 270.539C233.624 270.201 234.412 269.722 235.057 269.104C235.701 268.479 236.183 267.769 236.502 266.975C236.827 266.174 236.99 265.331 236.99 264.445V262.727H239.178V264.445C239.171 265.266 239.324 266.063 239.637 266.838C239.949 267.606 240.415 268.293 241.033 268.898C241.658 269.504 242.413 269.966 243.299 270.285L242.049 272.004C241.137 271.646 240.346 271.132 239.676 270.461C239.012 269.784 238.488 268.996 238.104 268.098C237.706 269.061 237.156 269.901 236.453 270.617C235.75 271.333 234.907 271.88 233.924 272.258L232.693 270.539ZM233.729 277.883C234.464 277.629 235.086 277.274 235.594 276.818C236.102 276.363 236.482 275.852 236.736 275.285C236.99 274.712 237.12 274.126 237.127 273.527V272.941H239.236V273.527C239.223 274.309 239.399 275.057 239.764 275.773C240.128 276.483 240.678 277.079 241.414 277.561C242.137 277.059 242.687 276.444 243.064 275.715C243.442 274.979 243.637 274.25 243.65 273.527V272.941H245.779V273.527C245.773 274.159 245.893 274.761 246.141 275.334C246.395 275.907 246.779 276.415 247.293 276.857C247.814 277.3 248.455 277.642 249.217 277.883L248.123 279.504C247.283 279.211 246.577 278.794 246.004 278.254C245.431 277.714 244.988 277.076 244.676 276.34C244.363 277.082 243.937 277.74 243.396 278.312C242.856 278.885 242.199 279.328 241.424 279.641C240.63 279.348 239.959 278.918 239.412 278.352C238.872 277.792 238.452 277.141 238.152 276.398C237.827 277.102 237.381 277.72 236.814 278.254C236.248 278.794 235.571 279.211 234.783 279.504L233.729 277.883ZM254.881 263.371C255.669 263.371 256.382 263.583 257.02 264.006C257.658 264.429 258.178 265.035 258.582 265.822C258.986 266.604 259.24 267.525 259.344 268.586H262.713V262.082H264.861V279.758H262.713V270.344H259.363C259.285 271.464 259.048 272.44 258.65 273.273C258.253 274.1 257.729 274.738 257.078 275.188C256.427 275.63 255.695 275.852 254.881 275.852C253.995 275.852 253.208 275.598 252.518 275.09C251.834 274.576 251.3 273.846 250.916 272.902C250.538 271.958 250.35 270.858 250.35 269.602C250.35 268.352 250.538 267.258 250.916 266.32C251.3 265.376 251.837 264.65 252.527 264.143C253.217 263.628 254.002 263.371 254.881 263.371ZM252.439 269.602C252.439 270.493 252.54 271.262 252.742 271.906C252.944 272.551 253.227 273.042 253.592 273.381C253.963 273.719 254.393 273.892 254.881 273.898C255.369 273.892 255.799 273.719 256.17 273.381C256.541 273.042 256.827 272.551 257.029 271.906C257.238 271.262 257.342 270.493 257.342 269.602C257.342 268.716 257.238 267.951 257.029 267.307C256.827 266.662 256.541 266.171 256.17 265.832C255.799 265.493 255.369 265.324 254.881 265.324C254.393 265.324 253.963 265.497 253.592 265.842C253.227 266.18 252.944 266.672 252.742 267.316C252.54 267.954 252.439 268.716 252.439 269.602ZM283.475 277.59H267.342V275.812H271.072V271.35C270.356 270.939 269.799 270.422 269.402 269.797C269.012 269.172 268.82 268.475 268.826 267.707C268.826 266.783 269.103 265.969 269.656 265.266C270.216 264.556 270.994 264.009 271.99 263.625C272.986 263.234 274.113 263.039 275.369 263.039C276.632 263.039 277.762 263.234 278.758 263.625C279.76 264.009 280.542 264.556 281.102 265.266C281.668 265.969 281.951 266.783 281.951 267.707C281.958 268.462 281.769 269.146 281.385 269.758C281.001 270.37 280.46 270.884 279.764 271.301V275.812H283.475V277.59ZM270.955 267.707C270.955 268.299 271.137 268.82 271.502 269.27C271.873 269.712 272.391 270.054 273.055 270.295C273.725 270.536 274.497 270.656 275.369 270.656C276.242 270.656 277.013 270.536 277.684 270.295C278.361 270.054 278.885 269.712 279.256 269.27C279.633 268.82 279.822 268.299 279.822 267.707C279.822 267.108 279.633 266.584 279.256 266.135C278.885 265.686 278.361 265.344 277.684 265.109C277.013 264.875 276.242 264.758 275.369 264.758C274.49 264.758 273.715 264.875 273.045 265.109C272.381 265.344 271.867 265.686 271.502 266.135C271.137 266.577 270.955 267.102 270.955 267.707ZM277.557 275.812V272.131C276.867 272.281 276.137 272.355 275.369 272.355C274.633 272.355 273.917 272.284 273.221 272.141V275.812H277.557ZM286.775 278.156C286.502 278.156 286.248 278.088 286.014 277.951C285.779 277.814 285.594 277.629 285.457 277.395C285.32 277.16 285.252 276.906 285.252 276.633C285.252 276.366 285.32 276.118 285.457 275.891C285.594 275.656 285.779 275.471 286.014 275.334C286.248 275.197 286.502 275.129 286.775 275.129C287.042 275.129 287.29 275.197 287.518 275.334C287.752 275.471 287.938 275.656 288.074 275.891C288.211 276.118 288.279 276.366 288.279 276.633C288.279 276.906 288.211 277.16 288.074 277.395C287.938 277.629 287.752 277.814 287.518 277.951C287.29 278.088 287.042 278.156 286.775 278.156Z" fill="#202020"/>
    <path d="M14.0215 265.891H16.4824V267.688H14.0215V270.969H11.8535V262.082H14.0215V265.891ZM0.701172 263.215H9.06055V270.5H0.701172V263.215ZM1.77539 272.473H3.9043V277.482C5.05664 277.417 6.07878 277.238 6.9707 276.945L7.2832 278.645C6.57357 278.892 5.85742 279.055 5.13477 279.133C4.41211 279.217 3.60482 279.257 2.71289 279.25H1.77539V272.473ZM6.93164 268.801V264.914H2.83008V268.801H6.93164ZM6.67773 272.668H10.0762V271.281H12.2051V272.668H15.5645V274.23H6.67773V272.668ZM7.75195 277.238C7.74544 276.73 7.88216 276.291 8.16211 275.92C8.44206 275.542 8.83594 275.256 9.34375 275.061C9.85807 274.859 10.4473 274.758 11.1113 274.758C11.7689 274.758 12.3516 274.859 12.8594 275.061C13.3737 275.256 13.7741 275.542 14.0605 275.92C14.347 276.291 14.4902 276.73 14.4902 277.238C14.4902 277.733 14.347 278.166 14.0605 278.537C13.7741 278.908 13.3737 279.195 12.8594 279.396C12.3516 279.598 11.7689 279.699 11.1113 279.699C10.4408 279.699 9.85156 279.598 9.34375 279.396C8.83594 279.195 8.44206 278.908 8.16211 278.537C7.88216 278.166 7.74544 277.733 7.75195 277.238ZM9.68555 277.219C9.68555 277.538 9.81576 277.788 10.0762 277.971C10.3366 278.146 10.6816 278.234 11.1113 278.234C11.5345 278.234 11.8763 278.146 12.1367 277.971C12.4036 277.795 12.5371 277.551 12.5371 277.238C12.5371 276.926 12.4069 276.682 12.1465 276.506C11.8861 276.33 11.541 276.242 11.1113 276.242C10.6882 276.242 10.3431 276.33 10.0762 276.506C9.81576 276.675 9.68555 276.913 9.68555 277.219ZM33.4746 272.941H17.3809V271.203H33.4746V272.941ZM19.041 266.223C19.041 265.487 19.3014 264.849 19.8223 264.309C20.3496 263.768 21.0918 263.358 22.0488 263.078C23.0059 262.792 24.1257 262.648 25.4082 262.648C26.6842 262.648 27.8008 262.792 28.7578 263.078C29.7214 263.358 30.4635 263.768 30.9844 264.309C31.5117 264.849 31.7754 265.487 31.7754 266.223C31.7754 266.965 31.5117 267.609 30.9844 268.156C30.4635 268.697 29.7214 269.113 28.7578 269.406C27.8008 269.693 26.6842 269.836 25.4082 269.836C24.1257 269.836 23.0059 269.693 22.0488 269.406C21.0918 269.113 20.3496 268.697 19.8223 268.156C19.3014 267.609 19.041 266.965 19.041 266.223ZM19.373 274.25H21.541V277.629H31.6582V279.387H19.373V274.25ZM21.3066 266.223C21.3001 266.815 21.6517 267.271 22.3613 267.59C23.0775 267.902 24.0736 268.059 25.3496 268.059C26.6777 268.059 27.7064 267.902 28.4355 267.59C29.1647 267.277 29.5293 266.822 29.5293 266.223C29.5293 265.643 29.1647 265.194 28.4355 264.875C27.7129 264.549 26.7038 264.387 25.4082 264.387C24.5553 264.387 23.8197 264.458 23.2012 264.602C22.5827 264.745 22.1107 264.956 21.7852 265.236C21.4596 265.51 21.3001 265.839 21.3066 266.223ZM40.1348 263.859H49.1973V265.988H42.6738V269.855H48.5723V271.984H42.6738V278H40.1348V263.859ZM51.3457 263.859H56.6582C57.7129 263.859 58.6113 264.058 59.3535 264.455C60.1022 264.852 60.6686 265.406 61.0527 266.115C61.4368 266.818 61.6322 267.629 61.6387 268.547C61.6322 269.458 61.4336 270.266 61.043 270.969C60.6589 271.672 60.0892 272.222 59.334 272.619C58.5853 273.016 57.6803 273.215 56.6191 273.215H53.8848V278H51.3457V263.859ZM56.2676 271.125C57.1921 271.118 57.8854 270.884 58.3477 270.422C58.8099 269.953 59.041 269.328 59.041 268.547C59.041 267.759 58.8099 267.137 58.3477 266.682C57.8854 266.219 57.1921 265.988 56.2676 265.988H53.8848V271.125H56.2676ZM77.6348 272.023H75.4863V262.082H77.6348V272.023ZM64.002 263.117H66.1895V269.172C67.6152 269.159 68.9401 269.094 70.1641 268.977C71.388 268.859 72.6087 268.671 73.8262 268.41L74.0996 270.207C72.7389 270.487 71.3717 270.689 69.998 270.812C68.6309 270.93 67.1335 270.995 65.5059 271.008H64.002V263.117ZM65.9746 272.785H77.6348V279.504H65.9746V272.785ZM75.5254 277.785V274.484H68.1035V277.785H75.5254ZM96.3652 270.871H80.252V269.152H96.3652V270.871ZM82.1465 272.082H94.334V276.516H84.2949V277.863H94.8223V279.562H82.166V274.953H92.2051V273.723H82.1465V272.082ZM82.3027 262.531H94.2949V264.27H84.4707V266.301H94.4512V268.02H82.3027V262.531ZM112.225 279.758H110.037V262.082H112.225V279.758ZM98.1035 269.602C98.1035 268.358 98.2988 267.264 98.6895 266.32C99.0801 265.376 99.6237 264.65 100.32 264.143C101.023 263.628 101.821 263.371 102.713 263.371C103.592 263.371 104.38 263.628 105.076 264.143C105.779 264.65 106.329 265.376 106.727 266.32C107.124 267.264 107.322 268.358 107.322 269.602C107.322 270.858 107.124 271.958 106.727 272.902C106.329 273.846 105.779 274.576 105.076 275.09C104.38 275.598 103.592 275.852 102.713 275.852C101.821 275.852 101.023 275.598 100.32 275.09C99.6237 274.576 99.0801 273.846 98.6895 272.902C98.2988 271.958 98.1035 270.858 98.1035 269.602ZM100.193 269.602C100.193 270.493 100.298 271.262 100.506 271.906C100.721 272.551 101.017 273.042 101.395 273.381C101.772 273.719 102.212 273.892 102.713 273.898C103.208 273.892 103.644 273.719 104.021 273.381C104.399 273.042 104.692 272.551 104.9 271.906C105.109 271.262 105.213 270.493 105.213 269.602C105.213 268.716 105.109 267.954 104.9 267.316C104.692 266.672 104.399 266.18 104.021 265.842C103.644 265.497 103.208 265.324 102.713 265.324C102.212 265.324 101.772 265.497 101.395 265.842C101.017 266.18 100.721 266.672 100.506 267.316C100.298 267.954 100.193 268.716 100.193 269.602ZM123.729 263.059C124.51 263.059 125.206 263.231 125.818 263.576C126.437 263.915 126.919 264.393 127.264 265.012C127.615 265.63 127.791 266.333 127.791 267.121C127.791 267.902 127.615 268.602 127.264 269.221C126.919 269.833 126.437 270.314 125.818 270.666C125.206 271.011 124.51 271.184 123.729 271.184C122.947 271.184 122.247 271.011 121.629 270.666C121.017 270.314 120.538 269.833 120.193 269.221C119.855 268.602 119.686 267.902 119.686 267.121C119.686 266.333 119.855 265.63 120.193 265.012C120.538 264.393 121.017 263.915 121.629 263.576C122.247 263.231 122.947 263.059 123.729 263.059ZM121.639 267.121C121.632 267.577 121.717 267.977 121.893 268.322C122.068 268.661 122.316 268.924 122.635 269.113C122.954 269.296 123.318 269.387 123.729 269.387C124.132 269.387 124.49 269.296 124.803 269.113C125.122 268.924 125.369 268.661 125.545 268.322C125.727 267.977 125.818 267.577 125.818 267.121C125.818 266.652 125.727 266.245 125.545 265.9C125.369 265.549 125.122 265.282 124.803 265.1C124.49 264.911 124.132 264.816 123.729 264.816C123.318 264.816 122.954 264.911 122.635 265.1C122.316 265.282 122.068 265.549 121.893 265.9C121.717 266.245 121.632 266.652 121.639 267.121ZM122.752 272.434H124.9V274.211H132.518V272.434H134.666V279.523H122.752V272.434ZM132.518 277.766V275.93H124.9V277.766H132.518ZM128.807 262.434H130.838V265.891H132.596V262.102H134.666V271.691H132.596V267.688H130.838V271.574H128.807V262.434ZM144.881 262.355C146.222 262.355 147.368 262.473 148.318 262.707C149.269 262.941 149.995 263.286 150.496 263.742C150.997 264.191 151.248 264.738 151.248 265.383C151.248 266.034 150.997 266.587 150.496 267.043C149.995 267.499 149.269 267.844 148.318 268.078C147.368 268.306 146.222 268.423 144.881 268.43C143.54 268.423 142.394 268.306 141.443 268.078C140.493 267.844 139.767 267.499 139.266 267.043C138.764 266.587 138.514 266.034 138.514 265.383C138.514 264.738 138.764 264.191 139.266 263.742C139.767 263.286 140.493 262.945 141.443 262.717C142.394 262.482 143.54 262.362 144.881 262.355ZM136.854 269.367H152.947V271.105H136.854V269.367ZM138.748 272.297H150.936V276.613H140.896V277.922H151.424V279.582H138.768V275.07H148.807V273.898H138.748V272.297ZM140.799 265.383C140.792 265.865 141.131 266.223 141.814 266.457C142.498 266.691 143.52 266.809 144.881 266.809C146.255 266.809 147.283 266.691 147.967 266.457C148.657 266.223 149.002 265.865 149.002 265.383C149.002 264.927 148.65 264.576 147.947 264.328C147.251 264.081 146.229 263.957 144.881 263.957C143.546 263.957 142.531 264.081 141.834 264.328C141.137 264.576 140.792 264.927 140.799 265.383ZM173.572 279.758H171.385V262.082H173.572V279.758ZM159.451 269.602C159.451 268.358 159.646 267.264 160.037 266.32C160.428 265.376 160.971 264.65 161.668 264.143C162.371 263.628 163.169 263.371 164.061 263.371C164.939 263.371 165.727 263.628 166.424 264.143C167.127 264.65 167.677 265.376 168.074 266.32C168.471 267.264 168.67 268.358 168.67 269.602C168.67 270.858 168.471 271.958 168.074 272.902C167.677 273.846 167.127 274.576 166.424 275.09C165.727 275.598 164.939 275.852 164.061 275.852C163.169 275.852 162.371 275.598 161.668 275.09C160.971 274.576 160.428 273.846 160.037 272.902C159.646 271.958 159.451 270.858 159.451 269.602ZM161.541 269.602C161.541 270.493 161.645 271.262 161.854 271.906C162.068 272.551 162.365 273.042 162.742 273.381C163.12 273.719 163.559 273.892 164.061 273.898C164.555 273.892 164.992 273.719 165.369 273.381C165.747 273.042 166.04 272.551 166.248 271.906C166.456 271.262 166.561 270.493 166.561 269.602C166.561 268.716 166.456 267.954 166.248 267.316C166.04 266.672 165.747 266.18 165.369 265.842C164.992 265.497 164.555 265.324 164.061 265.324C163.559 265.324 163.12 265.497 162.742 265.842C162.365 266.18 162.068 266.672 161.854 267.316C161.645 267.954 161.541 268.716 161.541 269.602ZM192.264 272.316H176.17V270.578H179.92V268.342C179.243 268.055 178.725 267.694 178.367 267.258C178.009 266.815 177.83 266.307 177.83 265.734C177.83 265.038 178.087 264.439 178.602 263.938C179.122 263.43 179.861 263.042 180.818 262.775C181.775 262.508 182.902 262.375 184.197 262.375C185.493 262.375 186.616 262.508 187.566 262.775C188.523 263.042 189.262 263.43 189.783 263.938C190.304 264.439 190.564 265.038 190.564 265.734C190.558 266.307 190.372 266.815 190.008 267.258C189.65 267.701 189.132 268.062 188.455 268.342V270.578H192.264V272.316ZM178.045 276.535C178.045 275.865 178.289 275.295 178.777 274.826C179.266 274.351 179.969 273.993 180.887 273.752C181.811 273.505 182.915 273.384 184.197 273.391C185.46 273.384 186.548 273.505 187.459 273.752C188.377 273.993 189.08 274.351 189.568 274.826C190.063 275.295 190.311 275.865 190.311 276.535C190.311 277.212 190.066 277.785 189.578 278.254C189.09 278.729 188.387 279.087 187.469 279.328C186.557 279.576 185.467 279.699 184.197 279.699C182.908 279.699 181.805 279.576 180.887 279.328C179.969 279.087 179.266 278.729 178.777 278.254C178.289 277.785 178.045 277.212 178.045 276.535ZM180.096 265.734C180.089 266.262 180.434 266.669 181.131 266.955C181.834 267.235 182.833 267.375 184.129 267.375C185.47 267.375 186.502 267.235 187.225 266.955C187.954 266.675 188.318 266.268 188.318 265.734C188.318 265.201 187.96 264.787 187.244 264.494C186.535 264.201 185.538 264.055 184.256 264.055C182.921 264.055 181.893 264.201 181.17 264.494C180.447 264.781 180.089 265.194 180.096 265.734ZM180.252 276.535C180.245 277.03 180.574 277.408 181.238 277.668C181.902 277.928 182.866 278.059 184.129 278.059C185.424 278.059 186.414 277.932 187.098 277.678C187.788 277.417 188.136 277.036 188.143 276.535C188.136 276.047 187.794 275.676 187.117 275.422C186.44 275.168 185.467 275.038 184.197 275.031C182.908 275.038 181.925 275.168 181.248 275.422C180.577 275.676 180.245 276.047 180.252 276.535ZM186.287 270.578V268.898C185.63 268.99 184.933 269.035 184.197 269.035C183.462 269.035 182.765 268.99 182.107 268.898V270.578H186.287Z" fill="#F5381F"/>
    <g clip-path="url(#clip1_2476_6377)">
        <path d="M178.768 24.7206L183.331 23.5C187.021 22.513 189.827 19.5097 190.561 15.7608L192.074 8.03121L193.744 15.9188C194.52 19.5836 197.279 22.5074 200.892 23.4944L205.382 24.7206L200.478 26.2724C197.09 27.3444 194.525 30.1337 193.741 33.5995L192.074 40.9651L190.567 33.7646C189.823 30.2088 187.209 27.3364 183.739 26.2611L178.768 24.7206Z" fill="#FF6600"/>
        <path d="M198.724 17.0337L200.115 16.6615C201.098 16.3988 201.844 15.5995 202.04 14.6017L202.488 12.3132L202.981 14.6438C203.187 15.6191 203.922 16.3973 204.883 16.66L206.252 17.0337L204.773 17.5015C203.871 17.7868 203.189 18.5291 202.98 19.4515L202.488 21.6283L202.041 19.4955C201.843 18.5491 201.148 17.7846 200.224 17.4985L198.724 17.0337Z" fill="#F15D49" fill-opacity="0.4"/>
        <path d="M197.564 36.4361L199.949 35.798C201.633 35.3477 202.913 33.9775 203.248 32.267L204.016 28.3438L204.861 32.3391C205.215 34.0112 206.474 35.3452 208.123 35.7955L210.468 36.436L207.934 37.238C206.388 37.7271 205.218 38.9997 204.86 40.581L204.016 44.3126L203.25 40.6563C202.911 39.034 201.718 37.7235 200.135 37.2329L197.564 36.4361Z" fill="#FF6600" fill-opacity="0.6"/>
        <g filter="url(#filter0_d_2476_6377)">
            <path fill-rule="evenodd" clip-rule="evenodd" d="M143.328 2.04101L103.895 14.1152L122.006 73.265L156.838 62.5994L154.424 54.7128L162.31 52.2979L147.62 4.32092C147.064 2.50606 145.143 1.48531 143.328 2.04101Z" fill="white"/>
            <path d="M154.423 54.7129L162.309 52.298L156.838 62.5995L154.423 54.7129Z" fill="#FBB7A3"/>
            <path fill-rule="evenodd" clip-rule="evenodd" d="M104.962 19.9492L148.338 6.66757L148.741 7.98201L105.364 21.2637L104.962 19.9492Z" fill="#FCEAEA"/>
            <path fill-rule="evenodd" clip-rule="evenodd" d="M107.262 27.4609L150.638 14.1793L151.041 15.4937L107.664 28.7754L107.262 27.4609Z" fill="#FCEAEA"/>
            <path fill-rule="evenodd" clip-rule="evenodd" d="M109.851 35.9141L153.227 22.6324L153.63 23.9469L110.253 37.2285L109.851 35.9141Z" fill="#FCEAEA"/>
            <path fill-rule="evenodd" clip-rule="evenodd" d="M112.438 44.3672L155.815 31.0855L156.217 32.4L112.841 45.6816L112.438 44.3672Z" fill="#FCEAEA"/>
            <path fill-rule="evenodd" clip-rule="evenodd" d="M114.74 51.8809L158.117 38.5992L158.519 39.9136L115.143 53.1953L114.74 51.8809Z" fill="#FCEAEA"/>
            <path fill-rule="evenodd" clip-rule="evenodd" d="M117.036 59.3828L160.413 46.1012L160.815 47.4156L117.439 60.6973L117.036 59.3828Z" fill="#FCEAEA"/>
            <path fill-rule="evenodd" clip-rule="evenodd" d="M119.337 66.8945L154.827 56.0277L155.229 57.3422L119.739 68.209L119.337 66.8945Z" fill="#FCEAEA"/>
            <path fill-rule="evenodd" clip-rule="evenodd" d="M93.0706 21.0244C92.5149 19.2095 93.5357 17.2878 95.3505 16.7321L103.894 14.116L122.006 73.2657L113.462 75.8818C111.647 76.4375 109.725 75.4168 109.17 73.6019L107.962 69.6586L111.577 68.5518C112.121 68.3851 112.428 67.8086 112.261 67.2641C112.094 66.7196 111.518 66.4134 110.973 66.5801L107.358 67.6869L106.755 65.7153L110.369 64.6085C110.914 64.4418 111.22 63.8652 111.053 63.3208C110.887 62.7763 110.31 62.4701 109.766 62.6368L106.151 63.7436L101.925 49.942L105.54 48.8352C106.084 48.6685 106.39 48.092 106.224 47.5475C106.057 47.0031 105.481 46.6968 104.936 46.8636L101.321 47.9704L100.718 45.9987L104.332 44.8919C104.877 44.7252 105.183 44.1487 105.016 43.6042C104.85 43.0598 104.273 42.7535 103.729 42.9202L100.114 44.027L96.0892 30.8827L99.7039 29.7759C100.248 29.6091 100.555 29.0326 100.388 28.4882C100.221 27.9437 99.6446 27.6375 99.1002 27.8042L95.4855 28.911L94.8818 26.9393L98.4965 25.8325C99.0409 25.6658 99.3472 25.0893 99.1805 24.5449C99.0137 24.0004 98.4372 23.6942 97.8928 23.8609L94.2781 24.9677L93.0706 21.0244Z" fill="#F46A4E"/>
        </g>
        <path d="M145.293 25.4427C142.077 25.5238 140.755 26.8635 138.799 29.8855C136.111 32.8838 134.583 34.0007 131.84 34.6457C128.196 35.6778 126.19 36.3035 124.418 39.7233C122.832 41.5488 122.246 42.9203 119.315 43.2141" stroke="#202020" stroke-opacity="0.3" stroke-linecap="round"/>
        <path d="M119.986 34.4743C119.312 35.0911 118.891 35.6614 118.722 36.185C118.557 36.6888 118.529 37.0244 118.64 37.1917C118.782 37.4068 119.172 37.3211 119.809 36.9345C120.45 36.5281 120.909 36.534 121.185 36.9523C121.493 37.4184 121.562 37.9649 121.393 38.5918C121.215 39.2068 120.713 39.9932 119.887 40.951C119.683 41.1885 119.489 41.2314 119.303 41.0796C119.124 40.9398 119.097 40.7947 119.221 40.6443C119.852 39.9359 120.279 39.3101 120.504 38.7668C120.729 38.2235 120.755 37.8204 120.581 37.5575C120.431 37.3304 120.013 37.426 119.328 37.8441C118.643 38.2623 118.163 38.2622 117.886 37.8439C117.586 37.3898 117.661 36.7227 118.109 35.8428C118.558 34.9628 119.012 34.3371 119.47 33.9656C119.669 33.7996 119.844 33.8043 119.994 33.9797C120.149 34.1353 120.146 34.3002 119.986 34.4743ZM123.169 31.9344C123.42 31.7686 123.672 31.722 123.926 31.7946C124.184 31.8474 124.404 32.0112 124.585 32.2861C124.949 32.8358 124.92 33.4812 124.5 34.2223C124.079 34.9634 123.6 35.5373 123.062 35.9442C123.307 36.418 123.546 36.6891 123.78 36.7576C124.018 36.8063 124.257 36.7517 124.496 36.5938C124.651 36.4912 124.837 36.2656 125.053 35.9169C125.281 35.5604 125.463 35.1997 125.599 34.8348C125.668 34.6523 125.779 34.6131 125.934 34.717C126.092 34.8011 126.149 34.9523 126.105 35.1706C126.027 35.5477 125.867 35.9283 125.623 36.3126C125.379 36.6969 125.09 36.9996 124.755 37.2206C124.349 37.489 123.953 37.5787 123.568 37.4897C123.183 37.4006 122.803 37.0335 122.429 36.3884C122.238 36.5147 122.045 36.5476 121.85 36.4872C121.648 36.4149 121.515 36.3309 121.452 36.2353C121.365 36.1038 121.423 36.0226 121.626 35.9917C121.841 35.9529 122.01 35.8841 122.133 35.7853C121.906 34.974 121.878 34.229 122.048 33.5504C122.221 32.852 122.595 32.3133 123.169 31.9344ZM123.398 32.6326C123.219 32.751 123.021 33.0878 122.804 33.643C122.591 34.1784 122.575 34.7385 122.755 35.3232C123.134 35.0388 123.485 34.6093 123.809 34.0346C124.134 33.46 124.197 33.0233 124 32.7245C123.921 32.605 123.83 32.545 123.726 32.5446C123.627 32.5243 123.518 32.5536 123.398 32.6326ZM127.06 29.4929C127.299 29.335 127.472 29.3497 127.578 29.5368C127.685 29.724 127.62 29.9124 127.385 30.1021C126.807 30.5525 126.497 31.0835 126.455 31.6951C126.412 32.3066 126.541 32.8395 126.841 33.2936C127.117 33.7119 127.387 33.9633 127.648 34.0479C127.922 34.1245 128.155 34.0997 128.346 33.9734C128.585 33.8155 128.778 33.6018 128.927 33.3323C129.079 33.043 129.172 32.7156 129.205 32.3503C129.23 32.128 129.351 32.0391 129.569 32.0837C129.792 32.1085 129.891 32.2579 129.866 32.5319C129.82 33.0084 129.713 33.4052 129.545 33.7223C129.376 34.0394 129.059 34.3518 128.593 34.6597C128.271 34.8728 127.889 34.9189 127.449 34.7978C127.008 34.6768 126.583 34.3055 126.172 33.6841C125.77 33.0746 125.63 32.343 125.752 31.4895C125.887 30.628 126.323 29.9625 127.06 29.4929ZM128.603 28.6026C128.981 28.3698 129.313 28.2878 129.599 28.3565C129.877 28.4133 130.089 28.591 130.234 28.8896C130.228 28.5161 130.297 28.1529 130.442 27.8C130.578 27.4351 130.722 27.1597 130.874 26.9736C130.998 26.8232 131.149 26.8178 131.327 26.9576C131.497 27.0855 131.528 27.2624 131.42 27.4884C131.104 28.1266 130.94 28.7496 130.929 29.3573C130.931 29.9572 131.163 30.9712 131.626 32.3993C131.724 32.6777 131.639 32.8879 131.373 33.0298C131.114 33.1836 130.953 33.1353 130.891 32.8847C130.515 31.4332 130.186 30.389 129.903 29.7522C129.612 29.1034 129.245 28.9251 128.803 29.2172C128.671 29.304 128.552 29.2538 128.446 29.0667C128.339 28.8795 128.392 28.7248 128.603 28.6026ZM134.163 24.6725C134.414 24.5067 134.666 24.4601 134.92 24.5327C135.178 24.5855 135.398 24.7493 135.58 25.0242C135.943 25.5739 135.914 26.2193 135.494 26.9604C135.074 27.7015 134.594 28.2754 134.056 28.6823C134.301 29.1561 134.54 29.4272 134.774 29.4957C135.012 29.5444 135.251 29.4898 135.49 29.332C135.645 29.2293 135.831 29.0037 136.047 28.655C136.275 28.2985 136.457 27.9378 136.594 27.5729C136.662 27.3904 136.773 27.3512 136.928 27.4551C137.086 27.5392 137.143 27.6904 137.099 27.9087C137.022 28.2858 136.861 28.6664 136.617 29.0507C136.373 29.435 136.084 29.7377 135.749 29.9587C135.343 30.2271 134.947 30.3168 134.562 30.2278C134.177 30.1387 133.798 29.7716 133.423 29.1265C133.232 29.2528 133.039 29.2858 132.844 29.2253C132.642 29.153 132.509 29.069 132.446 28.9734C132.359 28.8419 132.417 28.7607 132.62 28.7298C132.835 28.691 133.004 28.6222 133.128 28.5234C132.901 27.7121 132.872 26.9671 133.042 26.2885C133.215 25.5901 133.589 25.0514 134.163 24.6725ZM134.392 25.3707C134.213 25.4891 134.015 25.8259 133.798 26.3811C133.585 26.9165 133.569 27.4766 133.749 28.0613C134.128 27.7769 134.479 27.3474 134.803 26.7727C135.128 26.1981 135.191 25.7614 134.994 25.4626C134.915 25.3431 134.824 25.2831 134.72 25.2827C134.621 25.2624 134.512 25.2917 134.392 25.3707ZM136.791 22.1124C136.764 21.9415 136.858 21.785 137.073 21.6429C137.289 21.5008 137.416 21.5112 137.455 21.6743C137.513 21.893 137.558 22.0779 137.589 22.229C137.62 22.3801 137.665 22.565 137.724 22.7838C137.864 22.6572 138.025 22.5248 138.208 22.3866C138.396 22.2285 138.581 22.0803 138.764 21.9421C138.984 21.7801 139.142 21.8126 139.241 22.0394C139.343 22.2464 139.311 22.4052 139.143 22.5157C139.024 22.5946 138.835 22.7368 138.575 22.9423C138.328 23.1399 138.121 23.3198 137.953 23.4819C138.138 24.0468 138.33 24.5978 138.53 25.1349C138.743 25.6642 138.969 26.2014 139.209 26.7467C139.276 26.8741 139.339 26.9181 139.399 26.8786C139.471 26.8312 139.546 26.8673 139.625 26.9868C139.696 27.0944 139.699 27.2036 139.635 27.3146C139.591 27.4296 139.509 27.5266 139.39 27.6055C139.27 27.6845 139.131 27.7077 138.972 27.6753C138.826 27.6349 138.717 27.5351 138.646 27.3759C138.414 26.8426 138.186 26.2895 137.962 25.7165C137.75 25.1356 137.544 24.5508 137.344 23.962C137.232 24.0529 137.104 24.1715 136.961 24.3179C136.817 24.4642 136.679 24.6067 136.548 24.7451C136.34 24.9508 136.171 24.9422 136.041 24.7191C135.915 24.4763 135.94 24.2797 136.115 24.1295C136.279 23.9872 136.454 23.837 136.642 23.6789C136.821 23.5089 136.969 23.3685 137.084 23.2577C137.03 23.0708 136.975 22.8838 136.92 22.6969C136.877 22.5021 136.834 22.3072 136.791 22.1124ZM127.139 41.9404C127.202 42.0876 127.257 42.2487 127.304 42.4237C127.343 42.5868 127.393 42.7677 127.456 42.9666C127.502 42.3868 127.624 41.8948 127.82 41.4904C128.008 41.0741 128.228 40.7831 128.479 40.6173C128.67 40.491 128.879 40.4819 129.105 40.5902C129.343 40.6905 129.527 40.9296 129.656 41.3075C129.805 41.7412 130.016 42.2545 130.287 42.8476C130.551 43.4287 130.83 44.0079 131.126 44.5852C131.252 44.828 131.205 45.0304 130.986 45.1924C130.775 45.3663 130.594 45.3138 130.445 45.0351C130.165 44.4818 129.915 43.9603 129.695 43.4707C129.478 42.9613 129.26 42.4102 129.04 41.8174C128.977 41.6701 128.914 41.5745 128.851 41.5305C128.787 41.4866 128.714 41.4922 128.63 41.5475C128.403 41.6975 128.264 42.2014 128.213 43.0592C128.161 43.9171 128.192 44.5488 128.306 44.9545C128.372 45.1852 128.433 45.394 128.488 45.5809C128.555 45.76 128.639 45.9788 128.741 46.2375C128.828 46.4722 128.775 46.6528 128.584 46.7791C128.393 46.9054 128.242 46.859 128.132 46.6401C127.84 46.043 127.547 45.3525 127.253 44.5687C126.958 43.7848 126.717 43.0687 126.529 42.4204C126.47 42.2017 126.539 42.0192 126.734 41.8731C126.921 41.715 127.056 41.7374 127.139 41.9404ZM132.192 38.1392C132.431 37.9814 132.695 37.9269 132.985 37.9758C133.275 38.0247 133.518 38.1985 133.716 38.4973C134.434 39.5849 134.716 40.5832 134.561 41.4922C134.418 42.3934 134.072 43.0255 133.522 43.3886C133.211 43.5939 132.867 43.6838 132.49 43.6583C132.113 43.6329 131.774 43.3931 131.474 42.9389C130.977 42.186 130.774 41.3331 130.865 40.38C130.949 39.4151 131.391 38.6681 132.192 38.1392ZM132.451 38.766C132.26 38.8923 132.077 39.0822 131.901 39.3357C131.717 39.5773 131.715 40.1195 131.894 40.9624C131.925 41.0619 131.899 41.1134 131.816 41.117C131.744 41.1127 131.671 41.0409 131.596 40.9016C131.567 41.1954 131.6 41.4915 131.694 41.7898C131.792 42.0683 131.928 42.339 132.101 42.602C132.228 42.7932 132.392 42.8992 132.594 42.9199C132.809 42.9327 132.97 42.9036 133.078 42.8326C133.532 42.5326 133.796 42.0232 133.871 41.3045C133.949 40.566 133.716 39.7844 133.171 38.9598C133.1 38.8522 132.986 38.7822 132.827 38.7497C132.672 38.6974 132.547 38.7029 132.451 38.766ZM134.809 35.4063C134.782 35.2353 134.876 35.0788 135.091 34.9367C135.306 34.7947 135.433 34.8051 135.472 34.9682C135.531 35.1869 135.576 35.3718 135.607 35.5229C135.638 35.674 135.683 35.8589 135.742 36.0776C135.881 35.9511 136.043 35.8187 136.226 35.6805C136.413 35.5224 136.599 35.3742 136.782 35.2359C137.001 35.074 137.16 35.1064 137.258 35.3333C137.361 35.5403 137.328 35.6991 137.161 35.8096C137.042 35.8885 136.852 36.0307 136.593 36.2362C136.346 36.4338 136.139 36.6136 135.971 36.7758C136.155 37.3407 136.348 37.8917 136.548 38.4288C136.76 38.9581 136.986 39.4953 137.226 40.0406C137.293 40.168 137.357 40.2119 137.417 40.1725C137.488 40.1251 137.564 40.1612 137.643 40.2807C137.714 40.3883 137.717 40.4975 137.653 40.6085C137.609 40.7235 137.527 40.8205 137.408 40.8994C137.288 40.9783 137.149 41.0016 136.99 40.9691C136.843 40.9288 136.734 40.829 136.664 40.6698C136.432 40.1365 136.204 39.5833 135.98 39.0104C135.767 38.4295 135.561 37.8446 135.361 37.2558C135.25 37.3467 135.122 37.4654 134.978 37.6117C134.835 37.7581 134.697 37.9005 134.565 38.039C134.358 38.2447 134.189 38.236 134.059 38.013C133.933 37.7702 133.958 37.5736 134.133 37.4234C134.297 37.2811 134.472 37.1309 134.659 36.9728C134.839 36.8027 134.986 36.6623 135.102 36.5516C135.047 36.3647 134.993 36.1777 134.938 35.9908C134.895 35.796 134.852 35.6011 134.809 35.4063ZM139.988 32.8094C140.239 32.6436 140.491 32.597 140.745 32.6696C141.003 32.7223 141.223 32.8861 141.405 33.161C141.768 33.7108 141.739 34.3562 141.319 35.0972C140.899 35.8383 140.42 36.4123 139.882 36.8192C140.126 37.2929 140.365 37.5641 140.599 37.6326C140.837 37.6813 141.076 37.6267 141.315 37.4688C141.47 37.3662 141.656 37.1405 141.872 36.7919C142.1 36.4353 142.282 36.0746 142.419 35.7097C142.487 35.5273 142.598 35.488 142.753 35.592C142.912 35.6761 142.968 35.8273 142.924 36.0456C142.847 36.4226 142.686 36.8033 142.442 37.1876C142.198 37.5719 141.909 37.8745 141.574 38.0956C141.168 38.364 140.772 38.4537 140.387 38.3646C140.003 38.2756 139.623 37.9085 139.248 37.2634C139.057 37.3897 138.864 37.4226 138.67 37.3622C138.467 37.2898 138.335 37.2058 138.271 37.1102C138.185 36.9788 138.243 36.8976 138.445 36.8667C138.66 36.8278 138.829 36.7591 138.953 36.6603C138.726 35.8489 138.697 35.1039 138.867 34.4254C139.041 33.727 139.414 33.1883 139.988 32.8094ZM140.217 33.5075C140.038 33.6259 139.84 33.9628 139.623 34.518C139.41 35.0534 139.394 35.6134 139.574 36.1981C139.953 35.9137 140.304 35.4842 140.629 34.9096C140.953 34.3349 141.016 33.8982 140.819 33.5995C140.74 33.48 140.649 33.42 140.546 33.4195C140.446 33.3993 140.337 33.4286 140.217 33.5075Z" fill="black" fill-opacity="0.6"/>
        <g filter="url(#filter1_d_2476_6377)">
            <path d="M164.783 78.9997C168.097 78.9997 170.783 77.6759 170.783 76.0428C170.783 74.4098 168.097 73.0859 164.783 73.0859C161.469 73.0859 158.783 74.4098 158.783 76.0428C158.783 77.6759 161.469 78.9997 164.783 78.9997Z" fill="#085784"/>
            <path d="M180.526 43.6555C180.526 34.3747 172.489 26.9659 162.996 28.0177C155.793 28.8115 149.985 34.5996 149.158 41.7967C148.695 45.8252 149.76 49.5891 151.837 52.5923C154.576 56.5414 156.706 60.8809 157.817 65.5577L158.677 69.1562H170.895L171.755 65.551C172.826 61.0595 174.652 56.7399 177.41 53.0355C179.362 50.416 180.52 47.168 180.52 43.6422L180.526 43.6555Z" fill="#FFC70F"/>
            <path d="M166.907 64.5315H162.68L161.47 47.4648H168.111L166.907 64.5315Z" fill="#FFC70F" stroke="#242424" stroke-width="1.75" stroke-linecap="round" stroke-linejoin="round"/>
            <path d="M159.617 43.7617C160.642 43.7617 161.469 44.5886 161.469 45.6139V47.4661H159.617C158.592 47.4661 157.765 46.6392 157.765 45.6139C157.765 44.5886 158.592 43.7617 159.617 43.7617Z" fill="#FFC70F" stroke="#242424" stroke-width="1.75" stroke-linecap="round" stroke-linejoin="round"/>
            <path d="M171.82 45.6139C171.82 46.6392 170.993 47.4661 169.968 47.4661H168.116V45.6139C168.116 44.5886 168.943 43.7617 169.968 43.7617C170.993 43.7617 171.82 44.5886 171.82 45.6139Z" fill="#FFC70F" stroke="#242424" stroke-width="1.75" stroke-linecap="round" stroke-linejoin="round"/>
            <path d="M172.198 63.4883H157.373C156.267 63.4883 155.369 64.3857 155.369 65.4926V65.4992C155.369 66.6062 156.267 67.5036 157.373 67.5036H172.198C173.305 67.5036 174.202 66.6062 174.202 65.4992V65.4926C174.202 64.3857 173.305 63.4883 172.198 63.4883Z" fill="#48B6DF"/>
            <path d="M172.198 67.4961H157.373C156.267 67.4961 155.369 68.3935 155.369 69.5004V69.507C155.369 70.614 156.267 71.5114 157.373 71.5114H172.198C173.305 71.5114 174.202 70.614 174.202 69.507V69.5004C174.202 68.3935 173.305 67.4961 172.198 67.4961Z" fill="#0D90C1"/>
            <path d="M172.198 71.5117H157.373C156.267 71.5117 155.369 72.4091 155.369 73.5161V73.5227C155.369 74.6296 156.267 75.527 157.373 75.527H172.198C173.305 75.527 174.202 74.6296 174.202 73.5227V73.5161C174.202 72.4091 173.305 71.5117 172.198 71.5117Z" fill="#48B6DF"/>
        </g>
    </g>
    <defs>
        <filter id="filter0_d_2476_6377" x="88.9191" y="-2.11035" width="79.3911" height="84.1436" filterUnits="userSpaceOnUse" color-interpolation-filters="sRGB">
            <feFlood flood-opacity="0" result="BackgroundImageFix"/>
            <feColorMatrix in="SourceAlpha" type="matrix" values="0 0 0 0 0 0 0 0 0 0 0 0 0 0 0 0 0 0 127 0" result="hardAlpha"/>
            <feOffset dx="1" dy="1"/>
            <feGaussianBlur stdDeviation="2.5"/>
            <feComposite in2="hardAlpha" operator="out"/>
            <feColorMatrix type="matrix" values="0 0 0 0 0.4625 0 0 0 0 0.0346875 0 0 0 0 0.0346875 0 0 0 0.2 0"/>
            <feBlend mode="normal" in2="BackgroundImageFix" result="effect1_dropShadow_2476_6377"/>
            <feBlend mode="normal" in="SourceGraphic" in2="effect1_dropShadow_2476_6377" result="shape"/>
        </filter>
        <filter id="filter1_d_2476_6377" x="145.051" y="23.918" width="43.4753" height="63.0815" filterUnits="userSpaceOnUse" color-interpolation-filters="sRGB">
            <feFlood flood-opacity="0" result="BackgroundImageFix"/>
            <feColorMatrix in="SourceAlpha" type="matrix" values="0 0 0 0 0 0 0 0 0 0 0 0 0 0 0 0 0 0 127 0" result="hardAlpha"/>
            <feOffset dx="2" dy="2"/>
            <feGaussianBlur stdDeviation="3"/>
            <feComposite in2="hardAlpha" operator="out"/>
            <feColorMatrix type="matrix" values="0 0 0 0 0.462745 0 0 0 0 0.0352941 0 0 0 0 0.0352941 0 0 0 0.2 0"/>
            <feBlend mode="normal" in2="BackgroundImageFix" result="effect1_dropShadow_2476_6377"/>
            <feBlend mode="normal" in="SourceGraphic" in2="effect1_dropShadow_2476_6377" result="shape"/>
        </filter>
        <clipPath id="clip0_2476_6377">
            <rect width="18" height="18" fill="white" transform="translate(135.5 193)"/>
        </clipPath>
        <clipPath id="clip1_2476_6377">
            <rect width="162" height="87" fill="white" transform="translate(63)"/>
        </clipPath>
    </defs>
</svg>
