<svg width="40" height="40" viewBox="0 0 40 40" fill="none" xmlns="http://www.w3.org/2000/svg">
    <circle cx="20" cy="20" r="20" fill="#72C7CC"/>
    <path d="M18.8213 29.5C18.3161 29.5 17.8386 29.3936 17.3886 29.1807C16.9386 28.9679 16.5623 28.6621 16.2597 28.2634L11.1655 21.6654L11.5348 21.2711C11.7847 21.0045 12.0838 20.8442 12.4318 20.7904C12.7799 20.7365 13.1059 20.8026 13.4097 20.9884L15.8463 22.2962V14.3846C15.8463 14.1721 15.9182 13.994 16.062 13.8503C16.2058 13.7065 16.384 13.6346 16.5966 13.6346C16.8092 13.6346 16.9898 13.7065 17.1386 13.8503C17.2873 13.994 17.3616 14.1721 17.3616 14.3846V24.9442L14.3597 23.3096L17.4789 27.375C17.643 27.5814 17.8431 27.7372 18.079 27.8423C18.3149 27.9474 18.5623 28 18.8213 28H23.7405C24.3674 28 24.9007 27.7817 25.3405 27.3452C25.7802 26.9086 26.0001 26.3769 26.0001 25.75V21.9808C26.0001 21.6375 25.884 21.3497 25.6518 21.1175C25.4196 20.8853 25.1318 20.7692 24.7886 20.7692H19.7463V19.2692H24.7886C25.5418 19.2692 26.182 19.5329 26.7092 20.0601C27.2365 20.5873 27.5001 21.2276 27.5001 21.9808V25.7493C27.5001 26.7857 27.1319 27.6698 26.3957 28.4019C25.6594 29.1339 24.7744 29.5 23.7405 29.5H18.8213ZM12.704 16.6346C12.5065 16.3 12.3559 15.9422 12.2521 15.5612C12.1482 15.1802 12.0963 14.788 12.0963 14.3846C12.0963 13.1359 12.5341 12.0738 13.4098 11.1981C14.2854 10.3225 15.3476 9.88467 16.5963 9.88467C17.845 9.88467 18.9071 10.3225 19.7828 11.1981C20.6584 12.0738 21.0962 13.1355 21.0962 14.3834C21.0962 14.7894 21.0443 15.1824 20.9405 15.5625C20.8366 15.9426 20.686 16.3 20.4885 16.6346L19.1963 15.8846C19.3296 15.6513 19.4296 15.4138 19.4963 15.1721C19.5629 14.9305 19.5963 14.668 19.5963 14.3846C19.5963 13.5513 19.3046 12.843 18.7213 12.2596C18.1379 11.6763 17.4296 11.3846 16.5963 11.3846C15.7629 11.3846 15.0546 11.6763 14.4713 12.2596C13.8879 12.843 13.5963 13.5513 13.5963 14.3846C13.5963 14.668 13.6296 14.9305 13.6963 15.1721C13.7629 15.4138 13.8629 15.6513 13.9963 15.8846L12.704 16.6346Z" fill="white"/>
</svg>
