<svg width="40" height="40" viewBox="0 0 40 40" fill="none" xmlns="http://www.w3.org/2000/svg">
    <circle cx="20" cy="20" r="20" fill="#FFF4ED"/>
    <path fill-rule="evenodd" clip-rule="evenodd" d="M9.5 16.4436C9.5 13.0426 11.8113 10.666 15.125 10.666C17.1332 10.666 19.625 12.5904 20 14.5148V29.3325C20 29.3325 12.125 22.0199 11 20.4804C9.875 18.9408 9.5 17.8978 9.5 16.4436ZM30.5 16.4437C30.5 13.0428 28.1888 10.6662 24.875 10.6662C22.8669 10.6662 20.375 12.5905 20 14.5149V29.3326C20 29.3326 27.875 22.02 29 20.4805C30.125 18.941 30.5 17.898 30.5 16.4437Z" fill="#FF6600"/>
    <path d="M17 19.1075L19.3077 21.4513L23 17.7012" stroke="white" stroke-width="1.5" stroke-linecap="round" stroke-linejoin="round"/>
</svg>
