<svg width="40" height="40" viewBox="0 0 40 40" fill="none" xmlns="http://www.w3.org/2000/svg">
    <circle cx="20" cy="20" r="20" fill="#F08686"/>
    <path d="M14.0231 25.2923C14.8731 24.6616 15.799 24.1635 16.801 23.7981C17.8029 23.4327 18.8692 23.25 20 23.25C21.1307 23.25 22.1971 23.4327 23.199 23.7981C24.2009 24.1635 25.1269 24.6616 25.9769 25.2923C26.5987 24.609 27.0913 23.818 27.4548 22.9192C27.8182 22.0205 28 21.0474 28 20C28 17.7833 27.2208 15.8958 25.6625 14.3375C24.1041 12.7792 22.2166 12 20 12C17.7833 12 15.8958 12.7792 14.3375 14.3375C12.7791 15.8958 12 17.7833 12 20C12 21.0474 12.1817 22.0205 12.5452 22.9192C12.9086 23.818 13.4013 24.609 14.0231 25.2923ZM20.0003 20.75C19.0873 20.75 18.3173 20.4366 17.6904 19.8099C17.0635 19.1832 16.75 18.4133 16.75 17.5003C16.75 16.5873 17.0634 15.8173 17.6901 15.1904C18.3168 14.5635 19.0867 14.25 19.9997 14.25C20.9127 14.25 21.6827 14.5634 22.3096 15.1901C22.9365 15.8168 23.25 16.5867 23.25 17.4997C23.25 18.4127 22.9366 19.1827 22.3099 19.8096C21.6831 20.4365 20.9133 20.75 20.0003 20.75ZM20 29.5C18.6807 29.5 17.4433 29.2519 16.2875 28.7557C15.1317 28.2596 14.1263 27.5839 13.2712 26.7288C12.416 25.8737 11.7404 24.8682 11.2442 23.7125C10.7481 22.5567 10.5 21.3192 10.5 20C10.5 18.6808 10.7481 17.4433 11.2442 16.2875C11.7404 15.1318 12.416 14.1263 13.2712 13.2712C14.1263 12.4161 15.1317 11.7404 16.2875 11.2443C17.4433 10.7481 18.6807 10.5 20 10.5C21.3192 10.5 22.5567 10.7481 23.7125 11.2443C24.8682 11.7404 25.8737 12.4161 26.7288 13.2712C27.5839 14.1263 28.2596 15.1318 28.7557 16.2875C29.2519 17.4433 29.5 18.6808 29.5 20C29.5 21.3192 29.2519 22.5567 28.7557 23.7125C28.2596 24.8682 27.5839 25.8737 26.7288 26.7288C25.8737 27.5839 24.8682 28.2596 23.7125 28.7557C22.5567 29.2519 21.3192 29.5 20 29.5ZM20 28C20.9025 28 21.7727 27.8548 22.6105 27.5644C23.4484 27.274 24.1923 26.868 24.8423 26.3462C24.1923 25.8436 23.458 25.4519 22.6394 25.1712C21.8208 24.8904 20.941 24.75 20 24.75C19.0589 24.75 18.1775 24.8888 17.3557 25.1663C16.5339 25.4439 15.8012 25.8372 15.1577 26.3462C15.8077 26.868 16.5516 27.274 17.3894 27.5644C18.2272 27.8548 19.0974 28 20 28ZM20 19.25C20.4974 19.25 20.9134 19.0827 21.2481 18.7481C21.5827 18.4135 21.75 17.9974 21.75 17.5C21.75 17.0026 21.5827 16.5865 21.2481 16.2519C20.9134 15.9173 20.4974 15.75 20 15.75C19.5025 15.75 19.0865 15.9173 18.7519 16.2519C18.4173 16.5865 18.25 17.0026 18.25 17.5C18.25 17.9974 18.4173 18.4135 18.7519 18.7481C19.0865 19.0827 19.5025 19.25 20 19.25Z" fill="white"/>
</svg>
