<svg width="40" height="40" viewBox="0 0 40 40" fill="none" xmlns="http://www.w3.org/2000/svg">
    <path d="M20 40C31.0457 40 40 31.0457 40 20C40 8.9543 31.0457 0 20 0C8.9543 0 0 8.9543 0 20C0 31.0457 8.9543 40 20 40Z" fill="#25B7D3"/>
    <path d="M31.6363 26.8098C31.6363 27.3942 31.1628 27.8676 30.5784 27.8676H9.42134C8.83698 27.8676 8.36353 27.3942 8.36353 26.8098V12C8.36353 11.4156 8.83698 10.9422 9.42134 10.9422H30.5784C31.1628 10.9422 31.6363 11.4156 31.6363 12V26.8098Z" fill="#3E3E3F"/>
    <path d="M23.1737 27.8676H16.8264V30.5785H23.1737V27.8676Z" fill="#E2E4E5"/>
    <path d="M25.289 31.1073C25.289 31.3993 25.0523 31.6364 24.7599 31.6364H15.2395C14.9475 31.6364 14.7104 31.3996 14.7104 31.1073C14.7104 30.8149 14.9472 30.5782 15.2395 30.5782H24.7603C25.0523 30.5785 25.289 30.8153 25.289 31.1073Z" fill="#F0F1F1"/>
    <path d="M31.6363 26.8098V23.6364H8.36353V26.8098C8.36353 27.3942 8.83734 27.8676 9.42134 27.8676H30.5784C31.1624 27.8676 31.6363 27.3942 31.6363 26.8098Z" fill="white"/>
    <path d="M19.9998 27.2396C19.2158 27.2396 18.5784 26.6022 18.5784 25.8182C18.5784 25.0345 19.2162 24.3967 19.9998 24.3967C20.7835 24.3967 21.4213 25.0342 21.4213 25.8182C21.4213 26.6022 20.7838 27.2396 19.9998 27.2396ZM19.9998 25.124C19.6169 25.124 19.3056 25.4353 19.3056 25.8182C19.3056 26.2011 19.6169 26.5124 19.9998 26.5124C20.3827 26.5124 20.694 26.2011 20.694 25.8182C20.694 25.4356 20.3827 25.124 19.9998 25.124Z" fill="#CFD3D4"/>
    <path d="M8.36353 11.9669V23.6033H15.5359L28.2301 10.9091H9.42134C8.83734 10.9091 8.36353 11.3829 8.36353 11.9669Z" fill="#5B5C5F"/>
    <path d="M11.0596 13.6324C11.0596 13.2309 11.197 13.0055 11.461 13.0055C11.7254 13.0055 11.8625 13.2309 11.8625 13.6324C11.8625 14.0356 11.725 14.2611 11.461 14.2611C11.197 14.2611 11.0596 14.0356 11.0596 13.6324ZM11.6956 13.6324C11.6956 13.2782 11.6094 13.1338 11.4614 13.1338C11.3152 13.1338 11.2272 13.2782 11.2272 13.6324C11.2272 13.9884 11.3152 14.1327 11.4614 14.1327C11.609 14.1324 11.6956 13.988 11.6956 13.6324ZM11.461 13.5178C11.5279 13.5178 11.5774 13.5687 11.5774 13.6324C11.5774 13.6975 11.5279 13.7487 11.461 13.7487C11.3959 13.7487 11.3465 13.6975 11.3465 13.6324C11.3465 13.5687 11.3959 13.5178 11.461 13.5178Z" fill="white"/>
    <path d="M12.512 13.2044L12.2215 13.3804L12.144 13.2676L12.5317 13.0262H12.6742V14.1095H12.9226V14.24H12.2146V14.1095H12.5124L12.512 13.2044Z" fill="white"/>
    <path d="M14.9307 13.1902L15.0082 13.3116L14.3918 13.6887L15.0082 14.0673L14.9235 14.1855L14.2522 13.7662V13.6095L14.9307 13.1902Z" fill="white"/>
    <path d="M15.9062 14.24V13.6713H15.4659V14.24H15.2986V13.0266H15.4659V13.5338H15.9062V13.0266H16.0735V14.24H15.9062Z" fill="white"/>
    <path d="M16.8233 13.1673V14.24H16.656V13.1673H16.2808V13.0266H17.2037L17.1862 13.1673H16.8233Z" fill="white"/>
    <path d="M18.117 14.24L18.0818 13.6182C18.073 13.4473 18.073 13.2502 18.0749 13.2113H18.0694L17.8774 14.0233H17.717L17.5163 13.2113H17.5094C17.5094 13.2516 17.513 13.4615 17.5058 13.6182L17.476 14.24H17.321L17.3898 13.0266H17.6116L17.7985 13.8367H17.8054L17.9832 13.0266H18.2069L18.2756 14.24H18.117Z" fill="white"/>
    <path d="M18.5566 14.24V13.0266H18.7239V14.0938H19.2752L19.2559 14.24H18.5566Z" fill="white"/>
    <path d="M20.2894 13.6095V13.7662L19.6182 14.1855L19.5334 14.0673L20.1498 13.6887L19.5334 13.3116L19.6109 13.1902L20.2894 13.6095Z" fill="white"/>
    <path d="M11.0596 15.7447C11.0596 15.3433 11.197 15.1178 11.461 15.1178C11.7254 15.1178 11.8625 15.3433 11.8625 15.7447C11.8625 16.148 11.725 16.3735 11.461 16.3735C11.197 16.3735 11.0596 16.148 11.0596 15.7447ZM11.6956 15.7447C11.6956 15.3905 11.6094 15.2462 11.4614 15.2462C11.3152 15.2462 11.2272 15.3905 11.2272 15.7447C11.2272 16.1007 11.3152 16.2451 11.4614 16.2451C11.609 16.2447 11.6956 16.1004 11.6956 15.7447ZM11.461 15.6302C11.5279 15.6302 11.5774 15.6811 11.5774 15.7447C11.5774 15.8098 11.5279 15.8611 11.461 15.8611C11.3959 15.8611 11.3465 15.8098 11.3465 15.7447C11.3465 15.6811 11.3959 15.6302 11.461 15.6302Z" fill="white"/>
    <path d="M12.3255 16.2167H12.8767L12.8575 16.3524H12.1353V16.2236C12.5545 15.808 12.6833 15.6404 12.6833 15.4575C12.6833 15.3269 12.5953 15.2531 12.4771 15.2531C12.3767 15.2531 12.308 15.2902 12.2338 15.3833L12.1211 15.304C12.2164 15.1862 12.336 15.1171 12.4858 15.1171C12.7076 15.1171 12.8505 15.2582 12.8505 15.452C12.8502 15.6636 12.6829 15.8749 12.3255 16.2167Z" fill="white"/>
    <path d="M14.9307 15.3025L15.0082 15.424L14.3918 15.8011L15.0082 16.1796L14.9235 16.2978L14.2522 15.8785V15.7218L14.9307 15.3025Z" fill="white"/>
    <path d="M15.6541 16.3524H15.3196V15.1389H15.6279C15.8447 15.1389 16.0614 15.2076 16.0614 15.4455C16.0614 15.6004 15.9523 15.6815 15.8501 15.7044V15.7113C15.9716 15.7342 16.1145 15.8047 16.1145 16.0055C16.1138 16.2713 15.8814 16.3524 15.6541 16.3524ZM15.6578 15.2709H15.4869V15.6513H15.6719C15.813 15.6513 15.8905 15.5931 15.8905 15.4556C15.8901 15.3218 15.8021 15.2709 15.6578 15.2709ZM15.6839 15.7851H15.4865V16.2167H15.6767C15.7949 16.2167 15.9374 16.1833 15.9374 16.0087C15.9378 15.8309 15.8232 15.7851 15.6839 15.7851Z" fill="white"/>
    <path d="M16.7422 16.3735C16.4444 16.3735 16.2913 16.1251 16.2913 15.7484C16.2913 15.3785 16.4444 15.1178 16.7422 15.1178C17.04 15.1178 17.1931 15.3698 17.1931 15.7465C17.1931 16.1164 17.0396 16.3735 16.7422 16.3735ZM16.7422 15.2549C16.5447 15.2549 16.4654 15.4276 16.4654 15.748C16.4654 16.0684 16.5502 16.236 16.7422 16.236C16.9396 16.236 17.0185 16.0669 17.0185 15.7462C17.0185 15.4258 16.9393 15.2549 16.7422 15.2549Z" fill="white"/>
    <path d="M17.694 16.3524H17.4104V15.1389H17.6748C17.962 15.1389 18.2471 15.2356 18.2471 15.7396C18.2471 16.2465 17.9515 16.3524 17.694 16.3524ZM17.7119 15.2727H17.578V16.2204H17.7137C17.8864 16.2204 18.0693 16.1324 18.0693 15.7396C18.0693 15.3273 17.8773 15.2727 17.7119 15.2727Z" fill="white"/>
    <path d="M18.9389 15.8855V16.3524H18.7698V15.8873L18.3611 15.1385H18.5462L18.8564 15.732H18.8618L19.1734 15.1385H19.3476L18.9389 15.8855Z" fill="white"/>
    <path d="M20.2894 15.7218V15.8785L19.6182 16.2978L19.5334 16.1796L20.1498 15.8011L19.5334 15.424L19.6109 15.3025L20.2894 15.7218Z" fill="white"/>
    <path d="M11.0596 17.8571C11.0596 17.4556 11.197 17.2302 11.461 17.2302C11.7254 17.2302 11.8625 17.4556 11.8625 17.8571C11.8625 18.2604 11.725 18.4858 11.461 18.4858C11.197 18.4858 11.0596 18.2604 11.0596 17.8571ZM11.6956 17.8571C11.6956 17.5029 11.6094 17.3585 11.4614 17.3585C11.3152 17.3585 11.2272 17.5029 11.2272 17.8571C11.2272 18.2131 11.3152 18.3575 11.4614 18.3575C11.609 18.3571 11.6956 18.2127 11.6956 17.8571ZM11.461 17.7425C11.5279 17.7425 11.5774 17.7935 11.5774 17.8571C11.5774 17.9222 11.5279 17.9735 11.461 17.9735C11.3959 17.9735 11.3465 17.9222 11.3465 17.8571C11.3465 17.7935 11.3959 17.7425 11.461 17.7425Z" fill="white"/>
    <path d="M12.4699 18.4858C12.3288 18.4858 12.1844 18.4349 12.0913 18.3222L12.1968 18.2342C12.2655 18.3153 12.3659 18.3538 12.4644 18.3538C12.628 18.3538 12.7269 18.2622 12.7269 18.1142C12.7269 17.9451 12.6229 17.8887 12.4804 17.8887H12.3869L12.4062 17.7636H12.4699C12.5862 17.7636 12.6953 17.6985 12.6953 17.5575C12.6953 17.4287 12.5968 17.3582 12.4717 17.3582C12.3677 17.3582 12.2957 17.3953 12.2164 17.4691L12.1284 17.3724C12.2324 17.2738 12.352 17.2295 12.4808 17.2295C12.7131 17.2295 12.8579 17.3687 12.8579 17.5342C12.8579 17.6822 12.7488 17.7916 12.6273 17.8145V17.8215C12.7611 17.8302 12.8968 17.9305 12.8968 18.1156C12.896 18.3255 12.7251 18.4858 12.4699 18.4858Z" fill="white"/>
    <path d="M14.9307 17.4149L15.0082 17.5364L14.3918 17.9135L15.0082 18.292L14.9235 18.4102L14.2522 17.9909V17.8342L14.9307 17.4149Z" fill="white"/>
    <path d="M15.9062 18.4647V17.896H15.4659V18.4647H15.2986V17.2509H15.4659V17.7582H15.9062V17.2509H16.0735V18.4644L15.9062 18.4647Z" fill="white"/>
    <path d="M16.5782 17.3847V17.7811H17.0254V17.9149H16.5782V18.3324H17.1262V18.4644H16.4109V17.2509H17.112L17.0927 17.3847H16.5782Z" fill="white"/>
    <path d="M18.0272 18.16H17.5603L17.4668 18.4647H17.2996L17.6923 17.2513H17.9036L18.2963 18.4647H18.1203L18.0272 18.16ZM17.601 18.0244H17.9868L17.7985 17.4025H17.7916L17.601 18.0244Z" fill="white"/>
    <path d="M18.7504 18.4647H18.4668V17.2509H18.7312C19.0184 17.2509 19.3035 17.3476 19.3035 17.8516C19.3035 18.3589 19.0075 18.4647 18.7504 18.4647ZM18.7679 17.3847H18.6341V18.3324H18.7697C18.9424 18.3324 19.1253 18.2444 19.1253 17.8516C19.1257 17.4396 18.9337 17.3847 18.7679 17.3847Z" fill="white"/>
    <path d="M19.7469 17.3847V17.7811H20.1941V17.9149H19.7469V18.3324H20.2949V18.4644H19.5796V17.2509H20.2807L20.2614 17.3847H19.7469Z" fill="white"/>
    <path d="M21.0988 17.9295L21.4545 18.4647H21.2556L20.9316 17.9505H20.7766V18.4647H20.6094V17.2509H20.9283C21.2312 17.2509 21.3897 17.3669 21.3897 17.5942C21.3894 17.776 21.2625 17.8869 21.0988 17.9295ZM20.9436 17.3815H20.7763V17.8218H20.9454C21.1145 17.8218 21.2112 17.7585 21.2112 17.5945C21.2116 17.4429 21.125 17.3815 20.9436 17.3815Z" fill="white"/>
    <path d="M22.4018 17.8342V17.9909L21.7305 18.4102L21.6458 18.292L22.2621 17.9135L21.6458 17.5364L21.7232 17.4149L22.4018 17.8342Z" fill="white"/>
    <path d="M11.0596 19.9695C11.0596 19.568 11.197 19.3425 11.461 19.3425C11.7254 19.3425 11.8625 19.568 11.8625 19.9695C11.8625 20.3727 11.725 20.5982 11.461 20.5982C11.197 20.5982 11.0596 20.3727 11.0596 19.9695ZM11.6956 19.9695C11.6956 19.6153 11.6094 19.4709 11.4614 19.4709C11.3152 19.4709 11.2272 19.6153 11.2272 19.9695C11.2272 20.3255 11.3152 20.4698 11.4614 20.4698C11.609 20.4698 11.6956 20.3251 11.6956 19.9695ZM11.461 19.8549C11.5279 19.8549 11.5774 19.9058 11.5774 19.9695C11.5774 20.0345 11.5279 20.0858 11.461 20.0858C11.3959 20.0858 11.3465 20.0345 11.3465 19.9695C11.3465 19.9062 11.3959 19.8549 11.461 19.8549Z" fill="white"/>
    <path d="M12.7641 20.2865V20.5771H12.6073V20.2865H12.1106V20.172L12.4662 19.3422L12.6019 19.3985L12.2811 20.1578H12.607L12.623 19.8407H12.7637V20.1578H12.9168V20.2865H12.7641Z" fill="white"/>
    <path d="M14.9307 19.5273L15.0082 19.6487L14.3918 20.0258L15.0082 20.4044L14.9235 20.5225L14.2522 20.1033V19.9465L14.9307 19.5273Z" fill="white"/>
    <path d="M15.3759 20.7604L15.2454 20.7022L15.9974 19.1505L16.1261 19.2124L15.3759 20.7604Z" fill="white"/>
    <path d="M16.9621 20.5771V20.0084H16.5218V20.5771H16.3545V19.3636H16.5218V19.8709H16.9621V19.3636H17.1294V20.5771H16.9621Z" fill="white"/>
    <path d="M17.6346 19.4975V19.8938H18.0818V20.0276H17.6346V20.4451H18.1826V20.5771H17.4673V19.3636H18.1684L18.1491 19.4975H17.6346Z" fill="white"/>
    <path d="M19.0831 20.2724H18.6162L18.5227 20.5771H18.3555L18.7482 19.3636H18.9595L19.3522 20.5771H19.1762L19.0831 20.2724ZM18.6569 20.1367H19.0427L18.8544 19.5149H18.8471L18.6569 20.1367Z" fill="white"/>
    <path d="M19.8066 20.5771H19.5229V19.3636H19.7873C20.0746 19.3636 20.3597 19.4604 20.3597 19.9644C20.3597 20.4716 20.064 20.5771 19.8066 20.5771ZM19.8244 19.4975H19.6906V20.4451H19.8262C19.9989 20.4451 20.1819 20.3571 20.1819 19.9644C20.1819 19.552 19.9899 19.4975 19.8244 19.4975Z" fill="white"/>
    <path d="M20.8028 19.4975V19.8938H21.25V20.0276H20.8028V20.4451H21.3508V20.5771H20.6355V19.3636H21.3366L21.3173 19.4975H20.8028Z" fill="white"/>
    <path d="M22.1547 20.0415L22.5107 20.5771H22.3118L21.9878 20.0629H21.8326V20.5771H21.6653V19.3636H21.9842C22.2871 19.3636 22.4456 19.4796 22.4456 19.7069C22.4456 19.8884 22.3187 19.9993 22.1547 20.0415ZM21.9998 19.4938H21.8326V19.9342H22.0016C22.1707 19.9342 22.2675 19.8709 22.2675 19.7069C22.2675 19.5556 22.1813 19.4938 21.9998 19.4938Z" fill="white"/>
    <path d="M23.4577 19.9465V20.1033L22.7864 20.5225L22.7017 20.4044L23.318 20.0258L22.7017 19.6487L22.7791 19.5273L23.4577 19.9465Z" fill="white"/>
</svg>
