<svg width="40" height="40" viewBox="0 0 40 40" fill="none" xmlns="http://www.w3.org/2000/svg">
    <circle cx="20" cy="20" r="20" fill="#7AD7B5" fill-opacity="0.2"/>
    <path d="M12 12H28C29.1046 12 30 12.8954 30 14V24C30 25.1046 29.1046 26 28 26H20L15 31V26H12C10.8954 26 10 25.1046 10 24V14C10 12.8954 10.8954 12 12 12Z" fill="#5EC49F"/>
    <path d="M16.5 17.75H15C14.7239 17.75 14.5 17.9739 14.5 18.25V19.75C14.5 20.0261 14.7239 20.25 15 20.25H16.5C16.7761 20.25 17 20.0261 17 19.75V18.25C17 17.9739 16.7761 17.75 16.5 17.75Z" fill="white"/>
    <path d="M20.75 17.75H19.25C18.9739 17.75 18.75 17.9739 18.75 18.25V19.75C18.75 20.0261 18.9739 20.25 19.25 20.25H20.75C21.0261 20.25 21.25 20.0261 21.25 19.75V18.25C21.25 17.9739 21.0261 17.75 20.75 17.75Z" fill="white"/>
    <path d="M25 17.75H23.5C23.2239 17.75 23 17.9739 23 18.25V19.75C23 20.0261 23.2239 20.25 23.5 20.25H25C25.2761 20.25 25.5 20.0261 25.5 19.75V18.25C25.5 17.9739 25.2761 17.75 25 17.75Z" fill="white"/>
</svg>
