<svg width="40" height="40" viewBox="0 0 40 40" fill="none" xmlns="http://www.w3.org/2000/svg">
    <circle cx="20" cy="20" r="20" fill="#FFF4ED"/>
    <circle cx="4.20038" cy="4.20038" r="4.20038" transform="matrix(-1 0 0 1 22.0787 9.49905)" fill="#FF6600"/>
    <path fill-rule="evenodd" clip-rule="evenodd" d="M13.1696 19.0739C13.6612 18.8413 14.2301 18.9662 14.688 19.2597C15.6223 19.8586 16.7124 20.2023 17.8765 20.2023C19.0404 20.2023 20.1304 19.8587 21.0647 19.2598C21.5226 18.9664 22.0915 18.8415 22.5831 19.0742C24.9299 20.1847 26.4802 22.1018 26.4802 24.2805C26.4802 27.715 22.628 30.4992 17.8761 30.4992C13.1241 30.4992 9.27194 27.715 9.27194 24.2805C9.27194 22.1016 10.8225 20.1844 13.1696 19.0739Z" fill="#FF6600"/>
    <circle cx="25.728" cy="21.1002" r="5" fill="white"/>
    <path d="M28.3 19.5L25.0167 22.7757L23.3 21.059" stroke="#FF6600" stroke-width="1.5" stroke-linecap="round" stroke-linejoin="round"/>
</svg>
