<svg width="40" height="40" viewBox="0 0 40 40" fill="none" xmlns="http://www.w3.org/2000/svg">
    <circle cx="20" cy="20" r="20" fill="#7095D0"/>
    <path d="M20 30.3269L18.8962 29.3346C17.2385 27.8308 15.8676 26.5384 14.7836 25.4577C13.6997 24.3769 12.8407 23.4151 12.2068 22.5721C11.5728 21.7291 11.1298 20.9602 10.8779 20.2654C10.626 19.5705 10.5 18.8654 10.5 18.15C10.5 16.7308 10.9785 15.5427 11.9356 14.5856C12.8926 13.6286 14.0808 13.15 15.5 13.15C16.3731 13.15 17.1981 13.3542 17.975 13.7626C18.7519 14.1709 19.4269 14.7565 20 15.5193C20.5731 14.7565 21.2481 14.1709 22.025 13.7626C22.8019 13.3542 23.6269 13.15 24.5 13.15C25.9192 13.15 27.1073 13.6286 28.0644 14.5856C29.0214 15.5427 29.5 16.7308 29.5 18.15C29.5 18.8654 29.374 19.5705 29.1221 20.2654C28.8701 20.9602 28.4272 21.7291 27.7932 22.5721C27.1592 23.4151 26.3019 24.3769 25.2211 25.4577C24.1403 26.5384 22.7679 27.8308 21.1038 29.3346L20 30.3269ZM20 28.3C21.6 26.8603 22.9166 25.6263 23.95 24.5981C24.9833 23.5699 25.8 22.6766 26.4 21.9183C27 21.1599 27.4166 20.4865 27.65 19.8981C27.8833 19.3096 28 18.7269 28 18.15C28 17.15 27.6666 16.3167 27 15.65C26.3333 14.9833 25.5 14.65 24.5 14.65C23.7102 14.65 22.9804 14.874 22.3106 15.3221C21.6407 15.7702 21.1102 16.3936 20.7192 17.1923H19.2808C18.8833 16.3872 18.3513 15.7622 17.6846 15.3173C17.0179 14.8724 16.2897 14.65 15.5 14.65C14.5064 14.65 13.6747 14.9833 13.0048 15.65C12.3349 16.3167 12 17.15 12 18.15C12 18.7269 12.1166 19.3096 12.35 19.8981C12.5833 20.4865 13 21.1599 13.6 21.9183C14.2 22.6766 15.0166 23.5683 16.05 24.5933C17.0833 25.6183 18.4 26.8539 20 28.3Z" fill="white"/>
</svg>
