<svg width="40" height="40" viewBox="0 0 40 40" fill="none" xmlns="http://www.w3.org/2000/svg">
    <path d="M20 40C31.0457 40 40 31.0457 40 20C40 8.9543 31.0457 0 20 0C8.9543 0 0 8.9543 0 20C0 31.0457 8.9543 40 20 40Z" fill="#E04F5F"/>
    <path d="M31.6363 11.2727H8.36353V28.7273H31.6363V11.2727Z" fill="#F0F1F1"/>
    <path d="M22.1741 18.0673C21.6221 17.4462 20.8308 17.0909 19.9999 17.0909C19.169 17.0909 18.3777 17.4462 17.8257 18.0673L8.36353 28.712H31.6363L22.1741 18.0673Z" fill="#E2E4E5"/>
    <path d="M17.8257 21.9175C18.3777 22.5385 19.169 22.8938 19.9999 22.8938C20.8308 22.8938 21.6221 22.5385 22.1741 21.9175L31.6363 11.2727H8.36353L17.8257 21.9175Z" fill="white"/>
    <path d="M19.9875 23.7807C19.9875 23.7807 24.3384 21.2709 24.3384 18.4967C24.3384 15.7225 19.9875 15.7916 19.9875 17.9095C19.9875 15.7916 15.6362 15.7225 15.6362 18.7102C15.6362 21.6978 19.9875 23.7807 19.9875 23.7807Z" fill="#DF2C2C"/>
</svg>
