<svg width="40" height="40" viewBox="0 0 40 40" fill="none" xmlns="http://www.w3.org/2000/svg">
    <path d="M20 40C31.0457 40 40 31.0457 40 20C40 8.9543 31.0457 0 20 0C8.9543 0 0 8.9543 0 20C0 31.0457 8.9543 40 20 40Z" fill="#FABC3D"/>
    <path d="M21.4544 29.4545C21.4544 30.6596 20.4777 31.6364 19.2726 31.6364H10.5453C9.34025 31.6364 8.36353 30.6596 8.36353 29.4545V10.5455C8.36353 9.34036 9.34025 8.36363 10.5453 8.36363H19.2726C20.4777 8.36363 21.4544 9.34036 21.4544 10.5455V29.4545Z" fill="white"/>
    <path d="M20.7272 12.7273H9.09082V27.2727H20.7272V12.7273Z" fill="#3E3E3F"/>
    <path d="M12.3636 11.2727C12.5645 11.2727 12.7273 11.1099 12.7273 10.9091C12.7273 10.7083 12.5645 10.5454 12.3636 10.5454C12.1628 10.5454 12 10.7083 12 10.9091C12 11.1099 12.1628 11.2727 12.3636 11.2727Z" fill="#CFD3D4"/>
    <path d="M17.818 10.9091C17.818 11.1098 17.6551 11.2727 17.4543 11.2727H13.818C13.6173 11.2727 13.4543 11.1098 13.4543 10.9091C13.4543 10.7084 13.6173 10.5454 13.818 10.5454H17.4543C17.6551 10.5454 17.818 10.7084 17.818 10.9091Z" fill="#CFD3D4"/>
    <path d="M14.9089 30.9091C15.7122 30.9091 16.3634 30.2579 16.3634 29.4545C16.3634 28.6512 15.7122 28 14.9089 28C14.1056 28 13.4543 28.6512 13.4543 29.4545C13.4543 30.2579 14.1056 30.9091 14.9089 30.9091Z" fill="#CFD3D4"/>
    <path d="M15.6362 28.7273H14.1816V30.1818H15.6362V28.7273Z" fill="white"/>
    <path d="M20.7272 14.4276V12.7273H9.09082V26.064L20.7272 14.4276Z" fill="#5B5C5F"/>
    <path d="M24.3635 9.81818C20.3468 9.81818 17.0908 12.1167 17.0908 14.952C17.0908 16.34 17.8745 17.5971 19.1425 18.5207L17.4545 22.9091L21.8555 19.7654C22.6385 19.9687 23.481 20.0854 24.3635 20.0854C28.3803 20.0854 31.6363 17.7869 31.6363 14.9516C31.6363 12.1164 28.3803 9.81818 24.3635 9.81818Z" fill="#F0F1F1"/>
    <path d="M24.3635 9.81818C20.3468 9.81818 17.0908 12.1167 17.0908 14.952C17.0908 16.34 17.8745 17.5971 19.1425 18.5207L17.4545 22.9091L17.6112 22.7971L29.2505 11.1578C27.9588 10.3284 26.2475 9.81818 24.3635 9.81818Z" fill="white"/>
    <path d="M21.4543 15.6364C21.856 15.6364 22.1816 15.3108 22.1816 14.9091C22.1816 14.5074 21.856 14.1818 21.4543 14.1818C21.0527 14.1818 20.7271 14.5074 20.7271 14.9091C20.7271 15.3108 21.0527 15.6364 21.4543 15.6364Z" fill="#21B2D1"/>
    <path d="M24.3635 15.6364C24.7652 15.6364 25.0908 15.3108 25.0908 14.9091C25.0908 14.5074 24.7652 14.1818 24.3635 14.1818C23.9618 14.1818 23.6362 14.5074 23.6362 14.9091C23.6362 15.3108 23.9618 15.6364 24.3635 15.6364Z" fill="#21B2D1"/>
    <path d="M27.2727 15.6364C27.6743 15.6364 28 15.3108 28 14.9091C28 14.5074 27.6743 14.1818 27.2727 14.1818C26.871 14.1818 26.5454 14.5074 26.5454 14.9091C26.5454 15.3108 26.871 15.6364 27.2727 15.6364Z" fill="#21B2D1"/>
</svg>
