<svg width="40" height="40" viewBox="0 0 40 40" fill="none" xmlns="http://www.w3.org/2000/svg">
    <circle cx="20" cy="20" r="20" fill="#AFB8C0" fill-opacity="0.2"/>
    <path d="M22 23H9V14H20L22 23Z" fill="#BAC5D0"/>
    <path d="M17.59 29.59L11 23L20 14L26.59 20.59C26.9625 20.9647 27.1716 21.4716 27.1716 22C27.1716 22.5284 26.9625 23.0353 26.59 23.41L20.41 29.59C20.0353 29.9625 19.5284 30.1716 19 30.1716C18.4716 30.1716 17.9647 29.9625 17.59 29.59Z" fill="#BAC5D0"/>
    <path d="M22.7404 12.3C22.2652 12.1108 21.7356 12.1108 21.2604 12.3L17.1204 14C16.8829 14.0887 16.6666 14.2261 16.4854 14.4033C16.3041 14.5805 16.1618 14.7936 16.0677 15.0289C15.9735 15.2643 15.9296 15.5167 15.9387 15.77C15.9477 16.0233 16.0096 16.272 16.1204 16.5C16.3386 16.9671 16.7288 17.3319 17.2095 17.5182C17.6903 17.7045 18.2244 17.698 18.7004 17.5L22.0004 16L26.5904 20.59C26.9629 20.9647 27.172 21.4716 27.172 22C27.172 22.5284 26.9629 23.0353 26.5904 23.41L25.0004 25H31.0004V12L27.0004 14L22.7404 12.3Z" fill="#6B758F"/>
</svg>
