<svg width="40" height="40" viewBox="0 0 40 40" fill="none" xmlns="http://www.w3.org/2000/svg">
    <circle cx="20" cy="20" r="20" fill="#E1AB78"/>
    <path d="M26.0011 29.75C25.2375 29.75 24.5881 29.4826 24.0529 28.9479C23.5176 28.4132 23.25 27.7639 23.25 27C23.25 26.8752 23.2599 26.7459 23.2798 26.6121C23.2997 26.4784 23.3295 26.3551 23.3692 26.2423L15.9731 21.9115C15.709 22.1743 15.4083 22.3798 15.0711 22.5279C14.7339 22.6759 14.3769 22.75 14 22.75C13.2361 22.75 12.5868 22.4827 12.0521 21.9482C11.5174 21.4137 11.25 20.7647 11.25 20.0011C11.25 19.2376 11.5174 18.5881 12.0521 18.0529C12.5868 17.5176 13.2361 17.25 14 17.25C14.3769 17.25 14.7339 17.3241 15.0711 17.4721C15.4083 17.6202 15.709 17.8257 15.9731 18.0885L23.3692 13.7577C23.3295 13.6449 23.2997 13.5216 23.2798 13.3878C23.2599 13.2541 23.25 13.1248 23.25 13C23.25 12.2361 23.5173 11.5868 24.0518 11.0521C24.5863 10.5174 25.2353 10.25 25.9989 10.25C26.7624 10.25 27.4118 10.5173 27.9471 11.0518C28.4823 11.5863 28.75 12.2353 28.75 12.9989C28.75 13.7624 28.4826 14.4118 27.9479 14.9471C27.4132 15.4823 26.7639 15.75 26 15.75C25.6231 15.75 25.266 15.6759 24.9288 15.5279C24.5916 15.3798 24.291 15.1743 24.0269 14.9115L16.6307 19.2423C16.6705 19.3551 16.7003 19.4782 16.7202 19.6115C16.74 19.7448 16.7499 19.8736 16.7499 19.998C16.7499 20.1224 16.74 20.2519 16.7202 20.3865C16.7003 20.5212 16.6705 20.6449 16.6307 20.7577L24.0269 25.0885C24.291 24.8257 24.5916 24.6202 24.9288 24.4721C25.266 24.3241 25.6231 24.25 26 24.25C26.7639 24.25 27.4132 24.5173 27.9479 25.0518C28.4826 25.5863 28.75 26.2353 28.75 26.9989C28.75 27.7624 28.4827 28.4118 27.9482 28.9471C27.4137 29.4823 26.7647 29.75 26.0011 29.75ZM26 14.25C26.3474 14.25 26.6426 14.1285 26.8856 13.8856C27.1285 13.6426 27.25 13.3474 27.25 13C27.25 12.6525 27.1285 12.3573 26.8856 12.1144C26.6426 11.8714 26.3474 11.75 26 11.75C25.6525 11.75 25.3573 11.8714 25.1144 12.1144C24.8714 12.3574 24.75 12.6526 24.75 13C24.75 13.3474 24.8714 13.6426 25.1144 13.8856C25.3573 14.1285 25.6525 14.25 26 14.25ZM14 21.25C14.3474 21.25 14.6426 21.1285 14.8856 20.8856C15.1285 20.6426 15.25 20.3474 15.25 20C15.25 19.6525 15.1285 19.3573 14.8856 19.1144C14.6426 18.8714 14.3474 18.75 14 18.75C13.6525 18.75 13.3573 18.8714 13.1144 19.1144C12.8714 19.3574 12.7499 19.6526 12.7499 20C12.7499 20.3474 12.8714 20.6426 13.1144 20.8856C13.3573 21.1285 13.6525 21.25 14 21.25V21.25ZM26 28.25C26.3474 28.25 26.6426 28.1285 26.8856 27.8856C27.1285 27.6426 27.25 27.3474 27.25 27C27.25 26.6525 27.1285 26.3573 26.8856 26.1144C26.6426 25.8714 26.3474 25.75 26 25.75C25.6525 25.75 25.3573 25.8714 25.1144 26.1144C24.8714 26.3574 24.75 26.6526 24.75 27C24.75 27.3474 24.8714 27.6426 25.1144 27.8856C25.3573 28.1285 25.6525 28.25 26 28.25Z" fill="white"/>
</svg>
