<svg width="40" height="40" viewBox="0 0 40 40" fill="none" xmlns="http://www.w3.org/2000/svg">
    <circle cx="20" cy="20" r="20" fill="#FFF4ED"/>
    <g clip-path="url(#clip0_3704_24155)">
        <path d="M14.4203 15.8973C13.6658 15.1344 13.2 14.0856 13.2 12.9279C13.2 10.5956 15.0907 8.70489 17.423 8.70489C19.7553 8.70489 21.646 10.5956 21.646 12.9279C21.646 13.9989 21.2473 14.9768 20.5902 15.7212" stroke="#FF6600" stroke-width="1.5" stroke-linecap="round"/>
        <path fill-rule="evenodd" clip-rule="evenodd" d="M17.4982 11.0473C16.4982 11.0473 15.6876 11.858 15.6876 12.8579V21.5349L15.379 21.0004C14.879 20.1344 13.7716 19.8377 12.9056 20.3377C12.0396 20.8377 11.7429 21.945 12.2429 22.811L16.231 29.7187C16.2564 29.7628 16.2834 29.8054 16.3119 29.8464C16.437 30.1046 16.7085 30.5842 17.1363 30.9317C17.6343 31.3363 18.2226 31.2938 18.2226 31.2938H25.4651C25.4651 31.2938 25.963 31.3278 26.4383 30.8525C26.9136 30.3772 26.9136 29.8453 26.9136 29.8453L28 24.4134V24.0399L28 21.1543C28 20.1543 27.1894 19.3436 26.1894 19.3436C25.7675 19.3436 25.3794 19.4879 25.0716 19.7297C24.9132 18.8914 24.1769 18.2572 23.2925 18.2572C22.7745 18.2572 22.3073 18.4748 21.9773 18.8235C21.6676 18.2696 21.0754 17.8951 20.3958 17.8951C19.9879 17.8951 19.6115 18.03 19.3088 18.2576V12.8579C19.3088 11.858 18.4982 11.0473 17.4982 11.0473Z" fill="#FF6600"/>
    </g>
    <defs>
        <clipPath id="clip0_3704_24155">
            <rect width="24" height="24" fill="white" transform="translate(8 8)"/>
        </clipPath>
    </defs>
</svg>
