<svg width="40" height="40" viewBox="0 0 40 40" fill="none" xmlns="http://www.w3.org/2000/svg">
    <path d="M20 40C31.0457 40 40 31.0457 40 20C40 8.9543 31.0457 0 20 0C8.9543 0 0 8.9543 0 20C0 31.0457 8.9543 40 20 40Z" fill="#32BEA6"/>
    <path d="M8.36353 9.76C8.36353 8.98873 8.98862 8.36364 9.75989 8.36364H19.9999L25.8181 13.2509V30.24C25.8181 31.0113 25.193 31.6364 24.4217 31.6364H9.75989C8.98862 31.6364 8.36353 31.0113 8.36353 30.24V9.76Z" fill="white"/>
    <path d="M20 8.36364V11.8545C20 12.6258 20.6251 13.2509 21.3964 13.2509H25.8182L20 8.36364Z" fill="#F0F1F1"/>
    <path d="M18.909 25.4545H22.5454C22.7458 25.4545 22.909 25.2916 22.909 25.0909V23.2727C22.909 23.072 22.7458 22.9091 22.5454 22.9091H18.909C18.7087 22.9091 18.5454 23.072 18.5454 23.2727V25.0909C18.5454 25.2916 18.7087 25.4545 18.909 25.4545Z" fill="#E2E4E5"/>
    <path d="M22.5454 26.1818H18.909C18.3076 26.1818 17.8181 25.6924 17.8181 25.0909V23.2727C17.8181 22.6713 18.3076 22.1818 18.909 22.1818H22.5454C23.1468 22.1818 23.6363 22.6713 23.6363 23.2727V25.0909C23.6363 25.6924 23.1468 26.1818 22.5454 26.1818ZM18.909 22.9091C18.7087 22.9091 18.5454 23.072 18.5454 23.2727V25.0909C18.5454 25.2916 18.7087 25.4545 18.909 25.4545H22.5454C22.7458 25.4545 22.909 25.2916 22.909 25.0909V23.2727C22.909 23.072 22.7458 22.9091 22.5454 22.9091H18.909Z" fill="#B6BCBD"/>
    <path d="M10.909 25.4545H14.5454C14.7458 25.4545 14.909 25.2916 14.909 25.0909V23.2727C14.909 23.072 14.7458 22.9091 14.5454 22.9091H10.909C10.7087 22.9091 10.5454 23.072 10.5454 23.2727V25.0909C10.5454 25.2916 10.7087 25.4545 10.909 25.4545Z" fill="#E2E4E5"/>
    <path d="M14.5454 26.1818H10.909C10.3076 26.1818 9.81812 25.6924 9.81812 25.0909V23.2727C9.81812 22.6713 10.3076 22.1818 10.909 22.1818H14.5454C15.1468 22.1818 15.6363 22.6713 15.6363 23.2727V25.0909C15.6363 25.6924 15.1468 26.1818 14.5454 26.1818ZM10.909 22.9091C10.7087 22.9091 10.5454 23.072 10.5454 23.2727V25.0909C10.5454 25.2916 10.7087 25.4545 10.909 25.4545H14.5454C14.7458 25.4545 14.909 25.2916 14.909 25.0909V23.2727C14.909 23.072 14.7458 22.9091 14.5454 22.9091H10.909Z" fill="#B6BCBD"/>
    <path d="M14.909 18.1818H18.5454C18.7458 18.1818 18.909 18.0189 18.909 17.8182V16C18.909 15.7993 18.7458 15.6364 18.5454 15.6364H14.909C14.7087 15.6364 14.5454 15.7993 14.5454 16V17.8182C14.5454 18.0189 14.7087 18.1818 14.909 18.1818Z" fill="#9CE5F4"/>
    <path d="M18.2806 18.9091H17.4595L19.1737 22.1818H19.9947L18.2806 18.9091Z" fill="#CFD3D4"/>
    <path d="M15.1737 18.9091L13.4595 22.1818H14.2806L15.9947 18.9091H15.1737Z" fill="#CFD3D4"/>
    <path d="M18.5454 18.9091H14.909C14.3076 18.9091 13.8181 18.4196 13.8181 17.8182V16C13.8181 15.3985 14.3076 14.9091 14.909 14.9091H18.5454C19.1468 14.9091 19.6363 15.3985 19.6363 16V17.8182C19.6363 18.4196 19.1468 18.9091 18.5454 18.9091ZM14.909 15.6364C14.7087 15.6364 14.5454 15.7993 14.5454 16V17.8182C14.5454 18.0189 14.7087 18.1818 14.909 18.1818H18.5454C18.7458 18.1818 18.909 18.0189 18.909 17.8182V16C18.909 15.7993 18.7458 15.6364 18.5454 15.6364H14.909Z" fill="#40C9E7"/>
    <path d="M30.5977 20.9084L22.8875 29.624L20.7504 30.064C20.6886 29.7665 20.5348 29.4847 20.2897 29.268C20.0446 29.0513 19.746 28.9327 19.4431 28.9076L19.6191 26.7327L27.3293 18.0175L30.5977 20.9084Z" fill="#F4D0A1"/>
    <path d="M30.5871 20.8993C30.5929 20.9044 30.5933 20.9131 30.5882 20.9189L23.0533 29.4364C23.0413 29.4502 23.022 29.4356 23.0308 29.4193C23.2675 28.9829 23.1813 28.4273 22.7933 28.084C22.3839 27.7218 21.7806 27.7222 21.3733 28.0615C21.3617 28.0713 21.346 28.0575 21.3544 28.0447C21.6417 27.5993 21.5686 27.0007 21.1591 26.6382C20.7668 26.2909 20.1962 26.2771 19.7911 26.5753C19.778 26.5851 19.7631 26.5698 19.774 26.5574L27.3202 18.0273C27.3253 18.0215 27.334 18.0211 27.3399 18.0262L30.5871 20.8993Z" fill="#059BBF"/>
    <path d="M31.0801 20.3645L27.8118 17.4732L27.3299 18.0179L30.5982 20.9092L31.0801 20.3645Z" fill="#FACB1B"/>
    <path d="M30.9076 17.2986L30.8749 17.2695C29.9815 16.4789 28.6164 16.5626 27.8258 17.456L27.8113 17.4724L31.0796 20.3636L31.0942 20.3473C31.8847 19.4538 31.8011 18.0887 30.9076 17.2986Z" fill="#F79392"/>
    <path d="M30.5887 20.9189L23.044 29.4469C23.0331 29.4593 23.016 29.4462 23.024 29.4316C23.2691 28.9935 23.1854 28.4305 22.7934 28.0836C22.3847 27.7222 21.7836 27.7218 21.3763 28.0589C21.3694 28.0644 21.3614 28.056 21.3672 28.0495L28.9545 19.4727C28.9596 19.4669 28.9683 19.4665 28.9738 19.4716L30.5872 20.8989C30.5931 20.9044 30.5938 20.9131 30.5887 20.9189Z" fill="#0484AB"/>
    <path d="M20.7504 30.0636L19.3257 30.3571L19.4431 28.9073C19.746 28.9324 20.0446 29.0509 20.2897 29.2676C20.5348 29.4844 20.6886 29.7662 20.7504 30.0636Z" fill="#3E3E3F"/>
</svg>
