<svg width="40" height="40" viewBox="0 0 40 40" fill="none" xmlns="http://www.w3.org/2000/svg">
    <circle cx="20" cy="20" r="20" fill="#FFF4ED"/>
    <circle cx="4.20038" cy="4.20038" r="4.20038" transform="matrix(-1 0 0 1 21.5787 9.49905)" fill="#FF6600"/>
    <path fill-rule="evenodd" clip-rule="evenodd" d="M12.6696 19.0739C13.1612 18.8413 13.7301 18.9662 14.188 19.2597C15.1223 19.8586 16.2124 20.2023 17.3765 20.2023C18.5404 20.2023 19.6304 19.8587 20.5647 19.2598C21.0226 18.9664 21.5915 18.8415 22.0831 19.0742C24.4299 20.1847 25.9802 22.1018 25.9802 24.2805C25.9802 27.715 22.128 30.4992 17.3761 30.4992C12.6241 30.4992 8.77194 27.715 8.77194 24.2805C8.77194 22.1016 10.3225 20.1844 12.6696 19.0739Z" fill="#FF6600"/>
    <circle cx="24.228" cy="22.1002" r="7" fill="white"/>
    <path d="M20.2857 22.5714L26 19" stroke="#FF6600"/>
    <path d="M20.2857 21.8571L26 25.4286" stroke="#FF6600"/>
    <circle cx="25.9643" cy="19.25" r="1.75" fill="#FF6600"/>
    <circle cx="25.9643" cy="25.25" r="1.75" fill="#FF6600"/>
    <circle cx="21.25" cy="22.25" r="1.75" fill="#FF6600"/>
</svg>
