<svg width="71" height="64" viewBox="0 0 71 64" fill="none" xmlns="http://www.w3.org/2000/svg">
    <path d="M10.7581 14.8638C10.5048 14.8638 10.2514 14.8558 9.99805 14.8397L10.1105 12.6755C11.1728 12.7415 12.2375 12.6443 13.2753 12.3867L13.7136 14.5001C12.7426 14.7408 11.752 14.8638 10.7581 14.8638Z" fill="#5BCEC5"/>
    <path d="M5.44818 42.8286C5.44818 42.8286 5.42336 42.8248 5.41214 42.8251C4.64935 42.6966 3.91796 42.3068 3.30181 41.8554C3.15058 41.7425 3.00142 41.6228 2.86319 41.4916C2.66973 41.3102 2.48721 41.1172 2.32241 40.9148C1.67918 40.1137 1.29185 39.1306 1.37665 38.0724C1.38289 37.9666 1.39592 37.8629 1.41338 37.7569C1.42906 37.6688 1.44475 37.5808 1.46486 37.4904C1.47521 37.4564 1.48055 37.4024 1.48262 37.3956C1.41667 37.6242 1.34629 37.8552 1.2827 38.0883C1.21527 38.3462 1.15463 38.6062 1.13003 38.8697C1.03907 39.7776 1.28196 40.6498 1.74617 41.3926C1.84451 41.5451 1.94728 41.6952 2.06334 41.8382C2.31644 42.153 2.60471 42.4375 2.92784 42.6808C3.54458 43.1546 4.27449 43.5737 5.04908 43.7243C5.0739 43.7281 5.09428 43.7344 5.1191 43.7382C5.2347 43.4319 5.37984 43.1382 5.45025 42.8218L5.44818 42.8286Z" fill="#FFC02E"/>
    <path d="M1.4802 37.4016C1.58962 37.0302 1.72651 36.6784 1.91096 36.3411C2.22192 35.7713 2.6537 35.268 3.16699 34.8749C3.23961 35.0752 3.32996 35.2661 3.43597 35.4543C2.92891 35.7416 2.48269 36.1217 2.1171 36.5784C1.86471 36.895 1.6513 37.2421 1.48102 37.606C1.45767 37.6583 1.43432 37.7106 1.41539 37.7605C1.43108 37.6725 1.44676 37.5844 1.46688 37.494C1.47723 37.4601 1.48256 37.406 1.48463 37.3992L1.4802 37.4016Z" fill="#FFDF87"/>
    <path d="M3.3581 32.0399C3.55 31.471 3.97292 30.9724 4.52368 30.7244C4.99231 30.5145 5.51378 30.4357 6.02017 30.3821C7.25485 30.2534 8.50335 30.3107 9.7445 30.2582C10.2606 30.2336 10.7877 30.1974 11.2921 30.0652C11.5175 30.0076 11.7601 29.9182 11.9519 29.7761C11.9755 29.8204 11.9879 29.8651 12.0026 29.9141C12.0127 29.9543 12.0183 29.9968 12.0171 30.0373C12.0179 30.071 12.0168 30.1115 12.0176 30.1451C12.0159 30.1632 12.0141 30.1812 12.0102 30.206C12.0025 30.2556 11.988 30.3032 11.9756 30.344C11.9694 30.3643 11.9588 30.3871 11.9502 30.403C11.9461 30.4166 11.9351 30.4281 11.931 30.4417C11.7725 30.7424 11.4192 30.8909 11.1092 30.9821C10.6187 31.1297 10.0961 31.1636 9.59119 31.1879C8.97194 31.222 8.35182 31.2224 7.72963 31.2296C7.10743 31.2368 6.4876 31.2485 5.86451 31.3074C5.34895 31.3545 4.82069 31.4312 4.33818 31.6257C3.85568 31.8203 3.47682 32.1986 3.24152 32.6541C3.24656 32.5888 3.25367 32.5167 3.2655 32.4535C3.2732 32.4039 3.28533 32.3519 3.29746 32.2999C3.31993 32.2139 3.33798 32.1303 3.36725 32.0464L3.3581 32.0399Z" fill="#FFDF87"/>
    <path d="M9.79029 36.057C9.79029 36.057 9.76901 36.1025 9.75393 36.1276C9.72822 36.1755 9.70014 36.2189 9.67206 36.2623C9.65462 36.283 9.63955 36.3081 9.62654 36.3264C9.61741 36.2345 9.59705 36.1429 9.57019 36.0605C9.46511 35.7352 9.1334 35.5079 8.85071 35.3513C8.41294 35.1065 7.91487 34.9622 7.41591 34.8696C6.32757 34.6642 5.17003 34.7348 4.13322 35.128C3.97108 34.9412 3.82431 34.7406 3.69497 34.5193C4.71351 33.9423 5.93106 33.7601 7.08856 33.8603C7.63127 33.9068 8.17809 34.0251 8.68884 34.2253C9.05426 34.3663 9.43472 34.5676 9.68546 34.8779C9.93856 35.1926 9.9151 35.5864 9.8305 35.9616C9.82636 35.9752 9.81779 35.9912 9.81158 36.0115C9.803 36.0275 9.79886 36.0411 9.79265 36.0615L9.79029 36.057Z" fill="#FFDF87"/>
    <path d="M3.28849 32.296C3.27636 32.348 3.26866 32.3976 3.25653 32.4496C3.24706 32.5173 3.23759 32.5849 3.23254 32.6502C3.23077 32.6682 3.23135 32.6907 3.22957 32.7087C3.21888 32.9022 3.23064 33.0951 3.25806 33.2854C3.31527 33.6704 3.44397 34.04 3.62143 34.3837C3.64505 34.428 3.67104 34.4767 3.69466 34.5211C3.81956 34.7448 3.96634 34.9454 4.13291 35.1298C4.5012 35.5539 4.96169 35.8946 5.46119 36.1805C6.19346 36.604 7.02177 36.9195 7.87439 36.9602C8.42774 36.984 9.02485 36.8764 9.45335 36.5057C9.51481 36.4502 9.56948 36.3926 9.6218 36.3306C9.63923 36.3099 9.65667 36.2892 9.66731 36.2665C9.69539 36.2231 9.72347 36.1796 9.74919 36.1318C9.75983 36.109 9.7749 36.0839 9.78555 36.0612C9.79412 36.0452 9.79826 36.0316 9.80447 36.0113C9.81068 35.9909 9.81925 35.9749 9.82339 35.9613C9.80327 36.0517 9.77873 36.1445 9.75625 36.2305C9.74619 36.2757 9.72934 36.3188 9.71928 36.364C9.64179 36.6671 9.56695 36.9858 9.37809 37.2402C9.23475 37.4304 9.03854 37.5748 8.8255 37.677C8.25315 37.9592 7.56715 37.9321 6.95947 37.8064C6.06494 37.623 5.17492 37.181 4.45716 36.6245C4.04217 36.305 3.69692 35.9028 3.43795 35.449C3.33194 35.2607 3.24159 35.0699 3.16897 34.8695C3.1424 34.7983 3.1182 34.7315 3.09842 34.6624C2.93136 34.114 2.96018 33.5808 3.06994 33.0499C3.07201 33.0431 3.07172 33.0319 3.07379 33.0251C3.09419 32.9459 3.16428 32.7037 3.28849 32.296Z" fill="#FFC02E"/>
    <path d="M12.2404 29.3667C12.257 29.3124 12.2671 29.2672 12.2685 29.2379C12.2848 29.087 12.2586 28.9416 12.1877 28.8086C12.0085 28.483 11.6593 28.2764 11.3403 28.1049C10.8733 27.8587 10.372 27.6763 9.86862 27.5006C9.56937 27.3983 9.27248 27.3004 8.97116 27.2049L8.71209 28.1284C9.39183 28.3466 10.0671 28.5672 10.7129 28.8605C11.0857 29.026 11.4907 29.22 11.7683 29.5273C11.8353 29.5997 11.8982 29.6857 11.941 29.7767C11.9647 29.821 11.9771 29.8656 11.9918 29.9147C12.0019 29.9549 12.0075 29.9974 12.0063 30.0379C12.0071 30.0716 12.0059 30.112 12.0068 30.1457C12.005 30.1637 12.0033 30.1818 11.9994 30.2066C11.9953 30.2202 11.9935 30.2382 11.9894 30.2518L12.2404 29.3667Z" fill="#FFC02E"/>
    <path d="M59.1688 30.4998C59.5155 30.8032 59.9779 31.0973 60.4742 31.4044C60.4965 31.4227 60.522 31.4325 60.5442 31.4507L60.8517 28.7275C60.8517 28.7275 60.804 28.6994 60.7817 28.6812C60.2939 28.3773 59.823 28.08 59.4763 27.7766C59.1629 27.5006 58.9737 27.2185 59.0021 26.9663L58.6947 29.6895C58.6662 29.9418 58.8554 30.2238 59.1688 30.4998Z" fill="#FFDF87"/>
    <path d="M60.5224 24.8946C60.7238 25.0303 60.9396 25.1666 61.1613 25.3002C61.6577 25.6073 62.1573 25.906 62.5556 26.2145C62.9291 26.4989 63.1987 26.7874 63.2592 27.0494L63.5608 24.3287C63.5036 24.0583 63.2307 23.7783 62.8573 23.4939C62.453 23.188 61.9593 22.8867 61.4629 22.5796C61.2413 22.4459 61.0255 22.3096 60.824 22.174L60.5165 24.8972L60.5224 24.8946Z" fill="#FFDF87"/>
    <path d="M63.5576 24.3868C63.5292 24.6391 63.2799 24.8701 62.911 25.0699C62.5094 25.2913 61.9856 25.4755 61.4415 25.6618C60.8857 25.8534 60.339 26.0338 59.8773 26.2467C59.4541 26.4355 59.1244 26.66 59.0097 26.9085C58.9632 27.3097 58.7488 29.2305 58.7023 29.6317C58.8169 29.3833 59.1492 29.1646 59.5698 28.97C60.0282 28.7655 60.5782 28.5766 61.134 28.3851C61.684 28.1962 62.2078 28.0119 62.6035 27.7931C62.9724 27.5934 63.2217 27.3624 63.2501 27.1101C63.2967 26.7088 63.5111 24.7881 63.5576 24.3868Z" fill="#FFC02E"/>
    <path d="M61.6602 41.4157C61.6602 41.4157 63.2997 44.3191 65.4086 43.7383L66.6142 42.6151C66.6142 42.6151 62.8476 41.5319 62.6969 40.7188L61.6602 41.4157Z" fill="#FF5C00"/>
    <path d="M55.6586 18.6043C55.3809 17.6689 54.863 16.7656 54.1611 15.9913L55.9973 14.8887C56.8784 15.8607 57.5277 16.9946 57.8767 18.1683L55.6596 18.6043H55.6586Z" fill="#FF558E"/>
    <path d="M35.6223 10.8235L34.6953 8.6505C36.1001 7.8605 37.1945 6.35811 37.6211 4.63086L39.6494 5.29151C39.0615 7.66847 37.5561 9.73601 35.6223 10.8235Z" fill="#86ABF3"/>
    <path d="M16.4004 34.2012H53.6004V57.4012C53.6004 58.7267 52.5259 59.8012 51.2004 59.8012H18.8004C17.4749 59.8012 16.4004 58.7267 16.4004 57.4012V34.2012Z" fill="#FF6600"/>
    <path d="M16.4004 33.4006H53.6004V39.4006H16.4004V33.4006Z" fill="#202020" fill-opacity="0.13"/>
    <path d="M39 36.0001H31V59.8001H39V36.0001Z" fill="#FFC70F"/>
    <mask id="mask0_2772_3858" style="mask-type:alpha" maskUnits="userSpaceOnUse" x="22" y="14" width="26" height="15">
        <path fill-rule="evenodd" clip-rule="evenodd" d="M31.082 24.9706L32.8997 25.6132L31.9485 22.2915C31.5099 20.7601 30.7873 19.3248 29.8184 18.0604L29.5231 17.6751C28.4651 16.2947 26.4063 16.2338 25.2686 17.5493C24.3032 18.6657 24.3935 20.3457 25.4731 21.3521L26.1402 21.9741C27.5642 23.3016 29.2464 24.3217 31.082 24.9706ZM35 23.5033L34.448 21.5757C33.9197 19.731 33.0493 18.002 31.882 16.4789L31.5867 16.0936C29.5266 13.4054 25.5174 13.2868 23.302 15.8486C21.422 18.0226 21.5979 21.2941 23.7002 23.2539L24.3673 23.8758C26.0525 25.4469 28.0432 26.654 30.2153 27.4219L33.6525 28.6371C34.1315 28.8064 34.6074 28.7527 35 28.5511C35.3927 28.7527 35.8685 28.8064 36.3474 28.6371L39.7847 27.4219C41.9568 26.654 43.9475 25.4469 45.6327 23.8758L46.2998 23.2539C48.4021 21.2941 48.578 18.0226 46.698 15.8486C44.4826 13.2868 40.4734 13.4054 38.4133 16.0936L38.118 16.4789C36.9507 18.002 36.0803 19.731 35.552 21.5757L35 23.5033ZM38.918 24.9706L37.1003 25.6132L38.0515 22.2915C38.4901 20.7601 39.2127 19.3248 40.1816 18.0604L40.4769 17.6751C41.5349 16.2947 43.5937 16.2338 44.7314 17.5493C45.6968 18.6657 45.6065 20.3457 44.5269 21.3521L43.8598 21.9741C42.4358 23.3016 40.7536 24.3217 38.918 24.9706Z" fill="#FFC70F"/>
    </mask>
    <g mask="url(#mask0_2772_3858)">
        <path fill-rule="evenodd" clip-rule="evenodd" d="M31.082 24.9706L32.8997 25.6132L31.9485 22.2915C31.5099 20.7601 30.7873 19.3248 29.8184 18.0604L29.5231 17.6751C28.4651 16.2947 26.4063 16.2338 25.2686 17.5493C24.3032 18.6657 24.3935 20.3457 25.4731 21.3521L26.1402 21.9741C27.5642 23.3016 29.2464 24.3217 31.082 24.9706ZM35 23.5033L34.448 21.5757C33.9197 19.731 33.0493 18.002 31.882 16.4789L31.5867 16.0936C29.5266 13.4054 25.5174 13.2868 23.302 15.8486C21.422 18.0226 21.5979 21.2941 23.7002 23.2539L24.3673 23.8758C26.0525 25.4469 28.0432 26.654 30.2153 27.4219L33.6525 28.6371C34.1315 28.8064 34.6074 28.7527 35 28.5511C35.3927 28.7527 35.8685 28.8064 36.3474 28.6371L39.7847 27.4219C41.9568 26.654 43.9475 25.4469 45.6327 23.8758L46.2998 23.2539C48.4021 21.2941 48.578 18.0226 46.698 15.8486C44.4826 13.2868 40.4734 13.4054 38.4133 16.0936L38.118 16.4789C36.9507 18.002 36.0803 19.731 35.552 21.5757L35 23.5033ZM38.918 24.9706L37.1003 25.6132L38.0515 22.2915C38.4901 20.7601 39.2127 19.3248 40.1816 18.0604L40.4769 17.6751C41.5349 16.2947 43.5937 16.2338 44.7314 17.5493C45.6968 18.6657 45.6065 20.3457 44.5269 21.3521L43.8598 21.9741C42.4358 23.3016 40.7536 24.3217 38.918 24.9706Z" fill="#FFC70F"/>
        <path d="M21.417 15.7988L45.5962 26.1535L41.4678 35.7936L17.2887 25.4389L21.417 15.7988Z" fill="#F37321" fill-opacity="0.25"/>
    </g>
    <path d="M15 28.799C15 27.6944 15.8954 26.799 17 26.799H53C54.1046 26.799 55 27.6944 55 28.799V35.999H15V28.799Z" fill="#FF6600"/>
    <path d="M39 26.7991H31V35.9991H39V26.7991Z" fill="#FFC70F"/>
</svg>