<svg width="50" height="46" viewBox="0 0 50 46" fill="none" xmlns="http://www.w3.org/2000/svg">
    <g filter="url(#filter0_d_3842_13192)">
        <path fill-rule="evenodd" clip-rule="evenodd" d="M8.5 2C4.91015 2 2 4.91015 2 8.5C2 12.0899 4.91015 15 8.5 15H22.268L24 18L25.7321 15H39.5C43.0899 15 46 12.0899 46 8.5C46 4.91015 43.0899 2 39.5 2H8.5Z" fill="#9E2EF3"/>
        <path d="M12.6182 9.31152H11.8936V7.62988H11.292V9.10645H10.5811V5.55176H11.292V7.01465H11.8936V5.42871H12.6182V9.31152ZM7.2998 6.09863H8.46875V5.4834H9.2207V6.09863H10.376V6.69336H7.2998V6.09863ZM7.51855 8.0127C7.51628 7.80306 7.57096 7.61735 7.68262 7.45557C7.79655 7.2915 7.95492 7.16618 8.15771 7.07959C8.36051 6.99072 8.58952 6.94629 8.84473 6.94629C9.10449 6.94629 9.33577 6.99072 9.53857 7.07959C9.74137 7.16618 9.89974 7.29036 10.0137 7.45215C10.1299 7.61393 10.1891 7.80078 10.1914 8.0127C10.1891 8.22461 10.1299 8.41146 10.0137 8.57324C9.89974 8.73275 9.74137 8.85693 9.53857 8.9458C9.33577 9.03467 9.10449 9.0791 8.84473 9.0791C8.58952 9.0791 8.36051 9.03467 8.15771 8.9458C7.95492 8.85693 7.79655 8.73161 7.68262 8.56982C7.57096 8.40804 7.51628 8.22233 7.51855 8.0127ZM8.19531 8.0127C8.19531 8.16992 8.25456 8.29639 8.37305 8.39209C8.49382 8.48551 8.65104 8.53223 8.84473 8.53223C9.04069 8.53223 9.19906 8.48551 9.31982 8.39209C9.44059 8.29639 9.50098 8.16992 9.50098 8.0127C9.50098 7.85547 9.44059 7.73014 9.31982 7.63672C9.19906 7.54102 9.04069 7.49316 8.84473 7.49316C8.65104 7.49316 8.49382 7.54102 8.37305 7.63672C8.25456 7.73014 8.19531 7.85547 8.19531 8.0127ZM8.41406 10.501C8.41406 10.2663 8.49837 10.0658 8.66699 9.89941C8.83561 9.73307 9.07829 9.60661 9.39502 9.52002C9.71403 9.43115 10.0934 9.38672 10.5332 9.38672C10.973 9.38672 11.3512 9.43115 11.668 9.52002C11.9847 9.60661 12.2274 9.73307 12.396 9.89941C12.5669 10.0658 12.6523 10.2663 12.6523 10.501C12.6523 10.7311 12.5669 10.9282 12.396 11.0923C12.2274 11.2586 11.9836 11.3851 11.6646 11.4717C11.3478 11.5583 10.9707 11.6016 10.5332 11.6016C10.0934 11.6016 9.71403 11.5583 9.39502 11.4717C9.07829 11.3851 8.83561 11.2586 8.66699 11.0923C8.49837 10.9282 8.41406 10.7311 8.41406 10.501ZM9.17285 10.501C9.17057 10.6696 9.28451 10.7983 9.51465 10.8872C9.74479 10.9761 10.0763 11.0205 10.5093 11.0205C10.9582 11.0205 11.2988 10.9772 11.5312 10.8906C11.766 10.8018 11.8844 10.6719 11.8867 10.501C11.8844 10.3232 11.7682 10.1888 11.5381 10.0977C11.3079 10.0065 10.973 9.96322 10.5332 9.96777C10.0889 9.96322 9.75049 10.0065 9.51807 10.0977C9.28564 10.1888 9.17057 10.3232 9.17285 10.501ZM15.5918 6.91211C15.5895 7.28353 15.6476 7.64583 15.7661 7.99902C15.8869 8.35221 16.0601 8.66895 16.2856 8.94922C16.5135 9.22721 16.7835 9.44141 17.0957 9.5918L16.6309 10.2002C16.3027 10.0339 16.0179 9.79688 15.7764 9.48926C15.5371 9.18164 15.3503 8.82617 15.2158 8.42285C15.0768 8.85352 14.8809 9.23405 14.6279 9.56445C14.3773 9.89258 14.0788 10.1432 13.7324 10.3164L13.2676 9.70801C13.5889 9.55534 13.8669 9.33317 14.1016 9.0415C14.3385 8.74756 14.5186 8.41602 14.6416 8.04688C14.7669 7.67546 14.8307 7.2972 14.833 6.91211V5.92773H15.5918V6.91211ZM17.4648 5.42871H18.2236V7.84863H19.1738V8.49805H18.2236V11.6084H17.4648V5.42871ZM19.6865 11V6.05078H21.3955C21.8854 6.05078 22.3081 6.1499 22.6636 6.34814C23.019 6.54411 23.2913 6.8278 23.4805 7.19922C23.6719 7.56836 23.7676 8.00814 23.7676 8.51855C23.7676 9.03125 23.6719 9.47445 23.4805 9.84814C23.2891 10.2196 23.0133 10.5044 22.6533 10.7026C22.2933 10.9009 21.8649 11 21.3682 11H19.6865ZM21.3203 10.2275C22.3594 10.2321 22.8789 9.66243 22.8789 8.51855C22.8789 7.95345 22.7502 7.52962 22.4927 7.24707C22.2352 6.96224 21.8535 6.82096 21.3477 6.82324H20.5752V10.2275H21.3203ZM26.7617 8.8877H24.5332V8.16992H26.7617V8.8877ZM27.6572 11V6.05078H29.3662C29.8561 6.05078 30.2788 6.1499 30.6343 6.34814C30.9897 6.54411 31.262 6.8278 31.4512 7.19922C31.6426 7.56836 31.7383 8.00814 31.7383 8.51855C31.7383 9.03125 31.6426 9.47445 31.4512 9.84814C31.2598 10.2196 30.984 10.5044 30.624 10.7026C30.264 10.9009 29.8356 11 29.3389 11H27.6572ZM29.291 10.2275C30.3301 10.2321 30.8496 9.66243 30.8496 8.51855C30.8496 7.95345 30.7209 7.52962 30.4634 7.24707C30.2059 6.96224 29.8242 6.82096 29.3184 6.82324H28.5459V10.2275H29.291ZM31.9365 11L33.6797 6.05078H34.7734L36.5234 11H35.5732L35.1597 9.77637H33.2969L32.8867 11H31.9365ZM34.9204 9.05859L34.2471 7.0625H34.2061L33.5361 9.05859H34.9204ZM37.2686 6.05078L38.4854 8.23828H38.5332L39.75 6.05078H40.7549L38.957 9.14746V11H38.0684V9.14746L36.2637 6.05078H37.2686Z" fill="white"/>
        <circle cx="24" cy="30" r="12" fill="#9E2EF3"/>
        <circle cx="24" cy="30" r="10" stroke="white" stroke-opacity="0.6" stroke-linecap="round" stroke-dasharray="0.5 1.5"/>
        <g clip-path="url(#clip0_3842_13192)">
            <path d="M23.3016 23.9085C23.485 23.5369 24.015 23.5369 24.1984 23.9085L25.6909 26.9327C25.7637 27.0803 25.9045 27.1826 26.0674 27.2062L29.4048 27.6912C29.8149 27.7508 29.9787 28.2548 29.6819 28.544L27.2669 30.8981C27.1491 31.0129 27.0953 31.1784 27.1231 31.3406L27.6932 34.6646C27.7633 35.073 27.3346 35.3845 26.9678 35.1917L23.9827 33.6223C23.837 33.5457 23.663 33.5457 23.5173 33.6223L20.5322 35.1917C20.1654 35.3845 19.7367 35.073 19.8068 34.6646L20.3769 31.3406C20.4047 31.1784 20.3509 31.0129 20.2331 30.8981L17.8181 28.544C17.5213 28.2548 17.6851 27.7508 18.0952 27.6912L21.4326 27.2062C21.5955 27.1826 21.7363 27.0803 21.8091 26.9327L23.3016 23.9085Z" fill="white"/>
            <path d="M22.79 30.4289C22.79 30.4289 23.165 30.8574 23.79 30.8574C24.415 30.8574 24.79 30.4289 24.79 30.4289M24.5758 29.0003H24.5786M23.0043 29.0003H23.0072M24.7186 29.0003C24.7186 29.0792 24.6547 29.1431 24.5758 29.1431C24.4969 29.1431 24.4329 29.0792 24.4329 29.0003C24.4329 28.9214 24.4969 28.8574 24.5758 28.8574C24.6547 28.8574 24.7186 28.9214 24.7186 29.0003ZM23.1472 29.0003C23.1472 29.0792 23.0832 29.1431 23.0043 29.1431C22.9254 29.1431 22.8615 29.0792 22.8615 29.0003C22.8615 28.9214 22.9254 28.8574 23.0043 28.8574C23.0832 28.8574 23.1472 28.9214 23.1472 29.0003Z" stroke="black" stroke-opacity="0.5" stroke-width="0.5" stroke-linecap="round" stroke-linejoin="round"/>
        </g>
    </g>
    <defs>
        <filter id="filter0_d_3842_13192" x="0" y="0" width="50" height="46" filterUnits="userSpaceOnUse" color-interpolation-filters="sRGB">
            <feFlood flood-opacity="0" result="BackgroundImageFix"/>
            <feColorMatrix in="SourceAlpha" type="matrix" values="0 0 0 0 0 0 0 0 0 0 0 0 0 0 0 0 0 0 127 0" result="hardAlpha"/>
            <feOffset dx="1" dy="1"/>
            <feGaussianBlur stdDeviation="1.5"/>
            <feComposite in2="hardAlpha" operator="out"/>
            <feColorMatrix type="matrix" values="0 0 0 0 0 0 0 0 0 0 0 0 0 0 0 0 0 0 0.25 0"/>
            <feBlend mode="normal" in2="BackgroundImageFix" result="effect1_dropShadow_3842_13192"/>
            <feBlend mode="normal" in="SourceGraphic" in2="effect1_dropShadow_3842_13192" result="shape"/>
        </filter>
        <clipPath id="clip0_3842_13192">
            <rect width="14" height="14" fill="white" transform="translate(17 22)"/>
        </clipPath>
    </defs>
</svg>
