<svg width="20" height="23" viewBox="0 0 20 23" fill="none" xmlns="http://www.w3.org/2000/svg">
    <path d="M0.700195 10.1016H19.3002V21.7016C19.3002 22.3643 18.7629 22.9016 18.1002 22.9016H1.9002C1.23745 22.9016 0.700195 22.3643 0.700195 21.7016V10.1016Z" fill="#FF6600"/>
    <path d="M0.700195 9.70117H19.3002V12.7012H0.700195V9.70117Z" fill="#202020" fill-opacity="0.13"/>
    <path d="M11 11.002H9V22.902H11V11.002Z" fill="white"/>
    <mask id="mask0_2772_1560" style="mask-type:alpha" maskUnits="userSpaceOnUse" x="3" y="0" width="14" height="8">
        <path fill-rule="evenodd" clip-rule="evenodd" d="M8.04099 5.4853L8.94984 5.80661L8.47424 4.14576C8.25497 3.38005 7.89367 2.6624 7.40918 2.03022L7.26154 1.83756C6.73256 1.14733 5.70316 1.11689 5.13432 1.77467C4.65161 2.33286 4.69677 3.17286 5.23655 3.67607L5.5701 3.98703C6.28211 4.65082 7.12322 5.16084 8.04099 5.4853ZM10 4.75167L9.724 3.78787C9.45986 2.86549 9.02464 2.00099 8.44102 1.23945L8.29337 1.04679C7.26329 -0.29731 5.25871 -0.356581 4.15101 0.924312C3.21101 2.01129 3.29896 3.64703 4.35008 4.62695L4.68363 4.93791C5.52623 5.72343 6.52159 6.32699 7.60767 6.71096L9.32627 7.31855C9.56577 7.40322 9.80368 7.37635 10 7.27555C10.1963 7.37635 10.4342 7.40322 10.6737 7.31855L12.3923 6.71096C13.4784 6.32699 14.4738 5.72343 15.3164 4.93791L15.6499 4.62695C16.701 3.64703 16.789 2.01129 15.849 0.924312C14.7413 -0.356581 12.7367 -0.29731 11.7066 1.04679L11.559 1.23945C10.9754 2.00099 10.5401 2.86549 10.276 3.78787L10 4.75167ZM11.959 5.4853L11.0502 5.80661L11.5258 4.14576C11.745 3.38005 12.1063 2.6624 12.5908 2.03022L12.7385 1.83756C13.2674 1.14733 14.2968 1.11689 14.8657 1.77467C15.3484 2.33286 15.3032 3.17286 14.7635 3.67607L14.4299 3.98703C13.7179 4.65082 12.8768 5.16084 11.959 5.4853Z" fill="#FFC70F"/>
    </mask>
    <g mask="url(#mask0_2772_1560)">
        <path fill-rule="evenodd" clip-rule="evenodd" d="M8.04099 5.4853L8.94984 5.80661L8.47424 4.14576C8.25497 3.38005 7.89367 2.6624 7.40918 2.03022L7.26154 1.83756C6.73256 1.14733 5.70316 1.11689 5.13432 1.77467C4.65161 2.33286 4.69677 3.17286 5.23655 3.67607L5.5701 3.98703C6.28211 4.65082 7.12322 5.16084 8.04099 5.4853ZM10 4.75167L9.724 3.78787C9.45986 2.86549 9.02464 2.00099 8.44102 1.23945L8.29337 1.04679C7.26329 -0.29731 5.25871 -0.356581 4.15101 0.924312C3.21101 2.01129 3.29896 3.64703 4.35008 4.62695L4.68363 4.93791C5.52623 5.72343 6.52159 6.32699 7.60767 6.71096L9.32627 7.31855C9.56577 7.40322 9.80368 7.37635 10 7.27555C10.1963 7.37635 10.4342 7.40322 10.6737 7.31855L12.3923 6.71096C13.4784 6.32699 14.4738 5.72343 15.3164 4.93791L15.6499 4.62695C16.701 3.64703 16.789 2.01129 15.849 0.924312C14.7413 -0.356581 12.7367 -0.29731 11.7066 1.04679L11.559 1.23945C10.9754 2.00099 10.5401 2.86549 10.276 3.78787L10 4.75167ZM11.959 5.4853L11.0502 5.80661L11.5258 4.14576C11.745 3.38005 12.1063 2.6624 12.5908 2.03022L12.7385 1.83756C13.2674 1.14733 14.2968 1.11689 14.8657 1.77467C15.3484 2.33286 15.3032 3.17286 14.7635 3.67607L14.4299 3.98703C13.7179 4.65082 12.8768 5.16084 11.959 5.4853Z" fill="#FF6600"/>
        <path d="M3.20898 0.900391L15.2986 6.07774L13.2344 10.8978L1.14481 5.72042L3.20898 0.900391Z" fill="#F37321" fill-opacity="0.25"/>
    </g>
    <path d="M0 7.40039C0 6.84811 0.447715 6.40039 1 6.40039H19C19.5523 6.40039 20 6.84811 20 7.40039V11.0004H0V7.40039Z" fill="#FF6600"/>
    <path d="M11 6.40039H9V11.0004H11V6.40039Z" fill="white"/>
</svg>
