<svg width="121" height="34" viewBox="0 0 121 34" fill="none" xmlns="http://www.w3.org/2000/svg">
    <path d="M13.9079 1.6582H0.5V32.5085H13.9079V1.6582Z" fill="#040000"/>
    <path d="M32.5186 32.5085H19.1107V1.6582H32.5186V7.26511C32.0441 7.55159 31.3815 7.82171 30.5307 8.07545C29.68 8.32919 28.7637 8.54201 27.7903 8.73027C26.8168 8.91035 25.8433 9.05768 24.8534 9.16409C23.8636 9.2705 23.0046 9.31961 22.2684 9.31961V10.4246C23.0046 10.4246 23.8554 10.3837 24.8125 10.31C25.7697 10.2282 26.735 10.1054 27.7084 9.93351C28.6819 9.76162 29.59 9.5488 30.4489 9.30324C31.2997 9.05768 31.995 8.75483 32.5186 8.41923V32.5248V32.5085Z" fill="#040000"/>
    <path d="M56.2582 18.3459H51.8816V32.5064H38.4737V18.3459H37.0912V8.40077H38.7518C39.2508 5.69144 40.3716 3.63694 42.1222 2.24545C43.8728 0.853951 46.3188 0.158203 49.4765 0.158203C49.951 0.158203 50.5154 0.190944 51.1699 0.256426C51.8243 0.321908 52.4869 0.411946 53.1414 0.51017C53.7958 0.616578 54.4093 0.739357 54.9738 0.886692C55.5383 1.03403 55.9637 1.19773 56.2582 1.37781V9.2684C54.9411 9.2684 53.6731 9.18655 52.4542 9.03103C51.2353 8.87551 50.0573 8.66269 48.9284 8.40077V9.5467C49.951 9.78408 51.0962 9.98052 52.356 10.136C53.6158 10.2916 54.9165 10.3734 56.2582 10.3734V18.3459Z" fill="#040000"/>
    <path d="M59.6041 20.5616C59.6041 18.589 59.9313 16.7964 60.5858 15.2003C61.2402 13.596 62.1974 12.2372 63.4408 11.1158C64.6924 10.0026 66.2222 9.135 68.0382 8.52929C69.8543 7.92358 71.9322 7.62073 74.2718 7.62073C77.3231 7.62073 79.8264 7.95632 81.7815 8.62752C83.7367 9.29871 85.2746 10.3464 86.379 11.7625V23.9503C83.7776 23.9503 81.2252 23.8521 78.7302 23.6557C76.2351 23.4592 73.7482 23.1073 71.2777 22.608V23.9913C72.4066 24.2777 73.601 24.5069 74.869 24.6788C76.1288 24.8507 77.4131 24.9817 78.7138 25.0717C80.0145 25.1618 81.3152 25.2272 82.6159 25.2682C83.9166 25.3091 85.1683 25.3255 86.379 25.3255V29.5818C84.6202 30.9733 82.6405 31.9146 80.4399 32.4057C78.2475 32.8968 75.7443 33.1342 72.9302 33.1342C70.9341 33.1342 69.1099 32.8477 67.4738 32.2829C65.8295 31.7182 64.4306 30.8914 63.2772 29.8192C62.1237 28.7387 61.2157 27.4291 60.5776 25.8739C59.9313 24.3269 59.6123 22.5507 59.6123 20.5453M71.2777 15.4295V16.5754C71.7767 16.7064 72.3494 16.821 72.9956 16.911C73.6419 17.001 74.2963 17.0911 74.9671 17.1647C75.6379 17.2466 76.2842 17.3039 76.9223 17.3448C77.5522 17.3857 78.1166 17.4021 78.6157 17.4021V16.2971C78.1166 16.2971 77.5604 16.2807 76.9387 16.2398C76.3169 16.1989 75.687 16.1416 75.049 16.0597C74.4027 15.9779 73.7564 15.8878 73.0938 15.7814C72.4394 15.675 71.834 15.5604 71.2777 15.4295Z" fill="#040000"/>
    <path d="M120.492 25.0902L115.837 15.3415L112.131 17.1996C111.869 16.8067 111.632 16.5038 111.42 16.291C112.205 15.4479 112.794 14.5475 113.17 13.5899C113.555 12.6322 113.743 11.65 113.743 10.6514C113.743 9.17801 113.457 7.852 112.876 6.66513C112.295 5.47827 111.493 4.47148 110.471 3.64477C109.448 2.81806 108.229 2.17961 106.822 1.72942C105.415 1.27923 103.902 1.05823 102.266 1.05823C100.793 1.05823 99.4106 1.30379 98.1099 1.78672C96.8091 2.27783 95.6802 2.93265 94.7149 3.75937C93.7578 4.58608 92.997 5.56012 92.4489 6.6815C91.9008 7.80289 91.6227 8.98975 91.6227 10.2503C91.6227 11.5108 91.8681 12.714 92.3753 13.7618C92.8743 14.8177 93.4797 15.6689 94.1914 16.3237C93.5369 16.7985 92.9725 17.3551 92.498 18.0017C92.0235 18.6484 91.6391 19.3196 91.3364 20.0317C91.0337 20.7438 90.8128 21.4559 90.6656 22.1598C90.5183 22.872 90.4529 23.5268 90.4529 24.1325C90.4529 25.524 90.731 26.7927 91.2791 27.9223C91.8272 29.0518 92.5635 30.0095 93.4879 30.8035C94.4041 31.5893 95.4512 32.195 96.621 32.6206C97.7908 33.0381 98.9934 33.2509 100.229 33.2509C100.777 33.2509 101.374 33.2018 102.004 33.0954C102.634 32.9889 103.255 32.8498 103.861 32.6779C104.466 32.506 105.014 32.3178 105.513 32.1049C106.012 31.8921 106.397 31.6711 106.659 31.4337L107.37 32.4569H119.633L116.516 27.1283L120.5 25.0738L120.492 25.0902ZM100.433 5.60105C100.564 5.09356 100.752 4.60245 101.276 4.2423C101.742 3.92307 102.364 4.05403 102.576 4.51241C102.683 4.74978 102.707 4.98715 102.699 5.23271C102.675 5.73201 102.47 6.26406 102.143 6.68969C102.069 6.78791 101.979 6.87795 101.873 6.9598C101.349 7.33633 100.67 7.18899 100.466 6.64058C100.335 6.28861 100.343 5.94483 100.433 5.59286M99.8278 8.59686C100.245 8.80967 100.719 8.98975 101.251 9.14527C101.775 9.30079 102.306 9.43175 102.846 9.53816C103.386 9.64457 103.893 9.72642 104.36 9.77553C104.834 9.83283 105.243 9.85739 105.579 9.85739V11.0443C104.736 11.0688 103.73 10.9788 102.56 10.766C101.39 10.5531 100.237 10.1848 99.1079 9.66094L99.8196 8.59686H99.8278ZM106.372 24.8528C105.947 24.8528 105.407 24.8201 104.736 24.7546C104.065 24.6891 103.354 24.5827 102.609 24.4353C101.857 24.288 101.112 24.1079 100.359 23.8787C99.6069 23.6577 98.9361 23.3876 98.3307 23.0684L99.0424 22.0043C99.5414 22.2417 100.139 22.4627 100.834 22.6755C101.529 22.8883 102.233 23.0684 102.945 23.2076C103.656 23.3549 104.327 23.4613 104.957 23.5431C105.587 23.625 106.061 23.6659 106.38 23.6659V24.8528H106.372ZM105.98 7.61462C105.906 7.71285 105.816 7.80289 105.71 7.88474C105.178 8.26126 104.507 8.11393 104.303 7.5737C104.172 7.22173 104.18 6.87795 104.27 6.52598C104.401 6.0185 104.589 5.52738 105.112 5.16723C105.579 4.84801 106.2 4.97897 106.413 5.43734C106.519 5.67472 106.544 5.91209 106.536 6.15765C106.511 6.65695 106.307 7.18899 105.98 7.61462Z" fill="#F37321"/>
</svg>
