<svg width="17" height="16" viewBox="0 0 17 16" fill="none" xmlns="http://www.w3.org/2000/svg">
    <circle cx="8.5" cy="8" r="8" fill="#FF6600"/>
    <circle cx="8.50004" cy="8.00004" r="6.66667" stroke="white" stroke-opacity="0.6" stroke-width="0.5" stroke-linecap="round" stroke-dasharray="0.5 1"/>
    <g clip-path="url(#clip0_3842_13142)">
        <path d="M4.33337 6.58338C4.33337 6.42601 4.40747 6.27781 4.53337 6.18338L8.03337 3.55838C8.21115 3.42504 8.4556 3.42504 8.63337 3.55838L12.1334 6.18338C12.2593 6.27781 12.3334 6.42601 12.3334 6.58338V10.8334C12.3334 11.1095 12.1095 11.3334 11.8334 11.3334H4.83337C4.55723 11.3334 4.33337 11.1095 4.33337 10.8334V6.58338Z" fill="white"/>
        <rect x="4.33337" y="7.02478" width="8" height="4.30771" rx="0.5" fill="white"/>
        <path d="M8.2177 4.27517L5.14985 6.45678C5.03345 6.53955 5.03883 6.71413 5.16009 6.78958L8.22794 8.69849C8.29263 8.73874 8.37457 8.73874 8.43926 8.69849L11.5071 6.78958C11.6284 6.71413 11.6337 6.53955 11.5174 6.45678L8.44951 4.27517C8.38011 4.22583 8.28709 4.22583 8.2177 4.27517Z" fill="#FF6600"/>
    </g>
    <defs>
        <clipPath id="clip0_3842_13142">
            <rect width="9.33333" height="8.66667" fill="white" transform="translate(3.83337 3.33337)"/>
        </clipPath>
    </defs>
</svg>
