<svg width="17" height="16" viewBox="0 0 17 16" fill="none" xmlns="http://www.w3.org/2000/svg">
    <circle cx="8.5" cy="8" r="8" fill="#9E2EF3"/>
    <circle cx="8.50004" cy="8.00004" r="6.66667" stroke="white" stroke-opacity="0.6" stroke-linecap="round" stroke-dasharray="0.5 1.5"/>
    <g clip-path="url(#clip0_3842_13154)">
        <path d="M8.05163 3.90715C8.23504 3.53553 8.76496 3.53553 8.94837 3.90715L9.85313 5.74039C9.92596 5.88797 10.0667 5.99025 10.2296 6.01391L12.2527 6.30789C12.6628 6.36748 12.8266 6.87147 12.5298 7.16074L11.0659 8.58772C10.948 8.70259 10.8943 8.86808 10.9221 9.03028L11.2677 11.0452C11.3377 11.4537 10.909 11.7651 10.5422 11.5723L8.73267 10.621C8.58701 10.5444 8.41299 10.5444 8.26733 10.621L6.45781 11.5723C6.091 11.7651 5.66228 11.4537 5.73234 11.0452L6.07792 9.03028C6.10574 8.86808 6.05197 8.70259 5.93412 8.58772L4.47019 7.16074C4.17343 6.87147 4.33719 6.36748 4.7473 6.30789L6.7704 6.01391C6.93326 5.99025 7.07404 5.88797 7.14687 5.74039L8.05163 3.90715Z" fill="white"/>
        <path d="M7.83337 8.21629C7.83337 8.21629 8.11462 8.53772 8.58337 8.53772C9.05212 8.53772 9.33337 8.21629 9.33337 8.21629M9.17266 7.14486H9.1748M7.99409 7.14486H7.99623M9.2798 7.14486C9.2798 7.20404 9.23183 7.25201 9.17266 7.25201C9.11349 7.25201 9.06552 7.20404 9.06552 7.14486C9.06552 7.08569 9.11349 7.03772 9.17266 7.03772C9.23183 7.03772 9.2798 7.08569 9.2798 7.14486ZM8.10123 7.14486C8.10123 7.20404 8.05326 7.25201 7.99409 7.25201C7.93491 7.25201 7.88695 7.20404 7.88695 7.14486C7.88695 7.08569 7.93491 7.03772 7.99409 7.03772C8.05326 7.03772 8.10123 7.08569 8.10123 7.14486Z" stroke="black" stroke-opacity="0.5" stroke-width="0.5" stroke-linecap="round" stroke-linejoin="round"/>
    </g>
    <defs>
        <clipPath id="clip0_3842_13154">
            <rect width="9.33333" height="9.33333" fill="white" transform="translate(3.83337 2.66663)"/>
        </clipPath>
    </defs>
</svg>
