<svg width="50" height="46" viewBox="0 0 50 46" fill="none" xmlns="http://www.w3.org/2000/svg">
    <g filter="url(#filter0_d_2772_1483)">
        <path fill-rule="evenodd" clip-rule="evenodd" d="M8.5 2C4.91015 2 2 4.91015 2 8.5C2 12.0899 4.91015 15 8.5 15H17.2679L19 18L20.7321 15H29.5C33.0899 15 36 12.0899 36 8.5C36 4.91015 33.0899 2 29.5 2H8.5Z" fill="#FF6600"/>
        <path d="M12.5957 8.04004H8.30273V5.72266H9.06152V7.4248H12.5957V8.04004ZM13.2383 9.41406H11.8848V11.6084H11.1191V9.41406H9.72461V11.6084H8.96582V9.41406H7.60547V8.79883H13.2383V9.41406ZM16.8477 6.27637C16.8477 6.5931 16.9434 6.90186 17.1348 7.20264C17.3285 7.50342 17.5951 7.76318 17.9346 7.98193C18.2741 8.1984 18.6546 8.3431 19.0762 8.41602L18.7344 9.05176C18.2171 8.94238 17.7568 8.74072 17.3535 8.44678C16.9525 8.15055 16.6517 7.79395 16.4512 7.37695C16.2461 7.79167 15.9419 8.14714 15.5386 8.44336C15.1353 8.7373 14.6761 8.9401 14.1611 9.05176L13.8262 8.41602C14.2432 8.34082 14.6191 8.19499 14.9541 7.97852C15.2913 7.75977 15.5557 7.5 15.7471 7.19922C15.9408 6.89844 16.0387 6.59082 16.041 6.27637V5.81836H16.8477V6.27637ZM19.3018 10.8223H13.6553V10.1934H19.3018V10.8223ZM22.084 8.34082H20.6211V9.50293C20.988 9.49837 21.3229 9.4847 21.626 9.46191C21.929 9.43913 22.2412 9.39811 22.5625 9.33887L22.624 9.96094C22.2435 10.0293 21.8766 10.0749 21.5234 10.0977C21.1725 10.1204 20.7715 10.1318 20.3203 10.1318H19.8896V7.73926H21.3525V6.67969H19.8828V6.07129H22.084V8.34082ZM25.0234 11.6084H24.2988V5.42871H25.0234V11.6084ZM23.752 11.2939H23.0342V8.19727H22.3574V7.5752H23.0342V5.55859H23.752V11.2939ZM30.9365 11.6152H30.1846V8.2793H29.0225V7.66406H30.1846V5.42871H30.9365V11.6152ZM28.9268 6.58398H26.8008V7.69141H28.6807V8.29297H26.8008V9.56445C27.3066 9.56217 27.7453 9.54964 28.1167 9.52686C28.4904 9.50407 28.8652 9.46191 29.2412 9.40039L29.3164 10.0156C28.888 10.0817 28.4631 10.1273 28.0415 10.1523C27.62 10.1751 27.113 10.1888 26.5205 10.1934H26.0352V5.96191H28.9268V6.58398Z" fill="white"/>
        <circle cx="19" cy="30" r="12" fill="#FF6600"/>
        <circle cx="19" cy="30" r="10" stroke="white" stroke-opacity="0.6" stroke-linecap="round" stroke-dasharray="0.5 1.5"/>
        <path d="M13 28C13 27.6853 13.1482 27.3889 13.4 27.2L18.7 23.225C18.8778 23.0917 19.1222 23.0917 19.3 23.225L24.6 27.2C24.8518 27.3889 25 27.6853 25 28V31.0625C25 33.2372 23.2371 35 21.0625 35H16.9375C14.7629 35 13 33.2372 13 31.0625V28Z" fill="white"/>
        <rect x="13" y="28.5352" width="12" height="6.46156" rx="1" fill="white"/>
        <path d="M18.8264 24.4088L14.2246 27.6812C14.0501 27.8054 14.0581 28.0672 14.24 28.1804L18.8418 31.0438C18.9388 31.1041 19.0617 31.1041 19.1588 31.0438L23.7605 28.1804C23.9424 28.0672 23.9505 27.8054 23.7759 27.6812L19.1741 24.4088C19.07 24.3348 18.9305 24.3348 18.8264 24.4088Z" fill="#FF6600"/>
    </g>
    <defs>
        <filter id="filter0_d_2772_1483" x="0" y="0" width="50" height="46" filterUnits="userSpaceOnUse" color-interpolation-filters="sRGB">
            <feFlood flood-opacity="0" result="BackgroundImageFix"/>
            <feColorMatrix in="SourceAlpha" type="matrix" values="0 0 0 0 0 0 0 0 0 0 0 0 0 0 0 0 0 0 127 0" result="hardAlpha"/>
            <feOffset dx="1" dy="1"/>
            <feGaussianBlur stdDeviation="1.5"/>
            <feComposite in2="hardAlpha" operator="out"/>
            <feColorMatrix type="matrix" values="0 0 0 0 0 0 0 0 0 0 0 0 0 0 0 0 0 0 0.25 0"/>
            <feBlend mode="normal" in2="BackgroundImageFix" result="effect1_dropShadow_2772_1483"/>
            <feBlend mode="normal" in="SourceGraphic" in2="effect1_dropShadow_2772_1483" result="shape"/>
        </filter>
    </defs>
</svg>
