<svg width="21" height="21" viewBox="0 0 21 21" fill="none" xmlns="http://www.w3.org/2000/svg">
    <path d="M10.4028 15.3104C10.4028 16.6895 9.32694 17.8074 7.99979 17.8074C6.67264 17.8074 5.59678 16.6895 5.59678 15.3104M8 2.82539C6.72536 2.82539 5.50293 3.35155 4.60163 4.2881C3.70032 5.22466 3.19398 6.49491 3.19398 7.8194C3.19398 10.3915 2.56957 12.1525 1.87205 13.3173C1.28368 14.2998 0.989499 14.7911 1.00029 14.9282C1.01223 15.0799 1.04317 15.1378 1.16085 15.2285C1.26713 15.3104 1.74623 15.3104 2.70445 15.3104H13.2956C14.2538 15.3104 14.7329 15.3104 14.8392 15.2285C14.9568 15.1378 14.9878 15.0799 14.9997 14.9282C15.0105 14.7911 14.7163 14.2998 14.128 13.3173C13.6655 12.5451 13.2353 11.5109 12.9977 10.1521L12.8067 7.8194C12.8067 6.38854 12.0377 3.40674 8.96186 2.92641C8.64763 2.85971 8.32552 2.82539 8 2.82539Z" stroke="#FF6600" stroke-width="1.5" stroke-linecap="round" stroke-linejoin="round"/>
</svg>
