<svg width="60" height="60" viewBox="0 0 60 60" fill="none" xmlns="http://www.w3.org/2000/svg">
    <path d="M57.9649 21.2748C62.5535 36.9501 53.5639 53.3788 37.8887 57.9647C22.2134 62.5533 5.78743 53.5637 1.19881 37.8885C-3.3898 22.2132 5.59703 5.7845 21.275 1.1986C36.9503 -3.39001 53.379 5.59954 57.9649 21.2748Z" fill="#FECC09"/>
    <path d="M50.4033 59.4133L39.1916 55.0899L49.9679 47.4048L50.4033 59.4133Z" fill="#FECC09"/>
    <path d="M32.9515 22.7787C33.0521 23.4342 32.4565 24.068 31.7846 24.1686C31.1128 24.272 30.3566 23.8422 30.256 23.1894L29.8725 20.6816C29.7718 20.0261 30.3675 19.3923 31.0394 19.2917C31.7112 19.1883 32.4701 19.6154 32.568 20.2709L32.9488 22.7787H32.9515Z" fill="#3F3F3F"/>
    <path d="M26.7966 38.8728C21.5117 38.8728 17.7935 36.5799 17.5922 36.4547C16.9557 36.0549 16.7653 35.2144 17.1652 34.578C17.565 33.9442 18.4028 33.7511 19.0392 34.1509C19.1263 34.2053 24.52 37.4666 31.1377 35.5272C37.818 33.5716 40.9759 27.7345 41.0086 27.6746C41.3594 27.011 42.1809 26.758 42.8445 27.1062C43.5082 27.457 43.7639 28.2758 43.4157 28.9394C43.2689 29.2196 39.7193 35.8482 31.9021 38.1384C30.096 38.6661 28.3742 38.8728 26.7939 38.8728H26.7966Z" fill="#3F3F3F"/>
    <path d="M25.5859 24.5769C25.8796 25.1698 25.5097 25.9559 24.9004 26.2606C24.2912 26.5652 23.4398 26.3884 23.1433 25.7982L22.0091 23.527C21.7126 22.934 22.0853 22.1479 22.6945 21.846C23.3011 21.5414 24.1552 21.7182 24.4516 22.3084L25.5859 24.5796V24.5769Z" fill="#3F3F3F"/>
</svg>
