<svg width="18" height="19" viewBox="0 0 18 19" fill="none" xmlns="http://www.w3.org/2000/svg">
<path fill-rule="evenodd" clip-rule="evenodd" d="M16 9.31641C16 5.45041 12.866 2.31641 9 2.31641V0.316406C13.9706 0.316406 18 4.34584 18 9.31641C18 14.287 13.9706 18.3164 9 18.3164C4.02944 18.3164 0 14.287 0 9.31641H2C2 13.1824 5.13401 16.3164 9 16.3164C12.866 16.3164 16 13.1824 16 9.31641Z" fill="#FF6600"/>
<path d="M16 9.31641C16 13.1824 12.866 16.3164 9 16.3164C5.13401 16.3164 2 13.1824 2 9.31641C2 5.45041 5.13401 2.31641 9 2.31641C12.866 2.31641 16 5.45041 16 9.31641Z" fill="white"/>
<path fill-rule="evenodd" clip-rule="evenodd" d="M9 2.31641C8.97111 2.31641 8.94226 2.31658 8.91347 2.31693C8.36122 2.3236 7.90813 1.88132 7.90146 1.32908C7.89479 0.776836 8.33706 0.323745 8.88931 0.317074C8.92616 0.316629 8.96306 0.316406 9 0.316406V2.31641ZM6.95691 1.51481C7.16216 2.02755 6.91289 2.60958 6.40016 2.81482C6.34701 2.83609 6.29419 2.858 6.24169 2.88053C5.73418 3.09837 5.14617 2.86355 4.92834 2.35604C4.7105 1.84853 4.94532 1.26052 5.45283 1.04268C5.52043 1.01367 5.58846 0.985454 5.65691 0.958055C6.16964 0.752813 6.75167 1.00208 6.95691 1.51481ZM4.12867 2.89212C4.5144 3.28738 4.50668 3.9205 4.11142 4.30623C4.0704 4.34627 4.02986 4.3868 3.98982 4.42783C3.60409 4.82309 2.97097 4.83081 2.57572 4.44508C2.18046 4.05934 2.17274 3.42623 2.55847 3.03097C2.60986 2.9783 2.6619 2.92627 2.71456 2.87487C3.10982 2.48914 3.74294 2.49686 4.12867 2.89212ZM2.03963 5.24474C2.54714 5.46258 2.78197 6.05059 2.56413 6.5581C2.5416 6.61059 2.51969 6.66342 2.49842 6.71656C2.29317 7.22929 1.71114 7.47856 1.19841 7.27332C0.685676 7.06808 0.436406 6.48604 0.641649 5.97331C0.669047 5.90487 0.69726 5.83684 0.726275 5.76924C0.944112 5.26173 1.53212 5.02691 2.03963 5.24474ZM1.01267 8.21787C1.56492 8.22454 2.00719 8.67763 2.00052 9.22987C2.00017 9.25867 2 9.28752 2 9.31641H0C0 9.27946 0.0002231 9.24257 0.000668228 9.20572C0.00733894 8.65347 0.460429 8.2112 1.01267 8.21787Z" fill="#FF6600"/>
<path fill-rule="evenodd" clip-rule="evenodd" d="M8.48079 4.49023C8.06657 4.49023 7.73079 4.82602 7.73079 5.24023V9.52502C7.73079 9.73869 7.82193 9.94222 7.98133 10.0845L10.648 12.465C10.957 12.7409 11.4311 12.714 11.707 12.405C11.9828 12.096 11.9559 11.6219 11.6469 11.346L9.23079 9.18917V5.24023C9.23079 4.82602 8.895 4.49023 8.48079 4.49023Z" fill="#FF6600"/>
</svg>
