<svg width="16" height="17" viewBox="0 0 16 17" fill="none" xmlns="http://www.w3.org/2000/svg">
<path fill-rule="evenodd" clip-rule="evenodd" d="M14.25 8.31641C14.25 4.86463 11.4518 2.06641 8 2.06641V0.566406C12.2802 0.566406 15.75 4.0362 15.75 8.31641C15.75 12.5966 12.2802 16.0664 8 16.0664C3.71979 16.0664 0.25 12.5966 0.25 8.31641H1.75C1.75 11.7682 4.54822 14.5664 8 14.5664C11.4518 14.5664 14.25 11.7682 14.25 8.31641Z" fill="#999999"/>
<path fill-rule="evenodd" clip-rule="evenodd" d="M8 2.06641C7.9175 2.06641 7.8354 2.068 7.75375 2.07116C7.33985 2.08716 6.99134 1.7646 6.97534 1.35069C6.95933 0.936789 7.2819 0.58828 7.6958 0.572278C7.79675 0.568374 7.89817 0.566406 8 0.566406V2.06641ZM6.28012 1.48762C6.42353 1.87621 6.22477 2.30749 5.83618 2.4509C5.68221 2.50772 5.53108 2.57044 5.38306 2.6388C5.007 2.81245 4.56138 2.64838 4.38772 2.27232C4.21407 1.89627 4.37814 1.45064 4.7542 1.27699C4.93795 1.19213 5.12561 1.11425 5.31684 1.04367C5.70544 0.900263 6.13671 1.09902 6.28012 1.48762ZM3.79901 2.66687C4.08026 2.97097 4.06172 3.44548 3.75763 3.72672C3.63739 3.83793 3.52152 3.95379 3.41032 4.07403C3.12908 4.37813 2.65456 4.39666 2.35047 4.11542C2.04637 3.83418 2.02784 3.35967 2.30908 3.05557C2.44678 2.90667 2.59026 2.76319 2.73916 2.62548C3.04326 2.34424 3.51777 2.36277 3.79901 2.66687ZM1.95592 4.70413C2.33197 4.87778 2.49605 5.32341 2.32239 5.69946C2.25404 5.84749 2.19131 5.99862 2.13449 6.15258C1.99108 6.54118 1.55981 6.73994 1.17121 6.59653C0.782618 6.45312 0.583856 6.02184 0.727267 5.63325C0.797839 5.44202 0.875725 5.25436 0.96058 5.0706C1.13423 4.69455 1.57986 4.53047 1.95592 4.70413ZM1.03429 7.29174C1.44819 7.30775 1.77075 7.65625 1.75475 8.07016C1.75159 8.15181 1.75 8.2339 1.75 8.31641H0.25C0.25 8.21457 0.251968 8.11316 0.255871 8.01221C0.271874 7.5983 0.620383 7.27574 1.03429 7.29174Z" fill="#999999"/>
<path fill-rule="evenodd" clip-rule="evenodd" d="M7.54557 3.99976C7.13135 3.99976 6.79557 4.33554 6.79557 4.74976V8.49894C6.79557 8.71261 6.8867 8.91614 7.0461 9.05844L9.37944 11.1414C9.68844 11.4172 10.1626 11.3904 10.4384 11.0814C10.7142 10.7724 10.6874 10.2982 10.3784 10.0224L8.29557 8.1631V4.74976C8.29557 4.33554 7.95978 3.99976 7.54557 3.99976Z" fill="#999999"/>
</svg>
